SplineFontDB: 3.2
FontName: Samim-Bold
FullName: Samim Bold
FamilyName: Samim
Weight: Bold
Copyright: Copyright (c) 2003 by Bitstream, Inc. All Rights Reserved.\nDejaVu changes are in public domain\nCopyright (c) 2015 by Saber Rastikerdar. All Rights Reserved.\nNon-Arabic(Latin) glyphs and data are imported from Open Sans font under the Apache License, Version 2.0.
Version: 4.0.5
ItalicAngle: 0
UnderlinePosition: -500
UnderlineWidth: 100
Ascent: 1638
Descent: 410
InvalidEm: 0
LayerCount: 2
Layer: 0 0 "Back" 1
Layer: 1 0 "Fore" 0
PreferredKerning: 4
XUID: [1021 502 1027637223 13780935]
UniqueID: 4193504
UseUniqueID: 1
FSType: 0
OS2Version: 1
OS2_WeightWidthSlopeOnly: 0
OS2_UseTypoMetrics: 1
CreationTime: 1431850356
ModificationTime: 1586862549
PfmFamily: 33
TTFWeight: 700
TTFWidth: 5
LineGap: 0
VLineGap: 0
Panose: 2 11 6 3 3 8 4 2 2 4
OS2TypoAscent: 2150
OS2TypoAOffset: 0
OS2TypoDescent: -1050
OS2TypoDOffset: 0
OS2TypoLinegap: 0
OS2WinAscent: 2150
OS2WinAOffset: 0
OS2WinDescent: 1050
OS2WinDOffset: 0
HheadAscent: 2150
HheadAOffset: 0
HheadDescent: -1050
HheadDOffset: 0
OS2SubXSize: 1331
OS2SubYSize: 1433
OS2SubXOff: 0
OS2SubYOff: 286
OS2SupXSize: 1331
OS2SupYSize: 1433
OS2SupXOff: 0
OS2SupYOff: 983
OS2StrikeYSize: 102
OS2StrikeYPos: 530
OS2CapHeight: 1638
OS2XHeight: 1082
OS2Vendor: '    '
OS2CodePages: 00000041.20080000
OS2UnicodeRanges: 80002003.80000000.00000008.00000000
Lookup: 1 9 0 "Single Substitution 1" { "Single Substitution 1 subtable"  } []
Lookup: 1 9 0 "'fina' Terminal Forms in Arabic lookup 9" { "'fina' Terminal Forms in Arabic lookup 9 subtable"  } ['fina' ('DFLT' <'dflt' > 'arab' <'FAR ' 'KUR ' 'URD ' 'dflt' > ) ]
Lookup: 1 9 0 "'medi' Medial Forms in Arabic lookup 11" { "'medi' Medial Forms in Arabic lookup 11 subtable"  } ['medi' ('DFLT' <'dflt' > 'arab' <'FAR ' 'KUR ' 'URD ' 'dflt' > ) ]

StartChar: exclam
Encoding: 33 33 1
GlifName: exclam
Width: 560
VWidth: 2170
GlyphClass: 2
Flags: HW
LayerCount: 2
Fore
SplineSet
110 170 m 0
 110 264.041015625 185.955078125 340 280 340 c 0
 374.041015625 340 450 264.044921875 450 170 c 0
 450 75.958984375 374.044921875 0 280 0 c 0
 185.958984375 0 110 75.955078125 110 170 c 0
147.638671875 1380 m 5
 412.361328125 1380 l 5
 377.68359375 464 l 1
 182.31640625 464 l 1
 147.638671875 1380 l 5
EndSplineSet
EndChar

StartChar: period
Encoding: 46 46 2
GlifName: period
Width: 560
VWidth: 2170
GlyphClass: 2
Flags: HW
LayerCount: 2
Fore
SplineSet
110 170 m 0
 110 264.041015625 185.955078125 340 280 340 c 0
 374.041015625 340 450 264.044921875 450 170 c 0
 450 75.958984375 374.044921875 0 280 0 c 0
 185.958984375 0 110 75.955078125 110 170 c 0
EndSplineSet
EndChar

StartChar: colon
Encoding: 58 58 3
GlifName: colon
Width: 560
VWidth: 2170
GlyphClass: 2
Flags: HW
LayerCount: 2
Fore
SplineSet
110 770 m 0
 110 864.041015625 185.955078125 940 280 940 c 0
 374.041015625 940 450 864.044921875 450 770 c 0
 450 675.958984375 374.044921875 600 280 600 c 0
 185.958984375 600 110 675.955078125 110 770 c 0
110 170 m 0
 110 264.041015625 185.955078125 340 280 340 c 0
 374.041015625 340 450 264.044921875 450 170 c 0
 450 75.958984375 374.044921875 0 280 0 c 0
 185.958984375 0 110 75.955078125 110 170 c 0
EndSplineSet
EndChar

StartChar: uni060C
Encoding: 1548 1548 5
GlifName: afii57388
Width: 543
VWidth: 2177
GlyphClass: 2
Flags: HW
LayerCount: 2
Fore
SplineSet
280 0 m 2
 177.427734375 0 110 56.88671875 110 157 c 2
 110 228 l 2
 110 408.211914062 192.916015625 561.8046875 350.663085938 682.744140625 c 2
 370.514648438 697.963867188 l 1
 392.888671875 686.77734375 l 1
 460.888671875 652.77734375 l 1
 508.0703125 629.185546875 l 1
 472.622070312 590.120117188 l 2
 392.075195312 501.354492188 347.720703125 417.8828125 335.546875 343.01953125 c 1
 409.790039062 331.689453125 446 270.044921875 446 193 c 2
 446 156 l 2
 446 61.408203125 389.055664062 0 294 0 c 2
 280 0 l 2
EndSplineSet
EndChar

StartChar: uni0615
Encoding: 1557 1557 6
GlifName: uni0615
Width: -29
VWidth: 2712
GlyphClass: 4
Flags: HW
AnchorPoint: "Anchor-10" 658.199 1622.46 mark 0
AnchorPoint: "Anchor-9" 658.199 1622.46 mark 0
AnchorPoint: "Anchor-1" 672.366 2445.86 basemark 0
AnchorPoint: "Anchor-1" 658.199 1622.46 mark 0
LayerCount: 2
Fore
SplineSet
905 1918 m 4
 905 1964.13353137 884.248475671 1985 837 1985 c 4
 772.86163642 1985 677.439530989 1921.11558502 559.40754714 1796 c 5
 678 1796 l 6
 788.757141645 1796 905 1831.73062097 905 1918 c 4
547.048626149 1912.82937032 m 5
 650.770920072 2025.43261318 748.701833546 2086 841 2086 c 4
 944.761796734 2086 999 2031.70047023 999 1927 c 4
 999 1777.75537718 884.263105449 1704 668 1704 c 6
 357 1704 l 5
 347 1704 l 5
 347 1714 l 5
 347 1786 l 5
 347 1796 l 5
 357 1796 l 5
 455 1796 l 5
 455 2317.97363281 l 5
 455 2328.10424414 l 5
 465.129758432 2327.97279091 l 5
 538.125852182 2327.02552529 l 5
 548.019259714 2326.89713918 l 5
 547.996066275 2317.00292584 l 5
 547.048626149 1912.82937032 l 5
EndSplineSet
EndChar

StartChar: uni061B
Encoding: 1563 1563 7
GlifName: uni061B_
Width: 561
VWidth: 2177
GlyphClass: 2
Flags: HW
LayerCount: 2
Fore
SplineSet
280 460 m 6
 177.427734375 460 110 516.88671875 110 617 c 6
 110 688 l 6
 110 868.211914062 192.916015625 1021.8046875 350.663085938 1142.74414062 c 6
 370.514648438 1157.96386719 l 5
 392.888671875 1146.77734375 l 5
 460.888671875 1112.77734375 l 5
 508.0703125 1089.18554688 l 5
 472.622070312 1050.12011719 l 6
 392.075195312 961.354492188 347.720703125 877.8828125 335.546875 803.01953125 c 5
 409.790039062 791.689453125 446 730.044921875 446 653 c 6
 446 616 l 6
 446 521.408203125 389.055664062 460 294 460 c 6
 280 460 l 6
110 170 m 0
 110 264.041015625 185.955078125 340 280 340 c 0
 374.041015625 340 450 264.044921875 450 170 c 0
 450 75.958984375 374.044921875 0 280 0 c 0
 185.958984375 0 110 75.955078125 110 170 c 0
EndSplineSet
EndChar

StartChar: uni061F
Encoding: 1567 1567 8
GlifName: uni061F_
Width: 845
VWidth: 2170
GlyphClass: 2
Flags: HW
LayerCount: 2
Fore
SplineSet
518 3 m 0
 425.666015625 3 348 77.1240234375 348 170 c 0
 348 259.4921875 422.640625 338 514 338 c 0
 608.084960938 338 683 262.447265625 683 170 c 0
 683 81.1630859375 609.197265625 3 518 3 c 0
394 500 m 2
 394 804.73046875 49.9951171875 649.634765625 49.9951171875 993.061523438 c 0
 49.9951171875 1204.58398438 220.196289062 1380 460 1380 c 0
 581.716796875 1380 674.65234375 1343.09179688 787.079101562 1263.66992188 c 2
 814.303710938 1244.43847656 l 1
 800.296875 1214.19140625 l 1
 731.296875 1065.19140625 l 1
 711.951171875 1023.41601562 l 1
 673.287109375 1048.40625 l 2
 592.821289062 1100.4140625 546.774414062 1122 465 1122 c 0
 364.990234375 1122 307 1060.30371094 307 987 c 0
 307 860.360351562 641 905.096679688 641 500 c 2
 641 465 l 1
 601 465 l 1
 434 465 l 1
 394 465 l 1
 394 500 l 2
EndSplineSet
EndChar

StartChar: uni0621
Encoding: 1569 1569 9
GlifName: uni0621
Width: 778
VWidth: 2311
GlyphClass: 2
Flags: HW
AnchorPoint: "Anchor-7" 416.54 -19.7598 basechar 0
AnchorPoint: "Anchor-10" 370.19 1061.23 basechar 0
LayerCount: 2
Fore
SplineSet
499.263671875 368.745117188 m 0
 533.069335938 368.745117188 573.044921875 383.63671875 673.833007812 418.770507812 c 2
 727 437.303710938 l 1
 727 381 l 1
 727 229 l 1
 727 200.90625 l 1
 700.573242188 191.373046875 l 1
 104.573242188 -23.626953125 l 1
 51 -42.9521484375 l 1
 51 14 l 1
 51 161 l 1
 51 188.369140625 l 1
 76.5107421875 198.283203125 l 1
 196.615234375 244.958984375 l 1
 114.357421875 295.829101562 54.9580078125 381.56640625 54.9580078125 495.19921875 c 0
 54.9580078125 702.991210938 217.76171875 848.407226562 437.138671875 848.407226562 c 0
 477.681640625 848.407226562 541.99609375 840.951171875 610.715820312 809.33984375 c 2
 634 798.62890625 l 1
 634 773 l 1
 634 620 l 1
 634 567.50390625 l 1
 583.385742188 581.43359375 l 2
 532.646484375 595.3984375 476.524414062 602.5 438.625 602.5 c 0
 350.971679688 602.5 291.974609375 543.227539062 291.974609375 494.392578125 c 0
 291.974609375 447.081054688 329.000976562 394.09375 441.583984375 373.458007812 c 0
 462.274414062 370.3125 479.788085938 368.745117188 499.263671875 368.745117188 c 0
EndSplineSet
EndChar

StartChar: uni0627
Encoding: 1575 1575 15
GlifName: uni0627
Width: 448
VWidth: 2311
GlyphClass: 2
Flags: HW
AnchorPoint: "Anchor-10" 224.19 1493.38 basechar 0
AnchorPoint: "Anchor-7" 246.61 -170.79 basechar 0
LayerCount: 2
Fore
SplineSet
97.064453125 1320.95898438 m 5
 351 1401.68945312 l 5
 351 2 l 1
 142.245117188 2 l 1
 97.064453125 1320.95898438 l 5
EndSplineSet
Substitution2: "'fina' Terminal Forms in Arabic lookup 9 subtable" uniFE8E
EndChar

StartChar: uni062D
Encoding: 1581 1581 21
GlifName: uni062D_
Width: 1293
VWidth: 2311
GlyphClass: 2
Flags: HW
AnchorPoint: "Anchor-10" 561.59 1167.96 basechar 0
AnchorPoint: "Anchor-7" 674.525 -773.648 basechar 0
LayerCount: 2
Fore
SplineSet
730.306640625 607.778320312 m 1
 716.208984375 613.282226562 702.388671875 618.692382812 684.374023438 625.76953125 c 0
 534.127929688 684.795898438 477.80859375 707 428 707 c 0
 374.43359375 707 305.516601562 665.717773438 226.892578125 561.857421875 c 2
 202.491210938 529.623046875 l 1
 170.518554688 554.3671875 l 1
 55.5185546875 643.3671875 l 1
 25.107421875 666.90234375 l 1
 47.427734375 698.216796875 l 2
 152.877929688 846.162109375 267.134765625 963 435 963 c 0
 560.248046875 963 676.606445312 900.618164062 802.75 842.450195312 c 0
 926.998046875 785.155273438 1077.04882812 709.919921875 1133.98242188 709.919921875 c 0
 1145.07226562 709.919921875 1156.26953125 710.255859375 1167.63085938 710.9296875 c 2
 1216.29394531 713.817382812 l 1
 1209.62402344 665.52734375 l 1
 1184.62402344 484.52734375 l 1
 1180.50097656 454.67578125 l 1
 1150.66992188 450.404296875 l 2
 733.689453125 390.690429688 305 239.629882812 305 -100 c 0
 305 -265.310546875 487.932617188 -380 777 -380 c 4
 905.775390625 -380 1008.74902344 -366.752929688 1122.77441406 -333.897460938 c 6
 1161.36328125 -322.779296875 l 5
 1172.32910156 -361.411132812 l 5
 1216.32910156 -516.411132812 l 5
 1227 -554 l 5
 1189.67089844 -565.546875 l 6
 1047 -610 922.04296875 -629 779 -629 c 4
 395.859375 -629 56 -449.837890625 56 -103 c 0
 56 269.165039062 367.326171875 503.6328125 730.306640625 607.778320312 c 1
EndSplineSet
Substitution2: "'fina' Terminal Forms in Arabic lookup 9 subtable" uniFEA2
Substitution2: "'medi' Medial Forms in Arabic lookup 11 subtable" uniFEA4
Substitution2: "'init' Initial Forms in Arabic lookup 13 subtable" uniFEA3
EndChar

StartChar: uni062F
Encoding: 1583 1583 23
GlifName: uni062F_
Width: 982
VWidth: 2311
GlyphClass: 2
Flags: HW
AnchorPoint: "Anchor-10" 444.149 1229.65 basechar 0
AnchorPoint: "Anchor-7" 435.442 -176.688 basechar 0
LayerCount: 2
Fore
SplineSet
110.514648438 277.9921875 m 2
 189.8515625 251.857421875 296.043945312 238 382 238 c 0
 534.467773438 238 592.408203125 253.021484375 650.274414062 296.205078125 c 0
 677.786132812 316.212890625 693 345.373046875 693 356 c 0
 693 407.778320312 660.090820312 485.501953125 585.307617188 583.594726562 c 0
 525.23828125 660.827148438 442.469726562 740.92578125 339.7578125 819.182617188 c 2
 310.125976562 841.759765625 l 1
 330.541992188 872.920898438 l 1
 425.541992188 1017.92089844 l 1
 448.900390625 1053.57421875 l 1
 483 1028 l 2
 617.249023438 927.313476562 722.438476562 825.630859375 796.5546875 721.243164062 c 0
 883.818359375 599.6953125 930 477.435546875 930 357 c 0
 930 233.340820312 861.309570312 127.538085938 751.606445312 61.716796875 c 0
 650.28125 0.703125 545.807617188 -17 369 -17 c 0
 275.911132812 -17 167.90234375 -2.951171875 83.4853515625 27.3525390625 c 2
 56.8388671875 36.91796875 l 1
 57.0009765625 65.228515625 l 1
 58.0009765625 240.228515625 l 1
 58.314453125 295.1875 l 1
 110.514648438 277.9921875 l 2
EndSplineSet
Substitution2: "'fina' Terminal Forms in Arabic lookup 9 subtable" uniFEAA
EndChar

StartChar: uni0631
Encoding: 1585 1585 25
GlifName: uni0631
Width: 797
VWidth: 2317
GlyphClass: 2
Flags: HW
AnchorPoint: "Anchor-7" 256.38 -598.85 basechar 0
AnchorPoint: "Anchor-10" 533.618 897.71 basechar 0
LayerCount: 2
Fore
SplineSet
3.91796875 -488.99609375 m 1
 -51.08203125 -352.99609375 l 1
 -71.6904296875 -302.038085938 l 5
 271.203140476 -273.290333703 496 -151.959850212 496 155 c 4
 496 209.786132812 474.981445312 322.069335938 431.366210938 484.634765625 c 6
 422.99609375 515.833984375 l 5
 451.732421875 530.584960938 l 1
 601.732421875 607.584960938 l 1
 642.4765625 628.500976562 l 1
 657.719726562 585.3125 l 2
 712.7109375 429.50390625 741 293.493164062 741 177 c 0
 741 -233.440429688 459.17578125 -512.2265625 21.162109375 -514 c 2
 14.0732421875 -514.109375 l 1
 3.91796875 -488.99609375 l 1
EndSplineSet
PairPos2: "'kern' Horizontal Kerning lookup 15-2" uniFB7C dx=-110 dy=0 dh=-110 dv=0 dx=0 dy=0 dh=0 dv=0
PairPos2: "'kern' Horizontal Kerning lookup 15-1" uniFEE7 dx=-178 dy=0 dh=-178 dv=0 dx=0 dy=0 dh=0 dv=0
PairPos2: "'kern' Horizontal Kerning lookup 15-2" uniFE8B dx=-178 dy=0 dh=-178 dv=0 dx=0 dy=0 dh=0 dv=0
PairPos2: "'kern' Horizontal Kerning lookup 15-2" uni0640 dx=-178 dy=0 dh=-178 dv=0 dx=0 dy=0 dh=0 dv=0
PairPos2: "'kern' Horizontal Kerning lookup 15-2" uni067E dx=-178 dy=0 dh=-178 dv=0 dx=0 dy=0 dh=0 dv=0
PairPos2: "'kern' Horizontal Kerning lookup 15-2" uni06AF dx=-226 dy=0 dh=-226 dv=0 dx=0 dy=0 dh=0 dv=0
PairPos2: "'kern' Horizontal Kerning lookup 15-2" uniFB92 dx=-226 dy=0 dh=-226 dv=0 dx=0 dy=0 dh=0 dv=0
PairPos2: "'kern' Horizontal Kerning lookup 15-2" uniFB94 dx=-226 dy=0 dh=-226 dv=0 dx=0 dy=0 dh=0 dv=0
PairPos2: "'kern' Horizontal Kerning lookup 15-2" uni0621 dx=-178 dy=0 dh=-178 dv=0 dx=0 dy=0 dh=0 dv=0
PairPos2: "'kern' Horizontal Kerning lookup 15-2" uni0622 dx=-143 dy=0 dh=-143 dv=0 dx=0 dy=0 dh=0 dv=0
PairPos2: "'kern' Horizontal Kerning lookup 15-2" uni0623 dx=-143 dy=0 dh=-143 dv=0 dx=0 dy=0 dh=0 dv=0
PairPos2: "'kern' Horizontal Kerning lookup 15-2" uni0627 dx=-143 dy=0 dh=-143 dv=0 dx=0 dy=0 dh=0 dv=0
PairPos2: "'kern' Horizontal Kerning lookup 15-2" uni0628 dx=-178 dy=0 dh=-178 dv=0 dx=0 dy=0 dh=0 dv=0
PairPos2: "'kern' Horizontal Kerning lookup 15-2" uni0629 dx=-178 dy=0 dh=-178 dv=0 dx=0 dy=0 dh=0 dv=0
PairPos2: "'kern' Horizontal Kerning lookup 15-2" uni062A dx=-178 dy=0 dh=-178 dv=0 dx=0 dy=0 dh=0 dv=0
PairPos2: "'kern' Horizontal Kerning lookup 15-2" uniFE97 dx=-178 dy=0 dh=-178 dv=0 dx=0 dy=0 dh=0 dv=0
PairPos2: "'kern' Horizontal Kerning lookup 15-2" uni062B dx=-178 dy=0 dh=-178 dv=0 dx=0 dy=0 dh=0 dv=0
PairPos2: "'kern' Horizontal Kerning lookup 15-2" uniFE9B dx=-178 dy=0 dh=-178 dv=0 dx=0 dy=0 dh=0 dv=0
PairPos2: "'kern' Horizontal Kerning lookup 15-2" uniFE9F dx=-178 dy=0 dh=-178 dv=0 dx=0 dy=0 dh=0 dv=0
PairPos2: "'kern' Horizontal Kerning lookup 15-2" uniFEA3 dx=-178 dy=0 dh=-178 dv=0 dx=0 dy=0 dh=0 dv=0
PairPos2: "'kern' Horizontal Kerning lookup 15-2" uniFEA7 dx=-178 dy=0 dh=-178 dv=0 dx=0 dy=0 dh=0 dv=0
PairPos2: "'kern' Horizontal Kerning lookup 15-2" uni062F dx=-178 dy=0 dh=-178 dv=0 dx=0 dy=0 dh=0 dv=0
PairPos2: "'kern' Horizontal Kerning lookup 15-2" uni0630 dx=-178 dy=0 dh=-178 dv=0 dx=0 dy=0 dh=0 dv=0
PairPos2: "'kern' Horizontal Kerning lookup 15-2" uni0633 dx=-178 dy=0 dh=-178 dv=0 dx=0 dy=0 dh=0 dv=0
PairPos2: "'kern' Horizontal Kerning lookup 15-2" uniFEB3 dx=-178 dy=0 dh=-178 dv=0 dx=0 dy=0 dh=0 dv=0
PairPos2: "'kern' Horizontal Kerning lookup 15-2" uni0634 dx=-178 dy=0 dh=-178 dv=0 dx=0 dy=0 dh=0 dv=0
PairPos2: "'kern' Horizontal Kerning lookup 15-2" uniFEB7 dx=-178 dy=0 dh=-178 dv=0 dx=0 dy=0 dh=0 dv=0
PairPos2: "'kern' Horizontal Kerning lookup 15-2" uni0635 dx=-178 dy=0 dh=-178 dv=0 dx=0 dy=0 dh=0 dv=0
PairPos2: "'kern' Horizontal Kerning lookup 15-2" uniFEBB dx=-178 dy=0 dh=-178 dv=0 dx=0 dy=0 dh=0 dv=0
PairPos2: "'kern' Horizontal Kerning lookup 15-2" uni0636 dx=-178 dy=0 dh=-178 dv=0 dx=0 dy=0 dh=0 dv=0
PairPos2: "'kern' Horizontal Kerning lookup 15-2" uniFEBF dx=-178 dy=0 dh=-178 dv=0 dx=0 dy=0 dh=0 dv=0
PairPos2: "'kern' Horizontal Kerning lookup 15-2" uni0637 dx=-178 dy=0 dh=-178 dv=0 dx=0 dy=0 dh=0 dv=0
PairPos2: "'kern' Horizontal Kerning lookup 15-2" uniFEC3 dx=-178 dy=0 dh=-178 dv=0 dx=0 dy=0 dh=0 dv=0
PairPos2: "'kern' Horizontal Kerning lookup 15-2" uni0638 dx=-178 dy=0 dh=-178 dv=0 dx=0 dy=0 dh=0 dv=0
PairPos2: "'kern' Horizontal Kerning lookup 15-2" uniFEC7 dx=-178 dy=0 dh=-178 dv=0 dx=0 dy=0 dh=0 dv=0
PairPos2: "'kern' Horizontal Kerning lookup 15-2" uniFECB dx=-178 dy=0 dh=-178 dv=0 dx=0 dy=0 dh=0 dv=0
PairPos2: "'kern' Horizontal Kerning lookup 15-2" uniFECF dx=-178 dy=0 dh=-178 dv=0 dx=0 dy=0 dh=0 dv=0
PairPos2: "'kern' Horizontal Kerning lookup 15-2" uni0641 dx=-178 dy=0 dh=-178 dv=0 dx=0 dy=0 dh=0 dv=0
PairPos2: "'kern' Horizontal Kerning lookup 15-2" uniFED3 dx=-178 dy=0 dh=-178 dv=0 dx=0 dy=0 dh=0 dv=0
PairPos2: "'kern' Horizontal Kerning lookup 15-2" uni0642 dx=-60 dy=0 dh=-60 dv=0 dx=0 dy=0 dh=0 dv=0
PairPos2: "'kern' Horizontal Kerning lookup 15-2" uniFED7 dx=-178 dy=0 dh=-178 dv=0 dx=0 dy=0 dh=0 dv=0
PairPos2: "'kern' Horizontal Kerning lookup 15-2" uni0643 dx=-143 dy=0 dh=-143 dv=0 dx=0 dy=0 dh=0 dv=0
PairPos2: "'kern' Horizontal Kerning lookup 15-2" uniFEDB dx=-226 dy=0 dh=-226 dv=0 dx=0 dy=0 dh=0 dv=0
PairPos2: "'kern' Horizontal Kerning lookup 15-2" uni0644 dx=-60 dy=0 dh=-60 dv=0 dx=0 dy=0 dh=0 dv=0
PairPos2: "'kern' Horizontal Kerning lookup 15-2" uniFEDF dx=-143 dy=0 dh=-143 dv=0 dx=0 dy=0 dh=0 dv=0
PairPos2: "'kern' Horizontal Kerning lookup 15-2" uniFEFB dx=-143 dy=0 dh=-143 dv=0 dx=0 dy=0 dh=0 dv=0
PairPos2: "'kern' Horizontal Kerning lookup 15-2" uni0645 dx=-178 dy=0 dh=-178 dv=0 dx=0 dy=0 dh=0 dv=0
PairPos2: "'kern' Horizontal Kerning lookup 15-2" uniFEE3 dx=-178 dy=0 dh=-178 dv=0 dx=0 dy=0 dh=0 dv=0
PairPos2: "'kern' Horizontal Kerning lookup 15-2" uni0646 dx=-60 dy=0 dh=-60 dv=0 dx=0 dy=0 dh=0 dv=0
PairPos2: "'kern' Horizontal Kerning lookup 15-2" uni0647 dx=-178 dy=0 dh=-178 dv=0 dx=0 dy=0 dh=0 dv=0
PairPos2: "'kern' Horizontal Kerning lookup 15-2" uniFEEB dx=-178 dy=0 dh=-178 dv=0 dx=0 dy=0 dh=0 dv=0
PairPos2: "'kern' Horizontal Kerning lookup 15-2" uni0649 dx=-60 dy=0 dh=-60 dv=0 dx=0 dy=0 dh=0 dv=0
PairPos2: "'kern' Horizontal Kerning lookup 15-2" uni0626 dx=-60 dy=0 dh=-60 dv=0 dx=0 dy=0 dh=0 dv=0
PairPos2: "'kern' Horizontal Kerning lookup 15-2" uni064A dx=-60 dy=0 dh=-60 dv=0 dx=0 dy=0 dh=0 dv=0
PairPos2: "'kern' Horizontal Kerning lookup 15-2" uni06A9 dx=-226 dy=0 dh=-226 dv=0 dx=0 dy=0 dh=0 dv=0
PairPos2: "'kern' Horizontal Kerning lookup 15-2" uniFB8E dx=-226 dy=0 dh=-226 dv=0 dx=0 dy=0 dh=0 dv=0
PairPos2: "'kern' Horizontal Kerning lookup 15-2" uniFB90 dx=-226 dy=0 dh=-226 dv=0 dx=0 dy=0 dh=0 dv=0
PairPos2: "'kern' Horizontal Kerning lookup 15-2" uniFBFE dx=30 dy=0 dh=30 dv=0 dx=0 dy=0 dh=0 dv=0
PairPos2: "'kern' Horizontal Kerning lookup 15-2" uni0631 dx=-30 dy=0 dh=-30 dv=0 dx=0 dy=0 dh=0 dv=0
PairPos2: "'kern' Horizontal Kerning lookup 15-2" uni0632 dx=-30 dy=0 dh=-30 dv=0 dx=0 dy=0 dh=0 dv=0
PairPos2: "'kern' Horizontal Kerning lookup 15-2" uni0624 dx=-30 dy=0 dh=-30 dv=0 dx=0 dy=0 dh=0 dv=0
PairPos2: "'kern' Horizontal Kerning lookup 15-2" uni0648 dx=-30 dy=0 dh=-30 dv=0 dx=0 dy=0 dh=0 dv=0
PairPos2: "'kern' Horizontal Kerning lookup 15-2" uni0698 dx=-40 dy=0 dh=-40 dv=0 dx=0 dy=0 dh=0 dv=0
PairPos2: "'kern' Horizontal Kerning lookup 15-5" uni06C0 dx=-178 dy=0 dh=-178 dv=0 dx=0 dy=0 dh=0 dv=0
Substitution2: "'fina' Terminal Forms in Arabic lookup 9 subtable" uniFEAE
EndChar

StartChar: uni0633
Encoding: 1587 1587 27
GlifName: uni0633
Width: 2391
VWidth: 2311
GlyphClass: 2
Flags: HW
AnchorPoint: "Anchor-7" 686.95 -694.09 basechar 0
AnchorPoint: "Anchor-10" 1693.64 1046.47 basechar 0
LayerCount: 2
Fore
SplineSet
1707.99121094 114.4609375 m 1
 1649.54589844 38.4619140625 1569.73535156 0 1474 0 c 0
 1426.828125 0 1380.04589844 9.5615234375 1336.70703125 27.1904296875 c 1
 1311.703125 -332.931640625 1083.81445312 -518 686 -518 c 0
 307.5703125 -518 58 -322.622070312 58 57 c 0
 58 201.821289062 89.4150390625 345.65625 153.42578125 490.197265625 c 2
 168.62890625 524.526367188 l 1
 203.8515625 511.525390625 l 1
 352.8515625 456.525390625 l 1
 391.655273438 442.201171875 l 1
 376.040039062 403.899414062 l 2
 324.325195312 277.052734375 299 166.750976562 299 75 c 0
 299 -155.250976562 417.931640625 -265 690 -265 c 0
 983.732421875 -265 1112 -148.633789062 1112 94 c 0
 1112 178.002929688 1078.74121094 292.114257812 1009.12402344 433.311523438 c 2
 992.291015625 467.451171875 l 1
 1025.5546875 485.955078125 l 1
 1176.5546875 569.955078125 l 1
 1216.78808594 592.336914062 l 1
 1233.32910156 549.37109375 l 1
 1315.15527344 336.822265625 l 2
 1335.67773438 287.665039062 1378.06152344 260 1469 260 c 0
 1537.55566406 260 1579.11816406 298.102539062 1591.19824219 417.98046875 c 2
 1610.19824219 607.98046875 l 1
 1613.80078125 644 l 1
 1650 644 l 1
 1768 644 l 1
 1803.12890625 644 l 1
 1807.66503906 609.165039062 l 1
 1832.66503906 417.165039062 l 2
 1847.72949219 301.470703125 1895.875 261.98828125 1974.32324219 261.98828125 c 0
 2060.25097656 261.98828125 2090 275.487304688 2090 424 c 0
 2090 493.392578125 2057.16699219 651.604492188 2044.33007812 687.546875 c 2
 2030.40136719 726.546875 l 1
 2069.86230469 739.114257812 l 1
 2226.86230469 789.114257812 l 1
 2263.7890625 800.874023438 l 1
 2276.7109375 764.336914062 l 2
 2312.06542969 664.369140625 2333 566.618164062 2333 436 c 0
 2333 175.721679688 2222.54296875 1 1982 1 c 0
 1864.62304688 1 1769.55273438 38.021484375 1707.99121094 114.4609375 c 1
EndSplineSet
Substitution2: "'fina' Terminal Forms in Arabic lookup 9 subtable" uniFEB2
Substitution2: "'medi' Medial Forms in Arabic lookup 11 subtable" uniFEB4
Substitution2: "'init' Initial Forms in Arabic lookup 13 subtable" uniFEB3
EndChar

StartChar: uni0635
Encoding: 1589 1589 29
GlifName: uni0635
Width: 2504
VWidth: 2311
GlyphClass: 2
Flags: HW
AnchorPoint: "Anchor-7" 686.95 -674.09 basechar 0
AnchorPoint: "Anchor-10" 1955.64 1124.47 basechar 0
LayerCount: 2
Fore
SplineSet
2199 451 m 0
 2199 533.060546875 2146.91308594 578 2060.0859375 578 c 0
 1914.94042969 577.376953125 1708.578125 373.33984375 1611.29492188 260 c 1
 1710 260 l 2
 1991.76660156 260 2199 307.999023438 2199 451 c 0
688.049804688 -518 m 0
 307.65625 -518 58 -323.640625 58 58 c 0
 58 201.84375 89.3798828125 346.609375 153.469726562 490.293945312 c 2
 168.72265625 524.4921875 l 1
 203.8515625 511.525390625 l 1
 352.8515625 456.525390625 l 1
 391.655273438 442.201171875 l 1
 376.040039062 403.899414062 l 2
 324.325195312 277.052734375 299 166.750976562 299 75 c 0
 299 -156.19140625 417.774414062 -265 691 -265 c 0
 983.720703125 -265 1112 -148.6015625 1112 93 c 0
 1112 177.03515625 1078.703125 292.192382812 1009.12402344 433.311523438 c 2
 992.291015625 467.451171875 l 1
 1025.5546875 485.955078125 l 1
 1176.5546875 569.955078125 l 1
 1216.95507812 592.4296875 l 1
 1233.38769531 549.217773438 l 1
 1314.234375 336.620117188 l 2
 1320.453125 321.346679688 1326.51367188 308.568359375 1331.73730469 300.247070312 c 1
 1415.82226562 414.228515625 1739.06152344 838 2060 838 c 0
 2295.59277344 838 2446 682.936523438 2446 451 c 0
 2446 116.97265625 2120.67773438 0 1697 0 c 2
 1531 0 l 2
 1459.56054688 0 1393.18847656 10.5302734375 1336.94726562 30.6767578125 c 1
 1313.39355469 -331.11328125 1086.35546875 -517.016601562 688.049804688 -518 c 0
EndSplineSet
Substitution2: "'fina' Terminal Forms in Arabic lookup 9 subtable" uniFEBA
Substitution2: "'medi' Medial Forms in Arabic lookup 11 subtable" uniFEBC
Substitution2: "'init' Initial Forms in Arabic lookup 13 subtable" uniFEBB
EndChar

StartChar: uni0637
Encoding: 1591 1591 31
GlifName: uni0637
Width: 1564
VWidth: 2311
GlyphClass: 2
Flags: HW
AnchorPoint: "Anchor-10" 345.043 1496.92 basechar 0
AnchorPoint: "Anchor-7" 705.363 -194.3 basechar 0
LayerCount: 2
Fore
SplineSet
1261 451 m 0
 1261 533.060546875 1208.91308594 578 1122.0859375 578 c 0
 976.940429688 577.376953125 770.578125 373.33984375 673.294921875 260 c 1
 772 260 l 2
 1053.76660156 260 1261 307.999023438 1261 451 c 0
1122 838 m 0
 1357.59277344 838 1508 682.936523438 1508 451 c 0
 1508 116.97265625 1182.67773438 0 759 0 c 2
 653 0 l 2
 354.98828125 0 178.4296875 10.79296875 60.69140625 32.673828125 c 2
 28.2236328125 38.70703125 l 1
 28.0009765625 71.7294921875 l 1
 27.0009765625 219.729492188 l 1
 26.728515625 260 l 1
 67 260 l 1
 252.873046875 260 l 1
 220.1484375 1328.09960938 l 5
 476 1399.73828125 l 5
 476 391.869140625 l 1
 595.819335938 545.80859375 849.723632812 838 1122 838 c 0
EndSplineSet
Substitution2: "'fina' Terminal Forms in Arabic lookup 9 subtable" uniFEC2
Substitution2: "'medi' Medial Forms in Arabic lookup 11 subtable" uniFEC4
Substitution2: "'init' Initial Forms in Arabic lookup 13 subtable" uniFEC3
EndChar

StartChar: uni0639
Encoding: 1593 1593 33
GlifName: uni0639
Width: 1232
VWidth: 2311
GlyphClass: 2
Flags: HW
AnchorPoint: "Anchor-7" 680.525 -729.648 basechar 0
AnchorPoint: "Anchor-10" 624.59 1358.96 basechar 0
LayerCount: 2
Fore
SplineSet
56 -102.907226562 m 0
 56.9951171875 110.997070312 177.194335938 292.58203125 347.450195312 398.80859375 c 1
 259.139648438 502.41015625 229 608.842773438 229 712 c 0
 229 954.174804688 407.275390625 1123 627 1123 c 0
 777.643554688 1123 902.37109375 1060.17578125 990.412109375 938.440429688 c 2
 1008.32714844 913.668945312 l 1
 989.127929688 889.87890625 l 1
 897.127929688 775.87890625 l 1
 868.764648438 740.733398438 l 1
 837.302734375 773.134765625 l 2
 776.45703125 835.796875 711.69921875 864 637 864 c 0
 547.598134267 864 470.995788093 803.921139596 470.995788093 715.364916261 c 0
 470.995788093 671.164548137 472.331782755 645.825925285 522.591796875 575.190429688 c 0
 549.635742188 537.181640625 593.538085938 503.319335938 608.202148438 497.390625 c 1
 787.0703125 531.807617188 856.045898438 537.999023438 1004.12304688 544.956054688 c 2
 1046 546.922851562 l 1
 1046 505 l 1
 1046 338 l 1
 1046 300.853515625 l 1
 1008.95507812 298.109375 l 2
 928.56640625 292.154296875 858.290039062 285.203125 797.807617188 276.423828125 c 0
 620.532226562 250.125 493.98046875 196.90625 412.502929688 119.955078125 c 0
 338.532226562 49.7294921875 305.874023438 -13.6689453125 305 -100.202148438 c 0
 305 -265.142578125 487.932617188 -380 777 -380 c 0
 888.325294331 -380 988.572265625 -368.852539062 1103.36328125 -335.779296875 c 5
 1114.32910156 -374.411132812 l 5
 1158.32910156 -529.411132812 l 5
 1169 -567 l 5
 1028.7265625 -610.390625 887.968648122 -629 779 -629 c 0
 395.859375 -629 56 -449.765625 56 -102.907226562 c 0
EndSplineSet
Substitution2: "'fina' Terminal Forms in Arabic lookup 9 subtable" uniFECA
Substitution2: "'medi' Medial Forms in Arabic lookup 11 subtable" uniFECC
Substitution2: "'init' Initial Forms in Arabic lookup 13 subtable" uniFECB
EndChar

StartChar: uni0640
Encoding: 1600 1600 35
GlifName: afii57440
Width: 260
VWidth: 2311
GlyphClass: 2
Flags: HW
AnchorPoint: "Anchor-10" 136.44 797.15 basechar 0
AnchorPoint: "Anchor-7" 130.44 -176.31 basechar 0
LayerCount: 2
Fore
SplineSet
267 0 m 6
 -4 0 l 2
 -49.5438522623 0 -52 64.7431640625 -52 114 c 2
 -52 148 l 2
 -52 198.491210938 -48.7445443516 260 -4 260 c 2
 267 260 l 6
 284 260 285 177 285 148 c 6
 285 114 l 6
 285 84 285 -2.20436423847e-15 267 0 c 6
EndSplineSet
EndChar

StartChar: uni0643
Encoding: 1603 1603 38
GlifName: uni0643
Width: 1876
VWidth: 2311
GlyphClass: 2
Flags: HW
AnchorPoint: "Anchor-7" 885.06 -161.16 basechar 0
AnchorPoint: "Anchor-10" 958.52 1342.01 basechar 0
LayerCount: 2
Fore
SplineSet
921 260 m 0
 985.674804688 260 1052.87402344 260.186523438 1118.35742188 262.985351562 c 0
 1377.98632812 274.083007812 1567 324 1558.03710938 504.287109375 c 2
 1519.66699219 1319.23535156 l 5
 1550.53027344 1327.60546875 l 5
 1727.53027344 1375.60546875 l 5
 1778 1389.29199219 l 5
 1778 1337 l 5
 1778 474 l 2
 1778 456 1776.89453125 436.071289062 1774.87988281 411.895507812 c 0
 1762.35351562 238.80078125 1635.79394531 118.301757812 1421.88671875 50.806640625 c 0
 1312.72558594 17.3017578125 1141.95703125 0.978515625 907.083007812 0 c 0
 431.7890625 0 57.34375 101.625976562 57.34375 566.849609375 c 0
 57.34375 642.399414062 69.0546875 721.198242188 92.5537109375 803.0390625 c 2
 103.39453125 840.794921875 l 1
 141.340820312 830.640625 l 1
 283.340820312 792.640625 l 1
 317.822265625 783.413085938 l 1
 312.563476562 748.107421875 l 2
 300.475585938 666.943359375 294.625 605.0703125 294.625 564.671875 c 0
 294.625 298.983398438 543.751953125 260 921 260 c 0
719.416992188 766.754882812 m 2
 767.69921875 761.390625 818.34375 756 860 756 c 0
 949.08984375 756 1004 795.797851562 1004 809 c 0
 1004 813.1328125 999.286132812 823.500976562 949.806640625 831.482421875 c 0
 861.456054688 844.926757812 775.9375 904.26171875 775.9375 1011.53320312 c 0
 775.9375 1206.94042969 976.646484375 1246.04882812 1127.65136719 1254.93066406 c 2
 1170 1257.421875 l 1
 1170 1215 l 1
 1170 1122 l 1
 1170 1084.578125 l 1
 1132.66113281 1082.08886719 l 2
 1024.25195312 1074.86132812 952 1038.41796875 952 1020 c 0
 952 1003.95507812 961.546875 996.389648438 1029.63964844 987.603515625 c 0
 1123.31640625 973.004882812 1180 911.314453125 1180 817 c 0
 1180 733.926757812 1129.09179688 667.424804688 1046.84472656 620.26953125 c 0
 991.540039062 588.77734375 924.901367188 574.331054688 848.161132812 574.331054688 c 0
 804.375976562 574.331054688 754.932617188 580.385742188 708.91796875 587.46484375 c 2
 675 592.68359375 l 1
 675 627 l 1
 675 727 l 1
 675 771.690429688 l 1
 719.416992188 766.754882812 l 2
EndSplineSet
Substitution2: "'fina' Terminal Forms in Arabic lookup 9 subtable" uniFEDA
Substitution2: "'medi' Medial Forms in Arabic lookup 11 subtable" uniFEDC
Substitution2: "'init' Initial Forms in Arabic lookup 13 subtable" uniFEDB
EndChar

StartChar: uni0644
Encoding: 1604 1604 39
GlifName: uni0644
Width: 1377
VWidth: 2311
GlyphClass: 2
Flags: HW
AnchorPoint: "Anchor-7" 682.95 -612.09 basechar 0
AnchorPoint: "Anchor-10" 632.91 1075.85 basechar 0
LayerCount: 2
Fore
SplineSet
671 -235 m 0
 675.7578125 -235 680.466796875 -234.956054688 685.125976562 -234.8671875 c 0
 939.783203125 -230.04296875 1057 -102 1051.0078125 181.21484375 c 2
 1026.41015625 1324.68554688 l 5
 1055.62890625 1333.34960938 l 5
 1227.62890625 1384.34960938 l 5
 1279 1399.58203125 l 5
 1279 1346 l 5
 1279 142 l 2
 1279 -268 1069.94335938 -488 668 -488 c 0
 299.012695312 -488 58 -269.915039062 58 88 c 0
 58 217.439453125 93.8447265625 361.59375 163.370117188 520.0703125 c 2
 178.506835938 554.572265625 l 1
 213.8515625 541.525390625 l 1
 362.8515625 486.525390625 l 1
 401.655273438 472.201171875 l 1
 386.040039062 433.899414062 l 2
 334.325195312 307.052734375 309 196.750976562 309 105 c 0
 309 -111.294921875 433.977539062 -235 671 -235 c 0
EndSplineSet
Substitution2: "'fina' Terminal Forms in Arabic lookup 9 subtable" uniFEDE
Substitution2: "'medi' Medial Forms in Arabic lookup 11 subtable" uniFEE0
Substitution2: "'init' Initial Forms in Arabic lookup 13 subtable" uniFEDF
EndChar

StartChar: uni0645
Encoding: 1605 1605 40
GlifName: uni0645
Width: 1166
VWidth: 2311
GlyphClass: 2
Flags: HW
AnchorPoint: "Anchor-10" 605.79 1061.87 basechar 0
AnchorPoint: "Anchor-7" 692.148 -182.569 basechar 0
LayerCount: 2
Fore
SplineSet
521.818359375 257 m 1
 654 257 l 1
 735 257 l 2
 826.541015625 257 839.73828125 262.826171875 847.75 268.549804688 c 2
 848.622070312 269.171875 l 1
 849.525390625 269.74609375 l 2
 855.8828125 273.791992188 881 313.251953125 881 338 c 0
 881 385.263671875 738.750976562 503 626 503 c 0
 532.63671875 503 524.962890625 421.750976562 521.818359375 257 c 1
736 0 m 2
 413 0 l 2
 319.100585938 0 275 -39.421875 275 -189 c 0
 275 -200.450195312 274.970703125 -210.989257812 275.92578125 -222.443359375 c 2
 296.959960938 -692.2109375 l 1
 298.221679688 -720.3984375 l 1
 272.091796875 -731.043945312 l 1
 110.091796875 -797.043945312 l 1
 55 -819.48828125 l 1
 55 -760 l 1
 55 -176 l 2
 55 19.8427734375 132.782226562 192.240234375 287.432617188 242.650390625 c 1
 287.1171875 250.729492188 287 256.120117188 287 265 c 0
 287 535.841796875 380.78515625 771 636 771 c 0
 831.833984375 771 1118 558.840820312 1118 370 c 0
 1118 283.935546875 1066.8671875 153.307617188 1010.58398438 91.4580078125 c 0
 952.671875 27.8173828125 875.62890625 0 736 0 c 2
EndSplineSet
Substitution2: "'init' Initial Forms in Arabic lookup 13 subtable" uniFEE3
Substitution2: "'medi' Medial Forms in Arabic lookup 11 subtable" uniFEE4
Substitution2: "'fina' Terminal Forms in Arabic lookup 9 subtable" uniFEE2
EndChar

StartChar: uni0647
Encoding: 1607 1607 42
GlifName: uni0647
Width: 895
VWidth: 2311
GlyphClass: 2
Flags: HW
AnchorPoint: "Anchor-10" 397.3 1156.62 basechar 0
AnchorPoint: "Anchor-7" 453.016 -159.273 basechar 0
LayerCount: 2
Fore
SplineSet
448 261 m 0
 574.424804688 261 604 301.197265625 604 363 c 0
 604 439.661132812 563.53515625 482.09375 439.056640625 587.708984375 c 1
 329.583007812 486.752929688 291 439.939453125 291 363 c 0
 291 296.538085938 323.75390625 261 448 261 c 0
406.853515625 954.341796875 m 2
 691.006835938 729.012695312 841 571.352539062 841 360 c 0
 841 135.609375 687.1171875 4 448 4 c 0
 218.046875 4 58 123.9765625 58 360 c 0
 58 496.331054688 126.852539062 601.1171875 260.522460938 747.708007812 c 1
 255.899414062 751.689453125 l 1
 228.3125 775.444335938 l 1
 249.373046875 805.139648438 l 1
 349.373046875 946.139648438 l 1
 373.786132812 980.563476562 l 1
 406.853515625 954.341796875 l 2
EndSplineSet
Substitution2: "'fina' Terminal Forms in Arabic lookup 9 subtable" uniFEEA
Substitution2: "'medi' Medial Forms in Arabic lookup 11 subtable" uniFEEC
Substitution2: "'init' Initial Forms in Arabic lookup 13 subtable" uniFEEB
EndChar

StartChar: uni0648
Encoding: 1608 1608 43
GlifName: uni0648
Width: 878
VWidth: 2311
GlyphClass: 2
Flags: HW
AnchorPoint: "Anchor-7" 316.38 -598.85 basechar 0
AnchorPoint: "Anchor-10" 424.959 1061.28 basechar 0
LayerCount: 2
Fore
SplineSet
436.716796875 543.08203125 m 0
 364.616210938 543.08203125 291.232421875 451.938476562 291.232421875 335.719726562 c 0
 291.232421875 271.061523438 313.857421875 240.989257812 425.666992188 240.989257812 c 0
 507.461914062 240.989257812 557.198242188 263.131835938 579.763671875 275.999023438 c 1
 575.564453125 456.525390625 521.930664062 543.08203125 436.716796875 543.08203125 c 0
436.065429688 795.01171875 m 0
 678.578125 795.01171875 820.034179688 571.373046875 820.034179688 211.911132812 c 0
 820.034179688 -254.45703125 528.729492188 -514 101 -514 c 6
 94.029296875 -514 l 5
 83.91796875 -488.99609375 l 5
 28.91796875 -352.99609375 l 5
 8.091796875 -301.5 l 5
 316.393934759 -271.71719628 494.816735455 -180.477344208 557.075195312 13.9052734375 c 5
 520.0234375 3.3037109375 474.171875 -5 416 -5 c 0
 195.35546875 -5 58.9853515625 116.05078125 58.9853515625 312.520507812 c 0
 58.9853515625 560.77734375 205.8203125 795.01171875 436.065429688 795.01171875 c 0
EndSplineSet
Substitution2: "'fina' Terminal Forms in Arabic lookup 9 subtable" uniFEEE
EndChar

StartChar: uni0649
Encoding: 1609 1609 44
GlifName: uni0649
Width: 1490
VWidth: 2311
GlyphClass: 2
Flags: HW
AnchorPoint: "Anchor-10" 628 825 basechar 0
AnchorPoint: "Anchor-7" 706 -607 basechar 0
LayerCount: 2
Fore
SplineSet
397 488 m 2
 334 345 303 223 303 101 c 0
 303 -119 424 -226 709 -226 c 0
 971 -226 1193 -126 1201 -2 c 1
 1199 0 1193 -6.6130927154e-15 1139 0 c 2
 1028 0 l 2
 846 1 732 82 732 242 c 0
 734 498 953 773 1240 773 c 4
 1310.56261589 773 1387.77386322 752.09893484 1452 719 c 5
 1441 685 l 1
 1389 524 l 1
 1377 487 l 1
 1340 498 l 2
 1304 509 1270 513 1240 513 c 0
 1074 513 975 370 975 264 c 0
 975 260 1007 253 1045 253 c 2
 1160 253 l 2
 1337 253 1433 187 1433 41 c 0
 1433 -306 1096 -482 708 -482 c 0
 307 -482 57 -286 57 99 c 0
 57 238 94 399 180 581 c 2
 196 616 l 1
 231 601 l 1
 375 541 l 1
 413 525 l 1
 397 488 l 2
EndSplineSet
Substitution2: "'fina' Terminal Forms in Arabic lookup 9 subtable" uniFEF0
Substitution2: "'medi' Medial Forms in Arabic lookup 11 subtable" uniFBE9
Substitution2: "'init' Initial Forms in Arabic lookup 13 subtable" uniFBE8
EndChar

StartChar: uni064B
Encoding: 1611 1611 46
GlifName: uni064B_
Width: -26
VWidth: 2316
GlyphClass: 4
Flags: HW
AnchorPoint: "Anchor-10" 583.551 1123.65 mark 0
AnchorPoint: "Anchor-9" 583.551 1123.65 mark 0
AnchorPoint: "Anchor-1" 553.285 1596.25 basemark 0
AnchorPoint: "Anchor-1" 583.551 1123.65 mark 0
LayerCount: 2
Fore
SplineSet
317 1076 m 1
 317 1180 l 1
 317 1186.71537562 l 1
 323.216048115 1189.25644144 l 1
 778.216048115 1375.25644144 l 1
 792 1380.89119979 l 1
 792 1366 l 1
 792 1263 l 1
 792 1256.29826689 l 1
 785.801362686 1253.75069507 l 1
 330.801362686 1066.75069507 l 1
 317 1061.07848667 l 1
 317 1076 l 1
317 1288 m 1
 317 1392 l 1
 317 1398.71537562 l 1
 323.216048115 1401.25644144 l 1
 778.216048115 1587.25644144 l 1
 792 1592.89119979 l 1
 792 1578 l 1
 792 1475 l 1
 792 1468.29826689 l 1
 785.801362686 1465.75069507 l 1
 330.801362686 1278.75069507 l 1
 317 1273.07848667 l 1
 317 1288 l 1
EndSplineSet
EndChar

StartChar: uni064C
Encoding: 1612 1612 47
GlifName: uni064C_
Width: -26
VWidth: 2316
GlyphClass: 4
Flags: HW
AnchorPoint: "Anchor-10" 680.906 1278.67 mark 0
AnchorPoint: "Anchor-9" 680.906 1278.67 mark 0
AnchorPoint: "Anchor-1" 637.739 1852.46 basemark 0
AnchorPoint: "Anchor-1" 680.906 1278.67 mark 0
LayerCount: 2
Fore
SplineSet
479 1629 m 0
 479 1731.76552225 552.4963966 1801 652 1801 c 0
 752.064112453 1801 824 1732.53591765 824 1628 c 0
 824 1591.16085925 815.378868534 1552.27469286 801.031294994 1514.97279472 c 1
 814.093104284 1513.34371792 821.9010554 1513 830 1513 c 2
 840 1513 l 1
 840 1503 l 1
 840 1427 l 1
 840 1416.4875078 l 1
 829.500623831 1417.01247661 l 2
 810.968118627 1417.93910187 788.159123035 1419.87699272 760.066529146 1424.73856031 c 1
 695.878207041 1276.81129477 600.310607473 1200.99202128 471.867219481 1200.99202128 c 0
 332.0720901 1200.99202128 261.019531073 1301.70235437 258.001286606 1489.83959283 c 2
 257.864600947 1498.35966558 l 1
 266.255036765 1499.84657825 l 1
 345.255036765 1513.84657825 l 1
 356.754576749 1515.88447142 l 1
 356.997830567 1504.20828814 l 2
 359.988700673 1360.64652305 400.817629911 1299 473 1299 c 0
 539.4246915 1299 601.936332407 1346.48802742 658.376739308 1442.60817591 c 1
 557.781001019 1479.37677148 479 1530.42799523 479 1629 c 0
703.160444539 1534.93682037 m 1
 715.662442249 1565.48638565 726 1599.53496259 726 1627 c 0
 726 1669.85117324 693.892850854 1701 656 1701 c 0
 610.735108636 1701 579 1671.60733904 579 1625 c 0
 579 1579.55048991 639.93500653 1552.41557778 703.160444539 1534.93682037 c 1
EndSplineSet
EndChar

StartChar: uni064D
Encoding: 1613 1613 48
GlifName: uni064D_
Width: -26
VWidth: 2316
GlyphClass: 4
Flags: HW
AnchorPoint: "Anchor-7" 542.278 32.7109 mark 0
AnchorPoint: "Anchor-6" 542.278 32.7109 mark 0
AnchorPoint: "Anchor-0" 592.022 -407.025 basemark 0
AnchorPoint: "Anchor-0" 542.278 32.7109 mark 0
LayerCount: 2
Fore
SplineSet
322 -446 m 1
 322 -342 l 1
 322 -335.279048682 l 1
 328.223161451 -332.74065388 l 1
 784.223161451 -146.74065388 l 1
 798 -141.121153945 l 1
 798 -156 l 1
 798 -260 l 1
 798 -266.720951318 l 1
 791.776838549 -269.25934612 l 1
 335.776838549 -455.25934612 l 1
 322 -460.878846055 l 1
 322 -446 l 1
322 -234 m 1
 322 -130 l 1
 322 -123.279048682 l 1
 328.223161451 -120.74065388 l 1
 784.223161451 65.2593461202 l 1
 798 70.8788460547 l 1
 798 56 l 1
 798 -48 l 1
 798 -54.7209513179 l 1
 791.776838549 -57.2593461202 l 1
 335.776838549 -243.25934612 l 1
 322 -248.878846055 l 1
 322 -234 l 1
EndSplineSet
EndChar

StartChar: uni064E
Encoding: 1614 1614 49
GlifName: uni064E_
Width: -26
VWidth: 2316
GlyphClass: 4
Flags: HW
AnchorPoint: "Anchor-10" 545.66 1397.63 mark 0
AnchorPoint: "Anchor-9" 545.66 1397.63 mark 0
AnchorPoint: "Anchor-1" 541.396 1651.77 basemark 0
AnchorPoint: "Anchor-1" 545.66 1397.63 mark 0
LayerCount: 2
Fore
SplineSet
286 1349 m 1
 286 1453 l 1
 286 1459.72095132 l 1
 292.223161451 1462.25934612 l 1
 748.223161451 1648.25934612 l 1
 762 1653.87884605 l 1
 762 1639 l 1
 762 1535 l 1
 762 1528.27904868 l 1
 755.776838549 1525.74065388 l 1
 299.776838549 1339.74065388 l 1
 286 1334.12115395 l 1
 286 1349 l 1
EndSplineSet
EndChar

StartChar: uni064F
Encoding: 1615 1615 50
GlifName: uni064F_
Width: -26
VWidth: 2316
GlyphClass: 4
Flags: HW
AnchorPoint: "Anchor-10" 591.295 1339.37 mark 0
AnchorPoint: "Anchor-9" 591.295 1339.37 mark 0
AnchorPoint: "Anchor-1" 542.134 1865.4 basemark 0
AnchorPoint: "Anchor-1" 591.295 1339.37 mark 0
LayerCount: 2
Fore
SplineSet
723 1417 m 2
 696.672586134 1417 671.922819741 1418.79781391 647.515202101 1422.22225113 c 1
 578.69926327 1330.31071922 441.04296875 1278.49609375 278.547851562 1269.57910156 c 2
 268 1269 l 1
 268 1279.56347656 l 1
 268 1357.56347656 l 1
 268 1366.68945312 l 1
 277.087890625 1367.52246094 l 2
 395.268554688 1378.34765625 498.640466132 1409.42316493 545.393098832 1449.17847415 c 1
 457.136834754 1471.05216959 370 1531.72501055 370 1626 c 0
 370 1729.20445185 443.731478569 1798 543 1798 c 0
 642.596896992 1798 716 1728.67335246 716 1625 c 0
 716 1588.31930976 707.86260554 1550.64768392 693.984631457 1514.10436758 c 1
 704.474070047 1512.77330843 713.132445597 1512 723 1512 c 2
 733 1512 l 1
 733 1502 l 1
 733 1427 l 1
 733 1417 l 1
 723 1417 l 2
594.160444539 1531.93682037 m 1
 606.662442249 1562.48638565 617 1596.53496259 617 1624 c 0
 617 1667.28374682 585.872275552 1697 547 1697 c 0
 501.150271426 1697 470 1668.84130925 470 1622 c 0
 470 1576.55048991 530.93500653 1549.41557778 594.160444539 1531.93682037 c 1
EndSplineSet
EndChar

StartChar: uni0650
Encoding: 1616 1616 51
GlifName: uni0650
Width: -26
VWidth: 2316
GlyphClass: 4
Flags: HW
AnchorPoint: "Anchor-7" 571.144 -44.8242 mark 0
AnchorPoint: "Anchor-6" 571.144 -44.8242 mark 0
AnchorPoint: "Anchor-0" 619.091 -324.624 basemark 0
AnchorPoint: "Anchor-0" 571.144 -44.8242 mark 0
LayerCount: 2
Fore
SplineSet
333 -346 m 1
 333 -242 l 1
 333 -235.284624383 l 1
 339.216048115 -232.74355856 l 1
 794.216048115 -46.7435585601 l 1
 808 -41.108800207 l 1
 808 -56 l 1
 808 -159 l 1
 808 -165.701733113 l 1
 801.801362686 -168.249304932 l 1
 346.801362686 -355.249304932 l 1
 333 -360.921513333 l 1
 333 -346 l 1
EndSplineSet
EndChar

StartChar: uni0651
Encoding: 1617 1617 52
GlifName: uni0651
Width: -26
VWidth: 2393
GlyphClass: 4
Flags: HW
AnchorPoint: "Anchor-10" 598.801 1453.71 mark 0
AnchorPoint: "Anchor-9" 598.801 1453.71 mark 0
AnchorPoint: "Anchor-1" 570.087 1839.1 basemark 0
AnchorPoint: "Anchor-1" 598.801 1453.71 mark 0
LayerCount: 2
Fore
SplineSet
617.993628543 1758.35691531 m 2
 619.001942224 1730.12413226 619.009174284 1703.24601087 620.972681039 1676.73866968 c 0
 625.43563725 1616.48489178 645.692717839 1584 681 1584 c 0
 720.10630762 1584 738 1609.27219198 738 1675 c 0
 738 1698.52444509 732.143521803 1738.28169094 721.208661625 1790.96783543 c 2
 719.078938974 1801.22922639 l 1
 729.428849513 1802.87580306 l 1
 817.428849513 1816.87580306 l 1
 826.124156558 1818.25914737 l 1
 828.59737407 1809.80898753 l 2
 840.849630812 1767.94711033 847 1726.00080397 847 1685 c 0
 847 1547.71619231 795.184775075 1473.07279343 690.05101908 1472 c 0
 650.90853806 1472 608.452011917 1488.24920552 584.138732222 1516.4690507 c 1
 556.145491191 1447.7049043 489.548898937 1428 432 1428 c 0
 331.587669416 1428 283.873817788 1496.27833027 283.873817788 1616.0779836 c 0
 283.873817788 1653.12839481 288.882749168 1687.57592779 297.352361788 1718.63117406 c 2
 299.730110448 1727.34958581 l 1
 308.643989873 1725.86393924 l 1
 386.643989873 1712.86393924 l 1
 397.086130606 1711.12358245 l 1
 394.754410021 1700.79739129 l 2
 387.949485082 1670.66129513 386 1643.4433728 386 1620 c 0
 386 1567.1092627 405.337258194 1546 444 1546 c 0
 518.825537249 1546 521.4140625 1594.56261462 521.4140625 1719.33203125 c 0
 521.4140625 1731.58877154 521.293624535 1744.38847208 521.002363481 1757.78259706 c 2
 520.780181625 1768 l 1
 531 1768 l 1
 608 1768 l 1
 617.649232662 1768 l 1
 617.993628543 1758.35691531 l 2
EndSplineSet
EndChar

StartChar: uni0652
Encoding: 1618 1618 53
GlifName: uni0652
Width: -26
VWidth: 2316
GlyphClass: 4
Flags: HW
AnchorPoint: "Anchor-10" 605.219 1271.43 mark 0
AnchorPoint: "Anchor-9" 605.219 1271.43 mark 0
AnchorPoint: "Anchor-1" 589.537 1682.66 basemark 0
AnchorPoint: "Anchor-1" 605.219 1271.43 mark 0
LayerCount: 2
Fore
SplineSet
411.07421875 1461.82128906 m 0
 411.07421875 1563.51160247 492.714265489 1645.14941406 594.40234375 1645.14941406 c 0
 696.091760807 1645.14941406 777.731445312 1563.50896161 777.731445312 1461.82128906 c 0
 777.731445312 1410.94672565 759.824452385 1367.08661364 724.48115545 1331.7433167 c 0
 689.137372158 1296.40021929 645.276883757 1278.49316406 594.40234375 1278.49316406 c 0
 492.713027067 1278.49316406 411.07421875 1360.1341316 411.07421875 1461.82128906 c 0
512.667473694 1461.02255928 m 0
 511.878032554 1414.7684852 550.003592534 1377.01256091 596.758670814 1376.92872723 c 0
 643.256461851 1377.01319924 681.027914865 1414.642493 680.851490069 1461.02248286 c 0
 681.028073381 1507.3907048 643.251391912 1544.97884388 596.758599542 1545.11421597 c 0
 550.000874211 1544.97984479 511.88184158 1507.00046918 512.667473694 1461.02255928 c 0
EndSplineSet
EndChar

StartChar: uni0653
Encoding: 1619 1619 54
GlifName: uni0653
Width: 0
VWidth: 2317
GlyphClass: 4
Flags: HW
AnchorPoint: "Anchor-10" 431.25 1353.11 mark 0
AnchorPoint: "Anchor-9" 431.25 1353.11 mark 0
AnchorPoint: "Anchor-1" 469.41 1763.53 basemark 0
AnchorPoint: "Anchor-1" 431.25 1353.11 mark 0
LayerCount: 2
Fore
SplineSet
163 1323 m 1
 78.4404296875 1464.08007812 l 5
 148.9609375 1576.92871094 233.407226562 1624.7890625 331.780273438 1607.66015625 c 6
 466.400390625 1584.21972656 l 6
 518.133789062 1575.40625 583.146484375 1594.48632812 661.440429688 1641.45996094 c 5
 726.099609375 1486.12011719 l 1
 657.366536458 1423.3733724 574.286783854 1397.10677083 476.860351562 1407.3203125 c 2
 330.719726562 1422.51953125 l 2
 268.239908854 1428.83984375 212.333333333 1395.66666667 163 1323 c 1
EndSplineSet
EndChar

StartChar: uni0657
Encoding: 1623 1623 57
GlifName: uni0657
Width: -26
VWidth: 2316
GlyphClass: 4
Flags: HW
AnchorPoint: "Anchor-10" 513.285 1400.55 mark 0
AnchorPoint: "Anchor-9" 513.285 1400.55 mark 0
AnchorPoint: "Anchor-1" 537.285 2069.85 basemark 0
AnchorPoint: "Anchor-1" 513.285 1400.55 mark 0
LayerCount: 2
Fore
SplineSet
265.249921912 1814.99687646 m 2
 303.937053169 1814.02969818 345.68248625 1811.15593714 390.496059094 1806.52841897 c 1
 492.274757705 1948.91988621 622.556743554 2027.81479388 784.066592913 2042.95634226 c 2
 795 2043.98134917 l 1
 795 2033 l 1
 795 1955 l 1
 795 1946.49468225 l 1
 786.604937966 1945.12963151 l 2
 670.536380848 1926.25669539 575.665779254 1871.67253031 502.93786593 1783.19564627 c 1
 586.746937685 1755.38953044 668 1698.64701459 668 1599 c 0
 668 1502.6830679 598.72271107 1428 501 1428 c 0
 403.846001283 1428 322 1496.68663051 322 1603 c 0
 322 1630.90288887 328.628189847 1669.41098266 341.715037007 1712.93824855 c 1
 317.995583066 1714.60971679 293.531610965 1716 265 1716 c 2
 255 1716 l 1
 255 1726 l 1
 255 1805 l 1
 255 1815.25312451 l 1
 265.249921912 1814.99687646 l 2
501 1526 m 0
 543.217778735 1526 567 1553.25868907 567 1597 c 0
 567 1647.10826499 506.848893173 1680.36737559 442.966076713 1697.20648817 c 1
 427.349024452 1658.40288448 420 1628.27331069 420 1605 c 0
 420 1558.66289921 456.303816724 1526 501 1526 c 0
EndSplineSet
EndChar

StartChar: uni065A
Encoding: 1626 1626 58
GlifName: uni065A_
Width: 1135
VWidth: 2316
GlyphClass: 4
Flags: HW
AnchorPoint: "Anchor-10" 573.285 1350.55 mark 0
AnchorPoint: "Anchor-9" 573.285 1350.55 mark 0
AnchorPoint: "Anchor-1" 571.012 1862.38 basemark 0
AnchorPoint: "Anchor-1" 573.285 1350.55 mark 0
LayerCount: 2
Fore
SplineSet
493.408736507 1438.88236465 m 1
 300.408736507 1762.88236465 l 1
 291.403478412 1778 l 1
 309 1778 l 1
 433 1778 l 1
 438.743703325 1778 l 1
 441.637789009 1773.03871026 l 1
 573.030711641 1547.79370003 l 1
 705.377888534 1773.06549049 l 1
 708.276912873 1778 l 1
 714 1778 l 1
 838 1778 l 1
 855.643211119 1778 l 1
 846.579598704 1762.86283287 l 1
 652.579598704 1438.86283287 l 1
 649.667902477 1434 l 1
 644 1434 l 1
 502 1434 l 1
 496.317058659 1434 l 1
 493.408736507 1438.88236465 l 1
EndSplineSet
EndChar

StartChar: uni0660
Encoding: 1632 1632 59
GlifName: afii57392
Width: 866
VWidth: 2311
GlyphClass: 2
Flags: HW
LayerCount: 2
Fore
SplineSet
433 606.6875 m 4
 370.611328125 606.6875 317.5 553.213867188 317.5 489.8125 c 4
 317.5 426.83203125 370.01953125 374.3125 433 374.3125 c 4
 495.98046875 374.3125 548.5 426.83203125 548.5 489.8125 c 4
 548.5 553.213867188 495.388671875 606.6875 433 606.6875 c 4
433 169 m 4
 255.40625 169 110 317.052734375 110 494 c 4
 110 671.081054688 255.594726562 818 433 818 c 4
 610.405273438 818 756 671.081054688 756 494 c 4
 756 317.052734375 610.59375 169 433 169 c 4
EndSplineSet
EndChar

StartChar: uni0661
Encoding: 1633 1633 60
GlifName: afii57393
Width: 756
VWidth: 2311
GlyphClass: 2
Flags: HW
LayerCount: 2
Fore
SplineSet
318 43 m 2
 318 548.899414062 239.15234375 889.439453125 88.7255859375 1213.14257812 c 6
 72.0849609375 1248.95214844 l 5
 107.67578125 1266.05371094 l 5
 261.67578125 1340.05371094 l 5
 299.334960938 1358.14941406 l 5
 315.7734375 1319.73828125 l 6
 506.633789062 873.76953125 561 580.19140625 561 40 c 2
 561 0 l 1
 521 0 l 1
 358 0 l 1
 318 0 l 1
 318 40 l 1
 318 43 l 2
EndSplineSet
EndChar

StartChar: uni0662
Encoding: 1634 1634 61
GlifName: afii57394
Width: 1126
VWidth: 2170
GlyphClass: 2
Flags: HW
LayerCount: 2
Fore
SplineSet
318 43 m 2
 318 548.899414062 239.15234375 889.439453125 88.7255859375 1213.14257812 c 6
 72.0849609375 1248.95214844 l 5
 107.67578125 1266.05371094 l 5
 261.67578125 1340.05371094 l 5
 301.565429688 1359.22167969 l 5
 316.616210938 1317.60253906 l 5
 414.583007812 1046.69335938 l 6
 435.647460938 989.310546875 489.248046875 954 608 954 c 4
 750.56640625 954 792.905273438 1092.35449219 822.3671875 1308.40429688 c 6
 828.485351562 1353.27539062 l 5
 872.2578125 1341.66210938 l 5
 1019.2578125 1302.66210938 l 5
 1051.25683594 1294.17285156 l 5
 1048.8984375 1261.15039062 l 6
 1028.17285156 970.989257812 911.8984375 692.990234375 613.014648438 692.990234375 c 4
 574.8671875 692.990234375 537.640625 696.838867188 501.053710938 704.317382812 c 5
 540.623046875 465.196289062 561 328.165039062 561 40 c 2
 561 0 l 1
 521 0 l 1
 358 0 l 1
 318 0 l 1
 318 40 l 1
 318 43 l 2
EndSplineSet
EndChar

StartChar: uni0663
Encoding: 1635 1635 62
GlifName: afii57395
Width: 1335
VWidth: 2170
GlyphClass: 2
Flags: HW
LayerCount: 2
Fore
SplineSet
963 700 m 4
 880.66015625 700 809.383789062 726.102539062 757.469726562 777.073242188 c 5
 706.990234375 723.360351562 640.517578125 697.901367188 561.227539062 697 c 4
 540.814453125 697 520.93359375 699.236328125 501.702148438 702.963867188 c 5
 539.97265625 477.98828125 560.081054688 340.448242188 561 40.1220703125 c 2
 561.122070312 0 l 1
 521 0 l 1
 358 0 l 1
 318 0 l 1
 318 40 l 1
 318 43 l 2
 318 552.072265625 240.150390625 887.82421875 88.736328125 1213.12011719 c 6
 72.0625 1248.94140625 l 5
 107.67578125 1266.05371094 l 5
 261.67578125 1340.05371094 l 5
 301.633789062 1359.25390625 l 5
 316.638671875 1317.5390625 l 5
 416.647460938 1039.51464844 l 6
 439.33984375 976.301757812 478.415039062 949 549 949 c 4
 630.877929688 949 646 1093.42285156 646 1255 c 6
 646 1295.31152344 l 5
 686.310546875 1294.99902344 l 5
 815.310546875 1293.99902344 l 5
 852.8046875 1293.70800781 l 5
 854.935546875 1256.27246094 l 6
 861.93359375 1133.30078125 865.419921875 1051.07421875 871.416992188 1016.80371094 c 4
 877.392578125 981.6953125 896.568359375 949.305664062 950.528320312 949.997070312 c 4
 1001.80175781 950.548828125 1027 989.91796875 1027 1172 c 4
 1027 1207.56347656 1025.05957031 1247.7734375 1022.08886719 1292.33886719 c 6
 1019.20703125 1335.56640625 l 5
 1062.52636719 1334.99609375 l 5
 1214.52636719 1332.99609375 l 5
 1251.34082031 1332.51171875 l 5
 1253.90332031 1295.78417969 l 6
 1256.9765625 1251.72460938 1258 1211.70019531 1258 1173 c 4
 1258 881.405273438 1168.79589844 700 963 700 c 4
EndSplineSet
EndChar

StartChar: uni0664
Encoding: 1636 1636 63
GlifName: afii57396
Width: 990
VWidth: 2442
GlyphClass: 2
Flags: HW
LayerCount: 2
Fore
SplineSet
742.178710938 663.41796875 m 6
 436.34765625 528.166015625 312 467.33984375 312 383 c 0
 312 300.705078125 386.791992188 260 578 260 c 2
 891 260 l 1
 930.338867188 260 l 1
 930.994140625 220.666992188 l 1
 933.994140625 40.6669921875 l 1
 934.671875 0 l 1
 894 0 l 1
 538 0 l 2
 234.791992188 0 56 119.565429688 56 364 c 0
 56 515.845703125 162.124023438 584.411132812 344.321289062 717.899414062 c 5
 208.715820312 771.228515625 134 842.456054688 134 981 c 4
 134 1229.15722656 338.217773438 1337.54003906 687.100585938 1362.89453125 c 6
 730 1366.01269531 l 5
 730 1323 l 5
 730 1134 l 5
 730 1096.15039062 l 5
 692.208984375 1094.06054688 l 6
 474.497070312 1082.02148438 405 1032.79394531 405 982 c 4
 405 898.53515625 480.37109375 883.12890625 725.00390625 876.987304688 c 6
 763.434570312 876.022460938 l 5
 763.99609375 837.583984375 l 5
 765.99609375 700.583984375 l 5
 766.381835938 674.122070312 l 5
 742.178710938 663.41796875 l 6
EndSplineSet
EndChar

StartChar: uni0665
Encoding: 1637 1637 64
GlifName: afii57397
Width: 1174
VWidth: 2311
GlyphClass: 2
Flags: HW
LayerCount: 2
Fore
SplineSet
602.552734375 261 m 0
 791.419921875 261 854.583984375 291.25390625 854.583984375 449.301757812 c 0
 854.583984375 640.026367188 759.471679688 743.612304688 568.209960938 933.850585938 c 5
 397.986328125 742.841796875 317.552734375 637.494140625 317.552734375 474 c 0
 317.552734375 299.21484375 392.040039062 261 602.552734375 261 c 0
601.615234375 1 m 0
 254.803710938 1 54.447265625 122.654296875 54.447265625 462.244140625 c 0
 54.447265625 707.989257812 159.745117188 862.575195312 367.571289062 1088.08886719 c 5
 334.459960938 1118.57226562 l 5
 307.541015625 1143.35449219 l 5
 329.833007812 1172.37011719 l 5
 455.833007812 1336.37011719 l 5
 480.13671875 1368.00292969 l 5
 511.8359375 1343.78613281 l 6
 911.78515625 1038.24121094 1119.55273438 793.919921875 1119.55273438 451 c 0
 1119.55273438 120.83984375 931.603515625 2.0341796875 601.615234375 1 c 0
EndSplineSet
EndChar

StartChar: uni0666
Encoding: 1638 1638 65
GlifName: afii57398
Width: 1175
VWidth: 2311
GlyphClass: 2
Flags: HW
LayerCount: 2
Fore
SplineSet
967 1304.09277344 m 6
 968.982421875 875.833984375 1039.69824219 351.125 1116.75195312 49.9130859375 c 2
 1129.52050781 0 l 1
 1078 0 l 1
 889 0 l 1
 858.040039062 0 l 1
 850.27734375 29.970703125 l 2
 806.174804688 200.256835938 730.677734375 754.984375 717.6328125 1056.78320312 c 5
 639.438476562 1039.18457031 552.294921875 1031 454 1031 c 4
 332.887695312 1031 209.15234375 1049.63769531 83.9697265625 1085.55078125 c 6
 55 1093.86230469 l 5
 55 1124 l 5
 55 1308 l 5
 55 1359.90820312 l 5
 105.194335938 1346.67871094 l 6
 230.765625 1313.58300781 361.267578125 1297 496.75 1297 c 4
 632.228515625 1297 772.704101562 1313.59570312 918.043945312 1346.984375 c 6
 967 1358.23144531 l 5
 967 1308 l 5
 967 1304.09277344 l 6
EndSplineSet
EndChar

StartChar: uni0667
Encoding: 1639 1639 66
GlifName: afii57399
Width: 1260
VWidth: 2311
GlyphClass: 2
Flags: HW
LayerCount: 2
Fore
SplineSet
511.412109375 34.275390625 m 2
 453.13671875 437.258789062 319.064453125 738.201171875 69.8349609375 1197.93652344 c 6
 50.998046875 1232.68359375 l 5
 85.517578125 1251.93457031 l 5
 241.517578125 1338.93457031 l 5
 278.44921875 1359.53125 l 5
 296.962890625 1321.51269531 l 6
 439.94921875 1027.87988281 557.185546875 764.055664062 635.526367188 468.099609375 c 1
 714.170898438 759.790039062 827.782226562 1022.12109375 962.546875 1320.46582031 c 6
 980.514648438 1360.24609375 l 5
 1018.578125 1338.88085938 l 5
 1173.578125 1251.88085938 l 5
 1206.94335938 1233.15332031 l 5
 1189.71582031 1198.98925781 l 6
 955.130859375 733.795898438 821.64453125 431.923828125 749.359375 32.8701171875 c 2
 743.405273438 -0 l 1
 710 0 l 1
 551 0 l 1
 516.368164062 0 l 1
 511.412109375 34.275390625 l 2
EndSplineSet
EndChar

StartChar: uni0668
Encoding: 1640 1640 67
GlifName: afii57400
Width: 1260
VWidth: 2311
GlyphClass: 2
Flags: HW
LayerCount: 2
Fore
SplineSet
551 1324 m 5
 710 1324 l 5
 743.405273438 1324 l 5
 749.359375 1291.12988281 l 6
 821.64453125 892.076171875 955.130859375 590.204101562 1189.71582031 125.010742188 c 2
 1206.94335938 90.8466796875 l 1
 1173.578125 72.119140625 l 1
 1018.578125 -14.880859375 l 1
 980.514648438 -36.24609375 l 1
 962.546875 3.5341796875 l 2
 827.883789062 301.654296875 713.671875 566.059570312 635.526367188 855.900390625 c 5
 556.698242188 558.102539062 440.052734375 296.33203125 296.962890625 2.4873046875 c 2
 278.44921875 -35.53125 l 1
 241.517578125 -14.9345703125 l 1
 85.517578125 72.0654296875 l 1
 50.998046875 91.31640625 l 1
 69.8349609375 126.063476562 l 2
 319.064453125 585.798828125 453.13671875 886.741210938 511.412109375 1289.72460938 c 6
 516.368164062 1324 l 5
 551 1324 l 5
EndSplineSet
EndChar

StartChar: uni0669
Encoding: 1641 1641 68
GlifName: afii57401
Width: 1129
VWidth: 2311
GlyphClass: 2
Flags: HW
LayerCount: 2
Fore
SplineSet
74 911 m 0
 74 1096.85644531 219.989257812 1347.02050781 471.052734375 1347.02050781 c 0
 737.8515625 1347.02050781 860.454101562 1176.44628906 877.927734375 879.399414062 c 0
 899.263671875 531.62890625 919.059570312 349.385742188 994.63671875 67.353515625 c 2
 1004.55957031 30.326171875 l 1
 967.986328125 18.837890625 l 1
 811.986328125 -30.162109375 l 1
 774.396484375 -41.96875 l 5
 721.03217781 119.366669335 689.024019563 251.422808581 662.159179688 536.927734375 c 5
 636.177734375 535.791992188 613.528320312 535.286132812 589.811523438 535.286132812 c 0
 290.260742188 535.286132812 74 612.526367188 74 911 c 0
470.965820312 1097.0078125 m 0
 381.244140625 1097.0078125 322 996.770507812 322 917 c 0
 322 808.360351562 376.357421875 785.73046875 548.484375 785.73046875 c 0
 575.94921875 785.73046875 607.787109375 787.072265625 638.598632812 789.409179688 c 1
 623.659179688 1006.85351562 598.140625 1097.0078125 470.965820312 1097.0078125 c 0
EndSplineSet
EndChar

StartChar: uni066A
Encoding: 1642 1642 69
GlifName: afii57381
Width: 1033
VWidth: 4036
GlyphClass: 2
Flags: HW
LayerCount: 2
Fore
SplineSet
758 1328 m 5
 890 1268 l 5
 927 1252 l 5
 312 -27 l 5
 276 -11 l 5
 143 49 l 5
 107 65 l 5
 722 1345 l 5
 758 1328 l 5
597 213 m 4
 597 308 674 387 770 387 c 4
 866 387 943 308 943 213 c 4
 943 118 865 40 770 40 c 4
 675 40 597 115 597 213 c 4
90 1099 m 4
 90 1194 167 1273 263 1273 c 4
 359 1273 436 1194 436 1099 c 4
 436 1004 358 926 263 926 c 4
 168 926 90 1001 90 1099 c 4
EndSplineSet
EndChar

StartChar: uni066B
Encoding: 1643 1643 70
GlifName: uni066B_
Width: 772
VWidth: 2950
GlyphClass: 2
Flags: HW
LayerCount: 2
Fore
SplineSet
550.64495815 749.372315958 m 1
 668.64495815 695.372315958 l 1
 704.373710894 679.021869787 l 1
 688.663637876 643.006949707 l 1
 223.663637876 -422.993050293 l 1
 207.268371421 -460.578757909 l 1
 170.101403311 -443.255171079 l 1
 52.1014033108 -388.255171079 l 1
 16.7234869678 -371.765464309 l 1
 32.3418668357 -335.994336224 l 1
 497.341866836 729.005663776 l 1
 513.630226221 766.311261078 l 1
 550.64495815 749.372315958 l 1
EndSplineSet
PairPos2: "'kern' Horizontal Kerning lookup 15-4" uni06F2 dx=-130 dy=0 dh=-130 dv=0 dx=0 dy=0 dh=0 dv=0
PairPos2: "'kern' Horizontal Kerning lookup 15-4" uni06F3 dx=-130 dy=0 dh=-130 dv=0 dx=0 dy=0 dh=0 dv=0
PairPos2: "'kern' Horizontal Kerning lookup 15-4" uni06F4 dx=-110 dy=0 dh=-110 dv=0 dx=0 dy=0 dh=0 dv=0
EndChar

StartChar: uni066C
Encoding: 1644 1644 71
GlifName: uni066C_
Width: 567
VWidth: 2442
GlyphClass: 2
Flags: HW
LayerCount: 2
Fore
SplineSet
259 278 m 4
 377.9609375 278 417 219.20703125 417 108 c 4
 417 -60.4853515625 287.495117188 -232.669921875 189.084960938 -317.32421875 c 6
 163.798828125 -339.076171875 l 5
 137.856445312 -318.109375 l 5
 64.8564453125 -259.109375 l 5
 34.0126953125 -234.181640625 l 5
 58.67578125 -203.125 l 6
 106.578125 -142.802734375 139.643554688 -97.7958984375 162.985351562 -43.4296875 c 5
 113.1796875 17.32421875 97 57.7685546875 97 115 c 4
 97 225.662109375 155.961914062 278 259 278 c 4
EndSplineSet
EndChar

StartChar: uni066D
Encoding: 1645 1645 72
GlifName: afii63167
Width: 1436
VWidth: 2948
GlyphClass: 2
Flags: HW
LayerCount: 2
Fore
SplineSet
151 1119 m 1
 554.036132812 1119 l 1
 679.997070312 1502.48242188 l 1
 718 1618.17871094 l 1
 756.002929688 1502.48242188 l 1
 881.963867188 1119 l 1
 1285 1119 l 1
 1407.16015625 1119 l 1
 1308.65820312 1046.74707031 l 1
 983.022460938 807.884765625 l 1
 1108.02050781 425.426757812 l 1
 1146.16601562 308.712890625 l 1
 1046.59375 380.563476562 l 1
 718 617.673828125 l 1
 389.40625 380.563476562 l 1
 289.833984375 308.712890625 l 1
 327.979492188 425.426757812 l 1
 452.977539062 807.884765625 l 1
 127.341796875 1046.74707031 l 1
 28.83984375 1119 l 1
 151 1119 l 1
EndSplineSet
EndChar

StartChar: uni066E
Encoding: 1646 1646 73
GlifName: uni066E_
Width: 1832
VWidth: 2311
GlyphClass: 2
Flags: HW
AnchorPoint: "Anchor-7" 885.06 -161.16 basechar 0
AnchorPoint: "Anchor-10" 932.894 1031.77 basechar 0
LayerCount: 2
Fore
SplineSet
921 260 m 0
 1231.80859375 260 1533 327.161132812 1533 376 c 4
 1533 501.6875 1517.41015625 627.712890625 1488.98828125 753.161132812 c 2
 1480.71289062 789.690429688 l 1
 1516.61914062 800.346679688 l 1
 1671.61914062 846.346679688 l 1
 1711.8828125 858.295898438 l 1
 1721.85644531 817.498046875 l 2
 1755.36328125 680.422851562 1775 554.064453125 1775 452 c 0
 1775 371.380859375 1761.34082031 302.936523438 1735.36035156 245.326171875 c 0
 1652.19238281 66.9375 1343.27832031 0 907 0 c 4
 431.859375 0 57.34375 101.625976562 57.34375 566.849609375 c 0
 57.34375 642.399414062 69.0546875 721.198242188 92.5537109375 803.0390625 c 2
 103.39453125 840.794921875 l 1
 139.556640625 831.118164062 l 1
 283.340820312 792.640625 l 1
 317.822265625 783.413085938 l 1
 312.563476562 748.107421875 l 2
 300.475585938 666.943359375 294.625 605.0703125 294.625 564.671875 c 0
 294.625 298.982421875 543.751953125 260 921 260 c 0
EndSplineSet
Substitution2: "'fina' Terminal Forms in Arabic lookup 9 subtable" uni066E.fina
EndChar

StartChar: uni066F
Encoding: 1647 1647 74
GlifName: uni066F_
Width: 1412
VWidth: 2311
GlyphClass: 2
Flags: HW
AnchorPoint: "Anchor-10" 127.36 1121.41 basechar 0
AnchorPoint: "Anchor-7" 258.8 -626 basechar 0
LayerCount: 2
Fore
SplineSet
1354.00683594 212.309570312 m 0
 1354.00683594 -258.732421875 1166.83398438 -468 721 -468 c 0
 297.0546875 -468 58 -274.842773438 58 108 c 0
 58 251.84375 89.3798828125 396.609375 153.469726562 540.293945312 c 2
 168.72265625 574.4921875 l 1
 203.8515625 561.525390625 l 1
 352.8515625 506.525390625 l 1
 391.655273438 492.201171875 l 1
 376.040039062 453.899414062 l 2
 324.325195312 327.052734375 299 216.750976562 299 125 c 0
 299 -104.84375 405.096679688 -215 725 -215 c 0
 1012.29199219 -215 1097.29394531 -103.576171875 1113.27734375 71.013671875 c 1
 1072.58691406 57.3447265625 1016.00292969 41 947 41 c 0
 767.48046875 41 602 145.103515625 602 344 c 0
 602 581.961914062 740.713867188 813 968 813 c 0
 1170.96582031 813 1284.68652344 641.677734375 1329.41210938 463.750976562 c 0
 1346.94726562 393.994140625 1354.00683594 278.487304688 1354.00683594 212.309570312 c 0
831 358 m 0
 831 318.322265625 854.270507812 291 959 291 c 0
 1032.19335938 291 1087.58496094 315.543945312 1113.52246094 329.860351562 c 1
 1107.12402344 469.397460938 1047.96679688 561 969 561 c 0
 904.572265625 561 831 485.875 831 358 c 0
EndSplineSet
Substitution2: "'fina' Terminal Forms in Arabic lookup 9 subtable" uni066F.fina
EndChar

StartChar: uni0670
Encoding: 1648 1648 75
GlifName: uni0670
Width: 6
VWidth: 2317
GlyphClass: 4
Flags: HW
AnchorPoint: "Anchor-10" 593.891 1359.45 mark 0
AnchorPoint: "Anchor-9" 593.891 1359.45 mark 0
AnchorPoint: "Anchor-1" 583.891 1876.62 basemark 0
AnchorPoint: "Anchor-1" 593.891 1359.45 mark 0
LayerCount: 2
Fore
SplineSet
547.737934717 1406.77122881 m 1
 522.037739404 1769.22435381 l 1
 521.599520821 1775.40460625 l 1
 526.938358048 1778.5485485 l 1
 630.597537736 1839.59151726 l 1
 645.671875 1848.46851495 l 1
 645.671875 1830.97460938 l 1
 645.671875 1407.47851562 l 1
 645.671875 1397.47851562 l 1
 635.671875 1397.47851562 l 1
 557.712890625 1397.47851562 l 1
 548.396846249 1397.47851562 l 1
 547.737934717 1406.77122881 l 1
EndSplineSet
EndChar

StartChar: uni0674
Encoding: 1652 1652 76
GlifName: uni0674
Width: 683
VWidth: 2317
GlyphClass: 2
Flags: HW
LayerCount: 2
Fore
SplineSet
204.338284863 1653.66220966 m 1
 162.885923339 1689.80971509 139 1734.53747314 139 1794 c 0
 139 1919.73494875 228.544587753 2009 364 2009 c 0
 415.139903781 2009 465.05735701 1994.59097594 508.141664595 1968.76288524 c 2
 513 1965.85042048 l 1
 513 1960.18598107 l 1
 513 1844.82214691 l 1
 513 1829.1750281 l 1
 498.799920262 1835.74694277 l 2
 460.884992093 1853.29428596 419.595107286 1872 372 1872 c 0
 317.865508237 1872 269 1849.83767175 269 1794 c 0
 269 1754.07578184 296.817108496 1723.59526884 359.747211279 1705.61523948 c 0
 365.089719521 1704.08880855 370.403582787 1704 379 1704 c 0
 404.548656252 1704 462.873077136 1718.21215746 524.424545876 1728.03194096 c 2
 536 1729.87866299 l 1
 536 1718.15682353 l 1
 536 1598.00180214 l 1
 536 1589.9948042 l 1
 528.186798074 1588.24383544 l 2
 400.637528783 1559.65955093 273.519198322 1534.48526599 149.40803598 1503.69274671 c 2
 137 1500.61425901 l 1
 137 1513.39848536 l 1
 137 1630.08609104 l 1
 137 1637.93415712 l 1
 144.623160472 1639.79951648 l 2
 164.373963661 1644.63246548 185.207476194 1649.19177102 204.338284863 1653.66220966 c 1
EndSplineSet
EndChar

StartChar: uni06A1
Encoding: 1697 1697 80
GlifName: uni06A_1
Width: 1825
VWidth: 2311
GlyphClass: 2
Flags: HW
AnchorPoint: "Anchor-10" 534.823 1341.98 basechar 0
AnchorPoint: "Anchor-7" 648.243 -118.873 basechar 0
LayerCount: 2
Fore
SplineSet
907 0 m 2
 432.19921875 0 57 101.62890625 57 567 c 0
 57 642.142578125 68.6533203125 720.950195312 92.5947265625 803.181640625 c 2
 103.534179688 840.7578125 l 1
 141.340820312 830.640625 l 1
 283.340820312 792.640625 l 1
 317.733398438 783.436523438 l 1
 312.578125 748.208007812 l 2
 300.735351562 667.279296875 295 605.501953125 295 565 c 0
 295 299.470703125 544.19140625 260 921 260 c 2
 1210 260 l 6
 1413.05067855 260 1498.42480469 285.348632812 1512.64941406 388.458007812 c 5
 1458 368 1422.73632812 362 1360 362 c 4
 1180.48046875 362 1015 463.103515625 1015 662 c 4
 1015 899.798828125 1152.61035156 1131 1380 1131 c 4
 1658.77832031 1131 1767 827.428710938 1767 577 c 4
 1767 332.150390625 1706.10742188 157.514648438 1569.56738281 70.3125 c 4
 1490.76269531 19.736328125 1368.734375 0 1204 0 c 6
 907 0 l 2
1244 676 m 4
 1244 635.990234375 1266.50390625 609 1371 609 c 4
 1444.31640625 609 1500.48339844 633.7265625 1526.51660156 647.984375 c 5
 1520.12890625 787.294921875 1460.96582031 879 1382 879 c 4
 1317.57226562 879 1244 803.875 1244 676 c 4
EndSplineSet
Substitution2: "'init' Initial Forms in Arabic lookup 13 subtable" uni06A1.init
Substitution2: "'medi' Medial Forms in Arabic lookup 11 subtable" uni06A1.medi
Substitution2: "'fina' Terminal Forms in Arabic lookup 9 subtable" uni06A1.fina
EndChar

StartChar: uni06A9
Encoding: 1705 1705 81
GlifName: uni06A_9
Width: 1916
VWidth: 2311
GlyphClass: 2
Flags: HW
AnchorPoint: "Anchor-7" 885.06 -161.16 basechar 0
AnchorPoint: "Anchor-10" 1196.9 1401.66 basechar 0
LayerCount: 2
Fore
SplineSet
1055.01855469 960.821289062 m 1
 1055.01855469 960.821289062 1067.28613281 1193.00292969 1124.44824219 1213.41503906 c 6
 1851.16699219 1485.91992188 l 1
 1851.16699219 1226 l 1
 1322.73339844 1027.50390625 l 1
 1632.64453125 686.85546875 l 2
 1707.51525265 604.55899225 1746 510.459960938 1746 409 c 0
 1746 138.247070312 1569.87207031 0 1259 0 c 2
 907 0 l 2
 432.19921875 0 57 101.62890625 57 567 c 0
 57 642.142578125 68.6533203125 720.950195312 92.5947265625 803.181640625 c 2
 103.534179688 840.7578125 l 1
 141.340820312 830.640625 l 1
 283.340820312 792.640625 l 1
 317.733398438 783.436523438 l 1
 312.578125 748.208007812 l 2
 300.735351562 667.279296875 295 605.501953125 295 565 c 0
 295 306.4453125 543.768554688 260 921 260 c 2
 1293 260 l 2
 1457.64257812 260 1512 310.404296875 1512 398 c 0
 1512 429.208984375 1496.34490882 467.308436451 1455.01953125 513.520507812 c 2
 1055.01855469 960.821289062 l 1
EndSplineSet
Substitution2: "'init' Initial Forms in Arabic lookup 13 subtable" uniFB90
Substitution2: "'medi' Medial Forms in Arabic lookup 11 subtable" uniFB91
Substitution2: "'fina' Terminal Forms in Arabic lookup 9 subtable" uniFB8F
EndChar

StartChar: uni06BA
Encoding: 1722 1722 83
GlifName: afii57514
Width: 1403
VWidth: 2317
GlyphClass: 2
Flags: HW
AnchorPoint: "Anchor-10" 632.479 1018.46 basechar 0
AnchorPoint: "Anchor-7" 575.075 -515.182 basechar 0
LayerCount: 2
Fore
SplineSet
690 -448 m 0
 309.407226562 -448 60 -254.07421875 60 128 c 0
 60 271.84375 91.3798828125 416.609375 155.469726562 560.293945312 c 2
 170.72265625 594.4921875 l 1
 205.8515625 581.525390625 l 1
 354.8515625 526.525390625 l 1
 393.655273438 512.201171875 l 1
 378.040039062 473.899414062 l 2
 326.325195312 347.052734375 301 236.750976562 301 145 c 0
 301 -86.19140625 419.774414062 -195 693 -195 c 0
 985.720703125 -195 1114 -78.6015625 1114 163 c 0
 1114 247.03515625 1080.703125 362.192382812 1011.12402344 503.311523438 c 2
 994.188476562 537.658203125 l 1
 1027.76660156 556.072265625 l 1
 1182.76660156 641.072265625 l 1
 1219.01464844 660.950195312 l 1
 1237.6875 624.06640625 l 2
 1320.99511719 459.5078125 1355 313.41796875 1355 169 c 0
 1355 -238.259765625 1106.10351562 -448 690 -448 c 0
EndSplineSet
Substitution2: "'fina' Terminal Forms in Arabic lookup 9 subtable" uniFB9F
EndChar

StartChar: uni06F4
Encoding: 1780 1780 90
GlifName: uni06F_4
Width: 1122
VWidth: 2311
GlyphClass: 2
Flags: HW
LayerCount: 2
Fore
SplineSet
318 43 m 2
 318 555.008789062 240.360351562 886.83984375 88.7255859375 1213.14257812 c 6
 72.0849609375 1248.95117188 l 5
 107.67578125 1266.05371094 l 5
 261.67578125 1340.05371094 l 5
 302.407226562 1359.62597656 l 5
 316.890625 1316.81933594 l 5
 387.288085938 1108.7421875 l 5
 439.150390625 1219.23144531 554.364257812 1341 751 1341 c 4
 806.661132812 1341 894.158203125 1333.64257812 965.888671875 1297.77734375 c 6
 988 1286.72167969 l 5
 988 1262 l 5
 988 1100 l 5
 988 1046.71582031 l 5
 936.833984375 1061.58984375 l 6
 854.092773438 1085.64257812 799.84765625 1090 772 1090 c 4
 640.15234375 1090 542.202148438 1003.36621094 542.202148438 909.071289062 c 4
 542.202148438 865.424804688 600.719726562 828.98046875 773.11328125 828 c 4
 837.112304688 828 910.7109375 841.821289062 995.330078125 872.591796875 c 6
 1048.01074219 891.748046875 l 5
 1048.99414062 835.701171875 l 5
 1051.99414062 664.701171875 l 5
 1052.53710938 633.74609375 l 5
 1022.70605469 625.458984375 l 6
 929.70703125 599.625976562 842.3046875 587 764 587 c 4
 674.778320312 587 580.068359375 607.620117188 509.51171875 642.478515625 c 5
 541.08984375 443.049804688 560.140625 321.110351562 561 40.1220703125 c 2
 561.122070312 0 l 1
 521 0 l 1
 358 0 l 1
 318 0 l 1
 318 40 l 1
 318 43 l 2
EndSplineSet
PairPos2: "'kern' Horizontal Kerning lookup 15-4" uni06F0 dx=-64 dy=0 dh=-64 dv=0 dx=0 dy=0 dh=0 dv=0
PairPos2: "'kern' Horizontal Kerning lookup 15-4" uni06F5 dx=-40 dy=0 dh=-40 dv=0 dx=0 dy=0 dh=0 dv=0
PairPos2: "'kern' Horizontal Kerning lookup 15-4" uni06F8 dx=-64 dy=0 dh=-64 dv=0 dx=0 dy=0 dh=0 dv=0
PairPos2: "'kern' Horizontal Kerning lookup 15-4" uni06F1 dx=-64 dy=0 dh=-64 dv=0 dx=0 dy=0 dh=0 dv=0
PairPos2: "'kern' Horizontal Kerning lookup 15-4" uni06F9 dx=-64 dy=0 dh=-64 dv=0 dx=0 dy=0 dh=0 dv=0
EndChar

StartChar: uni06F5
Encoding: 1781 1781 91
GlifName: uni06F_5
Width: 1241
VWidth: 2170
GlyphClass: 2
Flags: HW
LayerCount: 2
Fore
SplineSet
321.999023438 392.198242188 m 4
 322.522460938 286.604492188 354.084960938 254 414 254 c 4
 460.6875 254 500.658203125 289.5 510.245117188 374.41796875 c 6
 521.26171875 472 l 5
 557 472 l 5
 682 472 l 5
 717.73828125 472 l 5
 728.754882812 374.41796875 l 6
 738.341796875 289.500976562 778.315429688 254 825 254 c 4
 885.036132812 254 917 286.751953125 917 392 c 4
 917 576.038085938 795.887695312 701.0625 597.424804688 937.672851562 c 5
 421.387695312 692.614257812 321.122070312 569.501953125 321.999023438 392.198242188 c 4
1167 371 m 4
 1167 168.91796875 1052.90527344 0 838.818359375 0 c 4
 743.314453125 0.8681640625 667.6171875 42.2646484375 619.3671875 111.561523438 c 5
 570.024414062 39.9677734375 495.081054688 0 404 0 c 4
 187.754882812 0 74 160.010742188 74 362 c 4
 74 634.788085938 204.409179688 797.901367188 416.63671875 1103.54199219 c 5
 395.66015625 1121.89648438 l 5
 368.317382812 1145.82128906 l 5
 389.509765625 1175.33203125 l 5
 496.509765625 1324.33203125 l 5
 523.010742188 1361.23535156 l 5
 903.008789062 1007.37597656 1167 695.043945312 1167 371 c 4
EndSplineSet
PairPos2: "'kern' Horizontal Kerning lookup 15-4" uni06F2 dx=-100 dy=0 dh=-100 dv=0 dx=0 dy=0 dh=0 dv=0
PairPos2: "'kern' Horizontal Kerning lookup 15-4" uni06F3 dx=-100 dy=0 dh=-100 dv=0 dx=0 dy=0 dh=0 dv=0
PairPos2: "'kern' Horizontal Kerning lookup 15-4" uni06F4 dx=-42 dy=0 dh=-42 dv=0 dx=0 dy=0 dh=0 dv=0
PairPos2: "'kern' Horizontal Kerning lookup 15-4" uni06F6 dx=-42 dy=0 dh=-42 dv=0 dx=0 dy=0 dh=0 dv=0
PairPos2: "'kern' Horizontal Kerning lookup 15-4" uni06F7 dx=-100 dy=0 dh=-100 dv=0 dx=0 dy=0 dh=0 dv=0
PairPos2: "'kern' Horizontal Kerning lookup 15-4" uni06F8 dx=-38 dy=0 dh=-38 dv=0 dx=0 dy=0 dh=0 dv=0
EndChar

StartChar: uni06F6
Encoding: 1782 1782 92
GlifName: uni06F_6
Width: 1063
VWidth: 2351
GlyphClass: 2
Flags: HW
LayerCount: 2
Fore
SplineSet
137.38671875 913.413085938 m 0
 137.38671875 1148.50195312 310.51953125 1340 593 1340 c 0
 650.60546875 1340 714.329101562 1328.0078125 783.127929688 1306.1171875 c 2
 811 1297.24902344 l 1
 811 1268 l 1
 811 1099 l 1
 811 1045.2734375 l 1
 759.530273438 1060.6796875 l 2
 695.948242188 1079.7109375 640.622070312 1093.72363281 594.057617188 1093.72363281 c 0
 468.81640625 1093.72363281 384 1016.65820312 384 928 c 0
 384 875.169921875 406.494140625 835.71484375 447.670898438 805.244140625 c 0
 506.28125 762.560546875 553.051757812 749.982421875 594.139648438 743.361328125 c 0
 615 740 633.244140625 740.69921875 644 746 c 0
 781.918945312 813.958984375 843.921875 843.640625 927.836914062 878.014648438 c 2
 979.822265625 899.309570312 l 1
 982.938476562 843.21875 l 1
 992.938476562 663.21875 l 1
 994.6640625 632.153320312 l 5
 699.5625 520.530273438 476 336 262.147460938 -53.392578125 c 5
 226.66015625 -37.509765625 l 1
 83.66015625 26.490234375 l 1
 47.2294921875 42.7939453125 l 1
 147.015625 267.076171875 275 405 420.709960938 544.788085938 c 1
 235.860351562 607.522460938 137.38671875 751.216796875 137.38671875 913.413085938 c 0
EndSplineSet
PairPos2: "'kern' Horizontal Kerning lookup 15-4" uni06F7 dx=-40 dy=0 dh=-40 dv=0 dx=0 dy=0 dh=0 dv=0
PairPos2: "'kern' Horizontal Kerning lookup 15-4" uni06F8 dx=-40 dy=0 dh=-40 dv=0 dx=0 dy=0 dh=0 dv=0
PairPos2: "'kern' Horizontal Kerning lookup 15-4" uni06F9 dx=-30 dy=0 dh=-30 dv=0 dx=0 dy=0 dh=0 dv=0
EndChar

StartChar: uniFB8F
Encoding: 64399 64399 107
GlifName: uniF_B_8F_
Width: 2128
VWidth: 2311
GlyphClass: 2
Flags: HW
AnchorPoint: "Anchor-10" 1196.9 1401.66 basechar 0
AnchorPoint: "Anchor-7" 885.06 -161.16 basechar 0
LayerCount: 2
Fore
SplineSet
1055.01855469 960.821289062 m 1
 1055.01855469 960.821289062 1067.28613281 1193.00292969 1124.44824219 1213.41503906 c 6
 1851.16699219 1485.91992188 l 1
 1851.16699219 1226 l 1
 1322.73339844 1027.50390625 l 1
 1934.7421875 350.747070312 l 2
 1992.11141126 287.100422844 2044 260 2090 260 c 2
 2135 260 l 2
 2152 260 2153 177 2153 148 c 2
 2153 114 l 2
 2153 84 2153 0 2135 0 c 2
 2085.83496094 0 l 2
 1960 0 1835.84863281 84.2841796875 1713.49121094 228.723632812 c 1
 1645.44921875 71.4521484375 1485.94824219 0 1259 0 c 2
 907 0 l 2
 432.19921875 0 57 101.62890625 57 567 c 0
 57 642.142578125 68.6533203125 720.950195312 92.5947265625 803.181640625 c 2
 103.534179688 840.7578125 l 1
 141.340820312 830.640625 l 1
 283.340820312 792.640625 l 1
 317.733398438 783.436523438 l 1
 312.578125 748.208007812 l 2
 300.735351562 667.279296875 295 605.501953125 295 565 c 0
 295 306.4453125 543.768554688 260 921 260 c 2
 1293 260 l 2
 1457.64257812 260 1512 310.404296875 1512 398 c 0
 1512 429.40625 1496.34490882 467.308436451 1455.01953125 513.520507812 c 2
 1055.01855469 960.821289062 l 1
EndSplineSet
EndChar

StartChar: uniFB9F
Encoding: 64415 64415 115
GlifName: uniF_B_9F_
Width: 1487
VWidth: 2311
GlyphClass: 2
Flags: HW
AnchorPoint: "Anchor-10" 393.357 797.317 basechar 0
AnchorPoint: "Anchor-7" 293.314 -699.99 basechar 0
LayerCount: 2
Fore
SplineSet
1494.61523438 0 m 6
 1441.33007812 1.005859375 l 2
 1402 2 1367.53710938 6.587890625 1337.99121094 17.3388671875 c 1
 1309.67382812 -336.536132812 1082.94335938 -517.030273438 690.049804688 -518 c 0
 309.366210938 -518 60 -324.07421875 60 58 c 0
 60 201.84375 91.3798828125 346.609375 155.469726562 490.293945312 c 2
 170.72265625 524.4921875 l 1
 205.8515625 511.525390625 l 1
 354.8515625 456.525390625 l 1
 393.655273438 442.201171875 l 1
 378.040039062 403.899414062 l 2
 326.325195312 277.052734375 301 166.750976562 301 75 c 0
 301 -156.19140625 419.774414062 -265 693 -265 c 0
 985.720703125 -265 1114 -148.6015625 1114 93 c 0
 1114 177.03515625 1080.703125 292.192382812 1011.12402344 433.311523438 c 2
 994.291015625 467.451171875 l 1
 1027.5546875 485.955078125 l 1
 1178.5546875 569.955078125 l 1
 1218.95507812 592.4296875 l 1
 1235.38769531 549.217773438 l 1
 1316.24804688 336.586914062 l 2
 1337.21484375 285.25 1372 262 1441.62402344 260.995117188 c 2
 1494.61523438 260 l 6
 1512 260 1512.61523438 177 1512.61523438 148 c 6
 1512.61523438 114 l 6
 1512.61523438 84 1513 0 1494.61523438 0 c 6
EndSplineSet
EndChar

StartChar: uniFBE8
Encoding: 64488 64488 118
GlifName: uniF_B_E_8
Width: 668
VWidth: 2317
GlyphClass: 2
Flags: HW
AnchorPoint: "Anchor-10" 323.546 1120.67 basechar 0
AnchorPoint: "Anchor-7" 327.466 -76.0703 basechar 0
LayerCount: 2
Fore
SplineSet
-4 260 m 6
 119 260 l 6
 352 260 369 264.270507812 369 404 c 4
 369 523.125976562 324.919921875 727.470703125 324.919921875 727.470703125 c 1
 316.997070312 763.775390625 l 1
 352.619140625 774.346679688 l 1
 507.619140625 820.346679688 l 1
 545.153320312 831.486328125 l 1
 557.095703125 794.1953125 l 2
 558.024414062 791.293945312 610 630.165039062 610 455 c 0
 610 128.090820312 471 0 115 0 c 2
 -4 0 l 2
 -50 0 -52 64.7431640625 -52 114 c 2
 -52 148 l 2
 -52 198.491210938 -49 260 -4 260 c 6
EndSplineSet
EndChar

StartChar: uniFBE9
Encoding: 64489 64489 119
GlifName: uniF_B_E_9
Width: 764
VWidth: 2311
GlyphClass: 2
Flags: HW
AnchorPoint: "Anchor-10" 297.926 1065.55 basechar 0
AnchorPoint: "Anchor-7" 265.065 -224.47 basechar 0
LayerCount: 2
Fore
SplineSet
771 0 m 6
 737 0 l 2
 633 0 560.654296875 42.4921875 490.564453125 112.571289062 c 1
 408.4140625 36.78125 306 0 189 0 c 2
 -4 0 l 2
 -50 0 -52 64.7431640625 -52 114 c 2
 -52 148 l 2
 -52 198.491210938 -49 260 -4 260 c 2
 193 260 l 2
 320 260 367.551757812 306.299804688 370.01171875 407.948242188 c 2
 375.010742188 622.9296875 l 1
 375.778320312 655.944335938 l 1
 408.340820312 661.44140625 l 1
 562.340820312 687.44140625 l 1
 607.271484375 695.02734375 l 1
 608.971679688 649.493164062 l 1
 617.975585938 408.391601562 l 2
 621.494140625 299.3359375 670 260 740 260 c 2
 771 260 l 6
 788 260 789 177 789 148 c 6
 789 114 l 6
 789 84 789 0 771 0 c 6
EndSplineSet
EndChar

StartChar: uniFE73
Encoding: 65139 65139 127
GlifName: uniF_E_73
Width: 672
VWidth: 2950
GlyphClass: 2
Flags: HW
AnchorPoint: "Anchor-10" 342.943 1050.47 basechar 0
AnchorPoint: "Anchor-7" 416.943 -168.304 basechar 0
LayerCount: 2
Fore
SplineSet
338.336914062 464.018554688 m 2
 338.336914062 328.834960938 416.096679688 260.342773438 618.00390625 260.342773438 c 2
 684.674804688 260.342773438 l 1
 686.674804688 260.342773438 l 1
 726.674804688 260.342773438 l 1
 726.674804688 220.342773438 l 1
 726.674804688 218.342773438 l 1
 726.674804688 43.5537109375 l 1
 726.674804688 41.5537109375 l 1
 726.674804688 1.5537109375 l 1
 686.674804688 1.5537109375 l 1
 684.674804688 1.5537109375 l 1
 607.991210938 1.5537109375 l 2
 262.389648438 1.86328125 71.544921875 159.768554688 71.544921875 466.563476562 c 2
 71.544921875 486.69140625 l 1
 71.544921875 488.69140625 l 1
 71.544921875 528.69140625 l 1
 111.544921875 528.69140625 l 1
 113.544921875 528.69140625 l 1
 296.336914062 528.69140625 l 1
 298.336914062 528.69140625 l 1
 338.336914062 528.69140625 l 1
 338.336914062 488.69140625 l 1
 338.336914062 486.69140625 l 1
 338.336914062 464.018554688 l 2
EndSplineSet
EndChar

StartChar: uniFE8E
Encoding: 65166 65166 153
GlifName: uniF_E_8E_
Width: 527
VWidth: 2311
GlyphClass: 2
Flags: HW
AnchorPoint: "Anchor-10" 224.19 1513.38 basechar 0
AnchorPoint: "Anchor-7" 264.947 -175.71 basechar 0
LayerCount: 2
Fore
SplineSet
534 0 m 2
 514 0 l 2
 222 0 137 185 127.018554688 469.788085938 c 2
 97.0810546875 1338.79785156 l 5
 351 1420.99121094 l 5
 351 485 l 2
 351 318 398 260 513 260 c 2
 534 260 l 2
 551 260 552 177 552 148 c 2
 552 114 l 2
 552 84 552 0 534 0 c 2
EndSplineSet
EndChar

StartChar: uniFEA2
Encoding: 65186 65186 173
GlifName: uniF_E_A_2
Width: 1333
VWidth: 2311
GlyphClass: 2
Flags: HW
AnchorPoint: "Anchor-10" 562.59 1167.96 basechar 0
AnchorPoint: "Anchor-7" 674.525 -773.648 basechar 0
LayerCount: 2
Fore
SplineSet
779 -629 m 4
 394.859375 -628 56 -449.337890625 56 -102.5 c 0
 56 273.588867188 369.29296875 503.284179688 730.889648438 607.551757812 c 1
 717.622070312 612.729492188 702.560546875 618.625 684.374023438 625.76953125 c 0
 534.127929688 684.794921875 477.80859375 707 428 707 c 0
 374.43359375 707 305.516601562 665.717773438 226.892578125 561.857421875 c 2
 202.491210938 529.623046875 l 1
 170.518554688 554.3671875 l 1
 55.5185546875 643.3671875 l 1
 25.107421875 666.90234375 l 1
 47.427734375 698.216796875 l 2
 152.877929688 846.162109375 267.134765625 963 435 963 c 0
 560.248046875 963 676.606445312 900.618164062 802.75 842.450195312 c 0
 926.998046875 785.155273438 1077.04882812 709.919921875 1133.98242188 709.919921875 c 0
 1145.07226562 709.919921875 1156.26953125 710.255859375 1167.63085938 710.9296875 c 2
 1216.29394531 713.817382812 l 1
 1209.62402344 665.52734375 l 1
 1184.62402344 484.52734375 l 1
 1180.31542969 453.33203125 l 1
 1148.98046875 450.198242188 l 2
 1112.25976562 446.526367188 1079.3046875 442.043945312 1045.91210938 437.001953125 c 1
 1058.40136719 310.516601562 1120 260 1292 260 c 2
 1340 260 l 2
 1357 260 1358 177 1358 148 c 2
 1358 114 l 2
 1358 84 1358 0 1340 0 c 2
 1297 0 l 2
 1028 0 857.484375 123.086914062 830.453125 392.911132812 c 1
 532.665039062 297.20703125 305 146.1484375 305 -99 c 0
 305 -264.310546875 486.932617188 -379 777 -380 c 4
 905.775390625 -380 1008.74902344 -366.752929688 1122.77441406 -333.897460938 c 6
 1161.36328125 -322.779296875 l 5
 1172.32910156 -361.411132812 l 5
 1216.32910156 -516.411132812 l 5
 1227 -554 l 5
 1189.67089844 -565.546875 l 6
 1047 -610 922.04296875 -629 779 -629 c 4
EndSplineSet
EndChar

StartChar: uniFEA3
Encoding: 65187 65187 174
GlifName: uniF_E_A_3
Width: 1371
VWidth: 2311
GlyphClass: 2
Flags: HW
AnchorPoint: "Anchor-10" 581.06 1147.73 basechar 0
AnchorPoint: "Anchor-7" 629.96 -177.83 basechar 0
LayerCount: 2
Fore
SplineSet
-4 260 m 2
 70 260 l 2
 279 260 429.583007812 278.569335938 518.388671875 310.612304688 c 0
 626.866210938 349.986328125 745.973632812 399.735351562 871.239257812 457.743164062 c 1
 820.862304688 476.529296875 776.580078125 494.53125 699.412109375 524.754882812 c 0
 549.065429688 583.640625 492.745117188 606 443 606 c 0
 389.43359375 606 320.516601562 564.717773438 241.892578125 460.857421875 c 2
 217.491210938 428.623046875 l 1
 185.518554688 453.3671875 l 1
 70.5185546875 542.3671875 l 1
 40.107421875 565.90234375 l 5
 62.427734375 597.216796875 l 2
 167.877929688 745.162109375 282.134765625 862 450 862 c 0
 575.537109375 862 687.119140625 798.880859375 813.6875 744.921875 c 0
 949.358398438 687.081054688 1106.609375 603.919921875 1238.98242188 603.919921875 c 0
 1250.07226562 603.919921875 1261.26953125 604.255859375 1272.63085938 604.9296875 c 2
 1322.53222656 607.890625 l 1
 1314.47753906 558.5546875 l 1
 1290.47753906 411.5546875 l 1
 1285.5859375 381.596679688 l 1
 1255.41699219 378.245117188 l 2
 1213.75390625 373.615234375 1051.53320312 281.046875 675.381835938 98.9736328125 c 0
 535.4453125 31.6767578125 337 0 79 0 c 2
 -4 0 l 2
 -50 0 -52 64.7431640625 -52 114 c 2
 -52 148 l 2
 -52 198.491210938 -49 260 -4 260 c 2
EndSplineSet
EndChar

StartChar: uniFEA4
Encoding: 65188 65188 175
GlifName: uniF_E_A_4
Width: 1423
VWidth: 2311
GlyphClass: 2
Flags: HW
AnchorPoint: "Anchor-10" 571.06 1147.73 basechar 0
AnchorPoint: "Anchor-7" 619.96 -177.83 basechar 0
LayerCount: 2
Fore
SplineSet
-4 260 m 2
 70 260 l 6
 283 260 433.552734375 278.688476562 518.004882812 310.471679688 c 4
 632.603515625 352.9453125 750.400390625 401.905273438 871.28125 457.727539062 c 5
 820.806640625 476.549804688 776.608398438 494.51953125 699.412109375 524.754882812 c 4
 549.065429688 583.640625 492.745117188 606 443 606 c 4
 389.43359375 606 320.516601562 564.717773438 241.892578125 460.857421875 c 6
 217.491210938 428.623046875 l 5
 185.518554688 453.3671875 l 5
 70.5185546875 542.3671875 l 5
 40.107421875 565.90234375 l 5
 62.427734375 597.216796875 l 6
 167.877929688 745.163085938 282.134765625 862 450 862 c 4
 575.537109375 862 687.119140625 798.879882812 813.686523438 744.920898438 c 4
 949.358398438 687.081054688 1106.609375 603.919921875 1238.98242188 603.919921875 c 4
 1250.07226562 603.919921875 1261.27050781 604.255859375 1272.63085938 604.9296875 c 6
 1322.53222656 607.889648438 l 5
 1314.47753906 558.5546875 l 5
 1290.47753906 411.5546875 l 5
 1286.18066406 385.237304688 l 5
 1260.23535156 379.081054688 l 6
 1214.04882812 368.12109375 1148.58300781 342.958984375 1083.83496094 305.408203125 c 5
 1111.55371094 282.478515625 1180 262 1311.27734375 260.999023438 c 2
 1430 260 l 2
 1447 260 1448 177 1448 148 c 2
 1448 114 l 2
 1448 84 1448 0 1430 0 c 2
 1288 0 l 2
 1074 0 932.595703125 60.4423828125 865.752929688 195.384765625 c 5
 803.079101562 161.694335938 739.259765625 129.66796875 675.3359375 98.9521484375 c 4
 535.499023438 31.7021484375 337 0 79 0 c 6
 -4 0 l 2
 -50 0 -52 64.7431640625 -52 114 c 2
 -52 148 l 2
 -52 198.491210938 -49 260 -4 260 c 2
EndSplineSet
EndChar

StartChar: uniFEAA
Encoding: 65194 65194 181
GlifName: uniF_E_A_A_
Width: 1152
VWidth: 2311
GlyphClass: 2
Flags: HW
AnchorPoint: "Anchor-10" 564.149 1229.65 basechar 0
AnchorPoint: "Anchor-7" 475.41 -206.98 basechar 0
LayerCount: 2
Fore
SplineSet
1159 0 m 2
 1128 -0 l 2
 1024 -0 933.6328125 40.16015625 862.19921875 115.942382812 c 1
 764.361328125 19.9365234375 615.461914062 -22 406 -22 c 0
 303.08984375 -22 194.571289062 -3.0859375 82.7236328125 36.267578125 c 2
 56 45.669921875 l 1
 56 74 l 1
 56 262 l 1
 56 323.0859375 l 1
 111.9921875 298.6640625 l 2
 200.783203125 259.935546875 294.999023438 241 397 241 c 0
 560.844726562 241 694 301.421875 694 338 c 0
 694 348.640625 691.224609375 362.108398438 682.094726562 380.368164062 c 2
 437.970703125 886.625976562 l 1
 422.803710938 918.077148438 l 1
 451.91796875 937.352539062 l 1
 596.91796875 1033.35253906 l 1
 635.638671875 1058.98828125 l 1
 655.255859375 1016.89746094 l 1
 916.287109375 456.830078125 l 2
 979.763671875 319.297851562 1053 264 1132.30761719 260.978515625 c 2
 1159 260 l 2
 1176 259 1177 177 1177 148 c 2
 1177 114 l 2
 1177 84 1177 0 1159 0 c 2
EndSplineSet
EndChar

StartChar: uniFEAE
Encoding: 65198 65198 185
GlifName: uniF_E_A_E_
Width: 896
VWidth: 2317
GlyphClass: 2
Flags: HW
AnchorPoint: "Anchor-10" 533.618 897.71 basechar 0
AnchorPoint: "Anchor-7" 256.38 -598.85 basechar 0
LayerCount: 2
Fore
SplineSet
422.99609375 515.833984375 m 5
 451.732421875 530.584960938 l 1
 601.732421875 607.584960938 l 1
 645.8671875 630.241210938 l 1
 658.649414062 582.306640625 l 2
 682.814453125 491.6875 704.8125 401.67578125 726.892578125 311.349609375 c 0
 732.865234375 286.078125 762 260 863 260 c 2
 903 260 l 2
 920 260 921 177 921 148 c 2
 921 114 l 2
 921 84 921 0 903 0 c 2
 868 0 l 2
 809 0 759.599609375 5.33203125 722.799804688 17.5029296875 c 1
 649.361328125 -335.501953125 371.03125 -513.01171875 21.11328125 -514 c 2
 14.060546875 -514.076171875 l 1
 3.91796875 -488.99609375 l 1
 -51.08203125 -352.99609375 l 1
 -71.6904296875 -302.038085938 l 5
 271.203125 -273.290039062 496 -151.959960938 496 155 c 4
 496 209.786132812 475 322 431.366210938 484.634765625 c 6
 422.99609375 515.833984375 l 5
EndSplineSet
PairPos2: "'kern' Horizontal Kerning lookup 15-2" uniFB7C dx=-110 dy=0 dh=-110 dv=0 dx=0 dy=0 dh=0 dv=0
PairPos2: "'kern' Horizontal Kerning lookup 15-1" uniFEE7 dx=-178 dy=0 dh=-178 dv=0 dx=0 dy=0 dh=0 dv=0
PairPos2: "'kern' Horizontal Kerning lookup 15-2" uniFE8B dx=-178 dy=0 dh=-178 dv=0 dx=0 dy=0 dh=0 dv=0
PairPos2: "'kern' Horizontal Kerning lookup 15-2" uni0640 dx=-178 dy=0 dh=-178 dv=0 dx=0 dy=0 dh=0 dv=0
PairPos2: "'kern' Horizontal Kerning lookup 15-2" uni067E dx=-178 dy=0 dh=-178 dv=0 dx=0 dy=0 dh=0 dv=0
PairPos2: "'kern' Horizontal Kerning lookup 15-2" uni06AF dx=-226 dy=0 dh=-226 dv=0 dx=0 dy=0 dh=0 dv=0
PairPos2: "'kern' Horizontal Kerning lookup 15-2" uniFB92 dx=-226 dy=0 dh=-226 dv=0 dx=0 dy=0 dh=0 dv=0
PairPos2: "'kern' Horizontal Kerning lookup 15-2" uniFB94 dx=-226 dy=0 dh=-226 dv=0 dx=0 dy=0 dh=0 dv=0
PairPos2: "'kern' Horizontal Kerning lookup 15-2" uni0621 dx=-178 dy=0 dh=-178 dv=0 dx=0 dy=0 dh=0 dv=0
PairPos2: "'kern' Horizontal Kerning lookup 15-2" uni0622 dx=-143 dy=0 dh=-143 dv=0 dx=0 dy=0 dh=0 dv=0
PairPos2: "'kern' Horizontal Kerning lookup 15-2" uni0623 dx=-143 dy=0 dh=-143 dv=0 dx=0 dy=0 dh=0 dv=0
PairPos2: "'kern' Horizontal Kerning lookup 15-2" uni0627 dx=-143 dy=0 dh=-143 dv=0 dx=0 dy=0 dh=0 dv=0
PairPos2: "'kern' Horizontal Kerning lookup 15-2" uni0628 dx=-178 dy=0 dh=-178 dv=0 dx=0 dy=0 dh=0 dv=0
PairPos2: "'kern' Horizontal Kerning lookup 15-2" uni0629 dx=-178 dy=0 dh=-178 dv=0 dx=0 dy=0 dh=0 dv=0
PairPos2: "'kern' Horizontal Kerning lookup 15-2" uni062A dx=-178 dy=0 dh=-178 dv=0 dx=0 dy=0 dh=0 dv=0
PairPos2: "'kern' Horizontal Kerning lookup 15-2" uniFE97 dx=-178 dy=0 dh=-178 dv=0 dx=0 dy=0 dh=0 dv=0
PairPos2: "'kern' Horizontal Kerning lookup 15-2" uni062B dx=-178 dy=0 dh=-178 dv=0 dx=0 dy=0 dh=0 dv=0
PairPos2: "'kern' Horizontal Kerning lookup 15-2" uniFE9B dx=-178 dy=0 dh=-178 dv=0 dx=0 dy=0 dh=0 dv=0
PairPos2: "'kern' Horizontal Kerning lookup 15-2" uniFE9F dx=-178 dy=0 dh=-178 dv=0 dx=0 dy=0 dh=0 dv=0
PairPos2: "'kern' Horizontal Kerning lookup 15-2" uniFEA3 dx=-178 dy=0 dh=-178 dv=0 dx=0 dy=0 dh=0 dv=0
PairPos2: "'kern' Horizontal Kerning lookup 15-2" uniFEA7 dx=-178 dy=0 dh=-178 dv=0 dx=0 dy=0 dh=0 dv=0
PairPos2: "'kern' Horizontal Kerning lookup 15-2" uni062F dx=-178 dy=0 dh=-178 dv=0 dx=0 dy=0 dh=0 dv=0
PairPos2: "'kern' Horizontal Kerning lookup 15-2" uni0630 dx=-178 dy=0 dh=-178 dv=0 dx=0 dy=0 dh=0 dv=0
PairPos2: "'kern' Horizontal Kerning lookup 15-2" uni0633 dx=-178 dy=0 dh=-178 dv=0 dx=0 dy=0 dh=0 dv=0
PairPos2: "'kern' Horizontal Kerning lookup 15-2" uniFEB3 dx=-178 dy=0 dh=-178 dv=0 dx=0 dy=0 dh=0 dv=0
PairPos2: "'kern' Horizontal Kerning lookup 15-2" uni0634 dx=-178 dy=0 dh=-178 dv=0 dx=0 dy=0 dh=0 dv=0
PairPos2: "'kern' Horizontal Kerning lookup 15-2" uniFEB7 dx=-178 dy=0 dh=-178 dv=0 dx=0 dy=0 dh=0 dv=0
PairPos2: "'kern' Horizontal Kerning lookup 15-2" uni0635 dx=-178 dy=0 dh=-178 dv=0 dx=0 dy=0 dh=0 dv=0
PairPos2: "'kern' Horizontal Kerning lookup 15-2" uniFEBB dx=-178 dy=0 dh=-178 dv=0 dx=0 dy=0 dh=0 dv=0
PairPos2: "'kern' Horizontal Kerning lookup 15-2" uni0636 dx=-178 dy=0 dh=-178 dv=0 dx=0 dy=0 dh=0 dv=0
PairPos2: "'kern' Horizontal Kerning lookup 15-2" uniFEBF dx=-178 dy=0 dh=-178 dv=0 dx=0 dy=0 dh=0 dv=0
PairPos2: "'kern' Horizontal Kerning lookup 15-2" uni0637 dx=-178 dy=0 dh=-178 dv=0 dx=0 dy=0 dh=0 dv=0
PairPos2: "'kern' Horizontal Kerning lookup 15-2" uniFEC3 dx=-178 dy=0 dh=-178 dv=0 dx=0 dy=0 dh=0 dv=0
PairPos2: "'kern' Horizontal Kerning lookup 15-2" uni0638 dx=-178 dy=0 dh=-178 dv=0 dx=0 dy=0 dh=0 dv=0
PairPos2: "'kern' Horizontal Kerning lookup 15-2" uniFEC7 dx=-178 dy=0 dh=-178 dv=0 dx=0 dy=0 dh=0 dv=0
PairPos2: "'kern' Horizontal Kerning lookup 15-2" uniFECB dx=-178 dy=0 dh=-178 dv=0 dx=0 dy=0 dh=0 dv=0
PairPos2: "'kern' Horizontal Kerning lookup 15-2" uniFECF dx=-178 dy=0 dh=-178 dv=0 dx=0 dy=0 dh=0 dv=0
PairPos2: "'kern' Horizontal Kerning lookup 15-2" uni0641 dx=-178 dy=0 dh=-178 dv=0 dx=0 dy=0 dh=0 dv=0
PairPos2: "'kern' Horizontal Kerning lookup 15-2" uniFED3 dx=-178 dy=0 dh=-178 dv=0 dx=0 dy=0 dh=0 dv=0
PairPos2: "'kern' Horizontal Kerning lookup 15-2" uni0642 dx=-60 dy=0 dh=-60 dv=0 dx=0 dy=0 dh=0 dv=0
PairPos2: "'kern' Horizontal Kerning lookup 15-2" uniFED7 dx=-178 dy=0 dh=-178 dv=0 dx=0 dy=0 dh=0 dv=0
PairPos2: "'kern' Horizontal Kerning lookup 15-2" uni0643 dx=-143 dy=0 dh=-143 dv=0 dx=0 dy=0 dh=0 dv=0
PairPos2: "'kern' Horizontal Kerning lookup 15-2" uniFEDB dx=-226 dy=0 dh=-226 dv=0 dx=0 dy=0 dh=0 dv=0
PairPos2: "'kern' Horizontal Kerning lookup 15-2" uni0644 dx=-60 dy=0 dh=-60 dv=0 dx=0 dy=0 dh=0 dv=0
PairPos2: "'kern' Horizontal Kerning lookup 15-2" uniFEDF dx=-143 dy=0 dh=-143 dv=0 dx=0 dy=0 dh=0 dv=0
PairPos2: "'kern' Horizontal Kerning lookup 15-2" uniFEFB dx=-143 dy=0 dh=-143 dv=0 dx=0 dy=0 dh=0 dv=0
PairPos2: "'kern' Horizontal Kerning lookup 15-2" uni0645 dx=-178 dy=0 dh=-178 dv=0 dx=0 dy=0 dh=0 dv=0
PairPos2: "'kern' Horizontal Kerning lookup 15-2" uniFEE3 dx=-178 dy=0 dh=-178 dv=0 dx=0 dy=0 dh=0 dv=0
PairPos2: "'kern' Horizontal Kerning lookup 15-2" uni0646 dx=-60 dy=0 dh=-60 dv=0 dx=0 dy=0 dh=0 dv=0
PairPos2: "'kern' Horizontal Kerning lookup 15-2" uni0647 dx=-178 dy=0 dh=-178 dv=0 dx=0 dy=0 dh=0 dv=0
PairPos2: "'kern' Horizontal Kerning lookup 15-2" uniFEEB dx=-178 dy=0 dh=-178 dv=0 dx=0 dy=0 dh=0 dv=0
PairPos2: "'kern' Horizontal Kerning lookup 15-2" uni0649 dx=-60 dy=0 dh=-60 dv=0 dx=0 dy=0 dh=0 dv=0
PairPos2: "'kern' Horizontal Kerning lookup 15-2" uni0626 dx=-60 dy=0 dh=-60 dv=0 dx=0 dy=0 dh=0 dv=0
PairPos2: "'kern' Horizontal Kerning lookup 15-2" uni064A dx=-60 dy=0 dh=-60 dv=0 dx=0 dy=0 dh=0 dv=0
PairPos2: "'kern' Horizontal Kerning lookup 15-2" uni06A9 dx=-226 dy=0 dh=-226 dv=0 dx=0 dy=0 dh=0 dv=0
PairPos2: "'kern' Horizontal Kerning lookup 15-2" uniFB8E dx=-226 dy=0 dh=-226 dv=0 dx=0 dy=0 dh=0 dv=0
PairPos2: "'kern' Horizontal Kerning lookup 15-2" uniFB90 dx=-226 dy=0 dh=-226 dv=0 dx=0 dy=0 dh=0 dv=0
PairPos2: "'kern' Horizontal Kerning lookup 15-2" uniFBFE dx=30 dy=0 dh=30 dv=0 dx=0 dy=0 dh=0 dv=0
PairPos2: "'kern' Horizontal Kerning lookup 15-2" uni0631 dx=-30 dy=0 dh=-30 dv=0 dx=0 dy=0 dh=0 dv=0
PairPos2: "'kern' Horizontal Kerning lookup 15-2" uni0632 dx=-30 dy=0 dh=-30 dv=0 dx=0 dy=0 dh=0 dv=0
PairPos2: "'kern' Horizontal Kerning lookup 15-2" uni0624 dx=-30 dy=0 dh=-30 dv=0 dx=0 dy=0 dh=0 dv=0
PairPos2: "'kern' Horizontal Kerning lookup 15-2" uni0648 dx=-30 dy=0 dh=-30 dv=0 dx=0 dy=0 dh=0 dv=0
PairPos2: "'kern' Horizontal Kerning lookup 15-2" uni0698 dx=-40 dy=0 dh=-40 dv=0 dx=0 dy=0 dh=0 dv=0
PairPos2: "'kern' Horizontal Kerning lookup 15-5" uni06C0 dx=-178 dy=0 dh=-178 dv=0 dx=0 dy=0 dh=0 dv=0
EndChar

StartChar: uniFEB2
Encoding: 65202 65202 189
GlifName: uniF_E_B_2
Width: 2554
VWidth: 2311
GlyphClass: 2
Flags: HW
AnchorPoint: "Anchor-10" 1693.64 1046.47 basechar 0
AnchorPoint: "Anchor-7" 686.95 -674.09 basechar 0
LayerCount: 2
Fore
SplineSet
2560 0 m 6
 2507 0 l 2
 2386 0 2289.41992188 34.56640625 2227.77246094 106.778320312 c 1
 2168.43554688 35.6611328125 2085.21582031 0 1983 0 c 0
 1865.25488281 0 1770.50878906 38.50390625 1709.05371094 114.662109375 c 1
 1651.35449219 39.4228515625 1569.92773438 0 1474 0 c 0
 1426.828125 0 1380.04589844 9.5615234375 1336.70703125 27.1904296875 c 1
 1311.703125 -332.931640625 1083.81445312 -518 686 -518 c 0
 307.5703125 -518 58 -322.622070312 58 57 c 0
 58 201.821289062 89.4150390625 345.65625 153.42578125 490.197265625 c 2
 168.62890625 524.526367188 l 1
 203.8515625 511.525390625 l 1
 352.8515625 456.525390625 l 1
 391.655273438 442.201171875 l 1
 376.040039062 403.899414062 l 2
 324.325195312 277.052734375 299 166.750976562 299 75 c 0
 299 -155.250976562 417.931640625 -265 690 -265 c 0
 983.732421875 -265 1112 -148.633789062 1112 94 c 0
 1112 178.002929688 1078.74121094 292.114257812 1009.12402344 433.311523438 c 2
 992.291015625 467.451171875 l 1
 1025.5546875 485.955078125 l 1
 1176.5546875 569.955078125 l 1
 1216.78808594 592.336914062 l 1
 1233.32910156 549.37109375 l 1
 1315.15527344 336.822265625 l 2
 1335.67773438 287.665039062 1378.06152344 260 1469 260 c 0
 1537.63378906 260 1579.13964844 298.243164062 1591.20019531 417.000976562 c 2
 1610.19628906 607.959960938 l 1
 1613.78125 644 l 1
 1650 644 l 1
 1768 644 l 1
 1803.12890625 644 l 1
 1807.66503906 609.165039062 l 1
 1832.65625 417.236328125 l 2
 1847.92871094 303.135742188 1894.97753906 260 1983 260 c 0
 2059.27148438 260 2101.07714844 298.334960938 2111.15234375 416.493164062 c 2
 2130.16113281 627.586914062 l 1
 2133.44042969 664 l 1
 2170 664 l 1
 2288 664 l 1
 2323.56054688 664 l 1
 2327.72460938 628.684570312 l 1
 2352.71972656 416.725585938 l 2
 2365.89160156 306.959960938 2415 260 2513.32421875 260 c 2
 2560 260 l 6
 2577 260 2578 177 2578 148 c 6
 2578 114 l 6
 2578 84 2578 0 2560 0 c 6
EndSplineSet
EndChar

StartChar: uniFEB3
Encoding: 65203 65203 190
GlifName: uniF_E_B_3
Width: 1592
VWidth: 2311
GlyphClass: 2
Flags: HW
AnchorPoint: "Anchor-10" 904.23 1013.89 basechar 0
AnchorPoint: "Anchor-7" 805.43 -158.22 basechar 0
LayerCount: 2
Fore
SplineSet
-4 260 m 6
 63 260 l 2
 194 260 247.231445312 306.461914062 258.198242188 416.98046875 c 2
 277.198242188 606.98046875 l 1
 280.80078125 643 l 1
 317 643 l 1
 435 643 l 1
 470.10546875 643 l 1
 474.662109375 608.19140625 l 1
 499.662109375 417.186523438 l 2
 514.864257812 300.938476562 560.4375 259.98828125 660.345703125 259.98828125 c 0
 736.916015625 259.98828125 783.524414062 301.135742188 795.198242188 416.98046875 c 2
 814.198242188 606.98046875 l 1
 817.80078125 643 l 1
 854 643 l 1
 972 643 l 1
 1007.12890625 643 l 1
 1011.66503906 608.165039062 l 1
 1036.66503906 416.165039062 l 2
 1051.72949219 300.470703125 1099.875 260.98828125 1178.32324219 260.98828125 c 0
 1264.25097656 260.98828125 1294 274.487304688 1294 423 c 0
 1294 492.392578125 1261.16699219 650.604492188 1248.33007812 686.546875 c 2
 1234.40136719 725.546875 l 1
 1273.86230469 738.114257812 l 1
 1430.86230469 788.114257812 l 1
 1467.7890625 799.874023438 l 1
 1480.7109375 763.336914062 l 2
 1516.06542969 663.369140625 1537 565.618164062 1537 435 c 0
 1537 174.721679688 1426.54296875 0 1186 0 c 0
 1067.44335938 0 971.497070312 37.953125 910.235351562 115.674804688 c 1
 846.983398438 39.09765625 762.682617188 0 662 0 c 0
 535.948242188 0 433.977539062 37.70703125 366.9453125 113.055664062 c 1
 290.954101562 36.2216796875 187 0 61 0 c 2
 -4 0 l 6
 -50 0 -52 64.7431640625 -52 114 c 6
 -52 148 l 6
 -52 198.491210938 -49 260 -4 260 c 6
EndSplineSet
EndChar

StartChar: uniFEB4
Encoding: 65204 65204 191
GlifName: uniF_E_B_4
Width: 1756
VWidth: 2306
GlyphClass: 2
Flags: HW
AnchorPoint: "Anchor-7" 805.43 -158.22 basechar 0
AnchorPoint: "Anchor-10" 904.23 1013.89 basechar 0
LayerCount: 2
Fore
SplineSet
1763 0 m 6
 1711 0 l 2
 1590 0 1493.83105469 32.7392578125 1431.57128906 105.735351562 c 1
 1371.78808594 34.73046875 1287.94335938 0 1186 0 c 0
 1067.44335938 0 971.497070312 37.953125 910.235351562 115.674804688 c 1
 846.983398438 39.09765625 762.682617188 0 662 0 c 0
 535.948242188 0 433.977539062 37.70703125 366.9453125 113.055664062 c 1
 290.954101562 36.2216796875 187 0 61 0 c 2
 -4 0 l 2
 -50 0 -52 64.7431640625 -52 114 c 2
 -52 148 l 2
 -52 198.491210938 -49 260 -4 260 c 2
 63 260 l 2
 194 260 247.234375 306.49609375 258.197265625 416.96484375 c 2
 277.198242188 606.98046875 l 1
 280.80078125 643 l 1
 317 643 l 1
 435 643 l 1
 470.10546875 643 l 1
 474.662109375 608.19140625 l 1
 499.662109375 417.186523438 l 2
 514.864257812 300.938476562 560.4375 259.98828125 660.345703125 259.98828125 c 0
 736.916015625 259.98828125 783.524414062 301.135742188 795.198242188 416.98046875 c 2
 814.198242188 606.98046875 l 1
 817.80078125 643 l 1
 854 643 l 1
 972 643 l 1
 1007.12890625 643 l 1
 1011.66503906 608.165039062 l 1
 1036.65625 416.236328125 l 2
 1052.02050781 301.44921875 1098.40527344 260.98828125 1188.32324219 260.98828125 c 0
 1263.01074219 260.98828125 1305.1640625 299.349609375 1315.15332031 416.500976562 c 2
 1334.16308594 626.604492188 l 1
 1337.45605469 663 l 1
 1374 663 l 1
 1492 663 l 1
 1527.56054688 663 l 1
 1531.72460938 627.684570312 l 1
 1556.71777344 415.744140625 l 2
 1569.80957031 307.514648438 1619 263 1717.7734375 260.9921875 c 2
 1763 260 l 6
 1780 260 1781 177 1781 148 c 6
 1781 114 l 6
 1781 84 1781 0 1763 0 c 6
EndSplineSet
EndChar

StartChar: uniFEBA
Encoding: 65210 65210 197
GlifName: uniF_E_B_A_
Width: 2550
VWidth: 2311
GlyphClass: 2
Flags: HW
AnchorPoint: "Anchor-10" 1955.64 1124.47 basechar 0
AnchorPoint: "Anchor-7" 686.95 -674.09 basechar 0
LayerCount: 2
Fore
SplineSet
2556 0 m 6
 2520 0 l 2
 2358 0 2264.55371094 24.8896484375 2182.97460938 76.6220703125 c 1
 2052.31933594 22.3330078125 1888.0234375 0 1697 0 c 2
 1531 0 l 2
 1459.56054688 0 1393.18847656 10.5302734375 1336.94726562 30.6767578125 c 1
 1313.39355469 -331.114257812 1086.42773438 -517.016601562 688.049804688 -518 c 0
 307.65625 -518 58 -323.640625 58 58 c 0
 58 201.84375 89.3798828125 346.609375 153.469726562 490.293945312 c 2
 168.72265625 524.4921875 l 1
 203.8515625 511.525390625 l 1
 352.8515625 456.525390625 l 1
 391.655273438 442.201171875 l 1
 376.040039062 403.899414062 l 2
 324.325195312 277.052734375 299 166.750976562 299 75 c 0
 299 -156.19140625 417.774414062 -265 691 -265 c 0
 983.720703125 -265 1112 -148.6015625 1112 93 c 0
 1112 177.03515625 1078.703125 292.192382812 1009.12402344 433.311523438 c 2
 992.291015625 467.451171875 l 1
 1025.5546875 485.955078125 l 1
 1176.5546875 569.955078125 l 1
 1216.95507812 592.4296875 l 1
 1233.38769531 549.217773438 l 1
 1314.234375 336.620117188 l 2
 1320.453125 321.346679688 1326.51367188 308.568359375 1331.73730469 300.247070312 c 1
 1415.82226562 414.228515625 1739.06152344 838 2060 838 c 0
 2295.59277344 838 2446 682.936523438 2446 451 c 0
 2446 380.756835938 2429.64257812 314.55078125 2399.95898438 260 c 1
 2556 260 l 6
 2573 260 2574 177 2574 148 c 6
 2574 114 l 6
 2574 84 2574 0 2556 0 c 6
2199 451 m 0
 2199 533.060546875 2146.91308594 578 2060.0859375 578 c 0
 1914.94042969 577.376953125 1708.578125 373.33984375 1611.29492188 260 c 1
 1710 260 l 2
 1991.76660156 260 2199 307.999023438 2199 451 c 0
EndSplineSet
EndChar

StartChar: uniFEBB
Encoding: 65211 65211 198
GlifName: uniF_E_B_B_
Width: 1680
VWidth: 2311
GlyphClass: 2
Flags: HW
AnchorPoint: "Anchor-10" 1120.38 1149.17 basechar 0
AnchorPoint: "Anchor-7" 780.518 -195 basechar 0
LayerCount: 2
Fore
SplineSet
-5 260 m 6
 49 260 l 2
 168 260 213.497070312 304.333007812 216.013671875 410.0390625 c 2
 222.015625 623.125976562 l 1
 222.940429688 655.935546875 l 1
 255.298828125 661.434570312 l 1
 408.298828125 687.434570312 l 1
 453.642578125 695.139648438 l 1
 454.983398438 649.166015625 l 1
 461.986328125 409.059570312 l 2
 463.655273438 338.94921875 477.111328125 306.098632812 505.008789062 292.438476562 c 1
 580.137695312 395.391601562 910.970703125 838 1239 838 c 0
 1474.59277344 838 1625 682.936523438 1625 451 c 0
 1625 116.97265625 1299.67773438 0 876 0 c 2
 710 0 l 2
 557.998046875 0 437.037109375 37.4130859375 343.743164062 115.2265625 c 1
 269.877929688 37.0703125 169 0 48 0 c 2
 -5 0 l 6
 -51 0 -53 64.7431640625 -53 114 c 6
 -53 148 l 6
 -53 198.491210938 -50 260 -5 260 c 6
1378 451 m 0
 1378 533.060546875 1325.91308594 578 1239.0859375 578 c 0
 1093.94042969 577.376953125 887.578125 373.33984375 790.294921875 260 c 1
 889 260 l 2
 1170.76660156 260 1378 307.999023438 1378 451 c 0
EndSplineSet
EndChar

StartChar: uniFEBC
Encoding: 65212 65212 199
GlifName: uniF_E_B_C_
Width: 1729
VWidth: 2311
GlyphClass: 2
Flags: HW
AnchorPoint: "Anchor-7" 780.518 -195 basechar 0
AnchorPoint: "Anchor-10" 1120.38 1149.17 basechar 0
LayerCount: 2
Fore
SplineSet
1736 0 m 6
 1699 0 l 2
 1537 0 1443.55371094 24.8896484375 1361.97460938 76.6220703125 c 1
 1231.31933594 22.3330078125 1067.0234375 0 876 0 c 2
 710 0 l 2
 557.157226562 0 436.737304688 37.48828125 343.729492188 115.212890625 c 1
 269.891601562 37.0849609375 169 0 48 0 c 2
 -5 0 l 2
 -51 0 -53 64.7431640625 -53 114 c 2
 -53 148 l 2
 -53 198.491210938 -50 260 -5 260 c 2
 49 260 l 2
 168 260 213.497070312 304.333007812 216.013671875 410.0390625 c 2
 222.015625 623.125976562 l 1
 222.940429688 655.935546875 l 1
 255.298828125 661.434570312 l 1
 408.298828125 687.434570312 l 1
 453.642578125 695.139648438 l 1
 454.983398438 649.166015625 l 1
 461.986328125 409.059570312 l 2
 463.678710938 337.9765625 477.006835938 305.0390625 504.741210938 292.072265625 c 1
 579.3515625 394.37109375 910.603515625 838 1239 838 c 0
 1474.59277344 838 1625 682.936523438 1625 451 c 0
 1625 380.756835938 1608.64257812 314.55078125 1578.95898438 260 c 1
 1736 260 l 6
 1753 260 1754 177 1754 148 c 6
 1754 114 l 6
 1754 84 1754 0 1736 0 c 6
1378 451 m 0
 1378 533.060546875 1325.91308594 578 1239.0859375 578 c 0
 1093.94042969 577.376953125 887.578125 373.33984375 790.294921875 260 c 1
 889 260 l 2
 1170.76660156 260 1378 307.999023438 1378 451 c 0
EndSplineSet
EndChar

StartChar: uniFEC2
Encoding: 65218 65218 205
GlifName: uniF_E_C_2
Width: 1612
VWidth: 2311
GlyphClass: 2
Flags: HW
AnchorPoint: "Anchor-7" 732.918 -195.32 basechar 0
AnchorPoint: "Anchor-10" 335.13 1493.38 basechar 0
LayerCount: 2
Fore
SplineSet
1619 0 m 2
 1582 0 l 2
 1420 0 1326.55371094 24.8896484375 1244.97460938 76.6220703125 c 1
 1114.31933594 22.3330078125 950.0234375 0 759 0 c 2
 653 0 l 2
 354.98828125 0 178.4296875 10.79296875 60.69140625 32.673828125 c 2
 28.2236328125 38.70703125 l 1
 28.0009765625 71.7294921875 l 1
 27.0009765625 219.729492188 l 1
 26.728515625 260 l 1
 67 260 l 1
 252.873046875 260 l 1
 220.1484375 1328.09960938 l 5
 476 1399.73828125 l 5
 476 391.869140625 l 1
 594.819335938 545.80859375 849.723632812 838 1122 838 c 0
 1357.59277344 838 1508 682.936523438 1508 451 c 0
 1508 380.756835938 1491.64257812 314.55078125 1461.95898438 260 c 1
 1619 260 l 2
 1636 260 1637 177 1637 148 c 2
 1637 114 l 2
 1637 84 1637 0 1619 0 c 2
1122.0859375 578 m 0
 976.940429688 577.376953125 770.578125 373.33984375 673.294921875 260 c 1
 772 260 l 2
 1053.76660156 260 1261 307.999023438 1261 451 c 0
 1261 533.060546875 1209.0703125 578 1122.0859375 578 c 0
EndSplineSet
EndChar

StartChar: uniFEC3
Encoding: 65219 65219 206
GlifName: uniF_E_C_3
Width: 1482
VWidth: 2311
GlyphClass: 2
Flags: HW
AnchorPoint: "Anchor-7" 615.363 -194.3 basechar 0
AnchorPoint: "Anchor-10" 255.043 1496.92 basechar 0
LayerCount: 2
Fore
SplineSet
-4 260 m 2
 168.873046875 260 l 1
 136.1484375 1328.09960938 l 5
 392 1399.73828125 l 5
 392 391.869140625 l 1
 511.819335938 546.80859375 765.723632812 838 1038 838 c 0
 1273.59277344 838 1424 682.936523438 1424 451 c 0
 1424 116.97265625 1099 0 675 0 c 2
 -4 0 l 2
 -50 0 -52 64.7431640625 -52 114 c 2
 -52 148 l 2
 -52 198.491210938 -49 260 -4 260 c 2
1177 451 m 0
 1177 533.060546875 1124.91308594 578 1038.0859375 578 c 0
 892.940429688 577.376953125 686.578125 373.33984375 589.294921875 260 c 1
 688 260 l 2
 969.766601562 260 1177 307.999023438 1177 451 c 0
EndSplineSet
EndChar

StartChar: uniFEC4
Encoding: 65220 65220 207
GlifName: uniF_E_C_4
Width: 1528
VWidth: 2311
GlyphClass: 2
Flags: HW
AnchorPoint: "Anchor-7" 615.363 -194.3 basechar 0
AnchorPoint: "Anchor-10" 255.043 1496.92 basechar 0
LayerCount: 2
Fore
SplineSet
1535 0 m 2
 1498 0 l 2
 1336 0 1242.55371094 24.8896484375 1160.97460938 76.6220703125 c 1
 1030.31933594 22.3330078125 866 0 675 0 c 2
 -4 0 l 2
 -50 0 -52 64.7431640625 -52 114 c 2
 -52 148 l 2
 -52 198.491210938 -49 260 -4 260 c 2
 168.873046875 260 l 1
 136.1484375 1328.09960938 l 5
 392 1399.73828125 l 5
 392 391.869140625 l 1
 511.147460938 543.560546875 766.161132812 838 1038 838 c 0
 1273.59277344 838 1424 682.936523438 1424 451 c 0
 1424 380.756835938 1407.64257812 314.55078125 1377.95898438 260 c 1
 1535 260 l 2
 1552 260 1553 177 1553 148 c 2
 1553 114 l 2
 1553 84 1553 0 1535 0 c 2
1038.0859375 578 m 0
 893.731445312 577.377929688 686.9140625 373.284179688 589.443359375 260 c 1
 688 260 l 2
 969.766601562 260 1177 307.999023438 1177 451 c 0
 1177 533.060546875 1125.0703125 578 1038.0859375 578 c 0
EndSplineSet
EndChar

StartChar: uniFECA
Encoding: 65226 65226 213
GlifName: uniF_E_C_A_
Width: 1218
VWidth: 2311
GlyphClass: 2
Flags: HW
AnchorPoint: "Anchor-7" 614.525 -741.648 basechar 0
AnchorPoint: "Anchor-10" 603.4 1252.21 basechar 0
LayerCount: 2
Fore
SplineSet
1224.42382812 0 m 6
 1170.32910156 0.5322265625 l 2
 929 3 722.939453125 91.8291015625 561.649414062 232.153320312 c 1
 387.328125 121.584960938 305.005859375 30.759765625 305.005859375 -107.9140625 c 0
 305.005859375 -297.672851562 461.20703125 -379.674804688 739.012695312 -379.674804688 c 0
 847.179329404 -379.674804688 953.555664062 -363.3046875 1053.16308594 -335.037109375 c 1
 1064.06738281 -373.545898438 l 1
 1108.07617188 -528.958007812 l 1
 1118 -564 l 1
 997.09375 -610.834960938 859.018237703 -628.865234375 739.655273438 -628.865234375 c 0
 364.737304688 -628.865234375 56.458984375 -474.504882812 56.458984375 -104.31640625 c 0
 56.458984375 86.26171875 171.245117188 247.786132812 382.427734375 385.559570312 c 1
 224.775390625 502.780273438 136.717773438 610.533203125 136.717773438 715.944335938 c 0
 136.717773438 914.267578125 337.305664062 988.587890625 626.083007812 988.587890625 c 0
 908.294921875 988.587890625 1101.52050781 928.337890625 1101.52050781 718.458984375 c 0
 1101.52050781 595.450195312 981.90625 469.864257812 792.424804688 358.874023438 c 1
 894.59765625 294.888671875 1019 264 1173.03125 260.901367188 c 2
 1224.42382812 260 l 6
 1241 260 1242.42382812 177 1242.42382812 148 c 6
 1242.42382812 114 l 6
 1242.42382812 84 1242 0 1224.42382812 0 c 6
859.196289062 711.977539062 m 0
 858.99609375 720.951171875 809.768554688 745.045898438 621.862304688 745.178710938 c 0
 494.416992188 745.178710938 407.84765625 727.219726562 387.84765625 712.995117188 c 1
 397.9375 684.657226562 477.76953125 612.392578125 605.970703125 521.396484375 c 1
 696.58984375 566.173828125 856.81640625 681.342773438 859.196289062 711.977539062 c 0
EndSplineSet
EndChar

StartChar: uniFECB
Encoding: 65227 65227 214
GlifName: uniF_E_C_B_
Width: 994
VWidth: 2311
GlyphClass: 2
Flags: HW
AnchorPoint: "Anchor-10" 498.841 1170.38 basechar 0
AnchorPoint: "Anchor-7" 471.696 -195.05 basechar 0
LayerCount: 2
Fore
SplineSet
-4 260 m 6
 179.330078125 260 l 1
 129.723632812 328.154296875 106 406.860351562 106 501 c 0
 106 726.504882812 285.984375 921 514 921 c 0
 664.643554688 921 789.37109375 858.17578125 877.412109375 736.440429688 c 2
 895.327148438 711.668945312 l 1
 876.127929688 687.87890625 l 1
 784.127929688 573.87890625 l 1
 755.97265625 538.991210938 l 1
 724.506835938 570.92578125 l 2
 664.359375 631.971679688 590.206054688 662 523 662 c 0
 414.930664062 662 352 589.244140625 352 494 c 0
 352 394.374023438 405.805664062 346.09375 496.549804688 291.912109375 c 0
 500.109375 290.227539062 511.840820312 287 529 287 c 0
 554.86328125 287 594.23828125 292.455078125 644.555664062 303.098632812 c 2
 889.390625 357.0625 l 1
 938 367.776367188 l 1
 938 318 l 1
 938 150 l 1
 938 119.059570312 l 1
 908.052734375 111.284179688 l 2
 620.3671875 36.5869140625 356 0 117 0 c 2
 -4 0 l 6
 -50 0 -52 64.7431640625 -52 114 c 6
 -52 148 l 6
 -52 198.491210938 -49 260 -4 260 c 6
EndSplineSet
EndChar

StartChar: uniFEDA
Encoding: 65242 65242 229
GlifName: uniF_E_D_A_
Width: 1956
VWidth: 2311
GlyphClass: 2
Flags: HW
AnchorPoint: "Anchor-10" 958.52 1342.01 basechar 0
AnchorPoint: "Anchor-7" 885.06 -161.16 basechar 0
LayerCount: 2
Fore
SplineSet
1962.48730469 0 m 2
 1922.97460938 1.0126953125 l 2
 1806.00027431 4.01070291144 1692.84179688 55.42578125 1638.33300781 161.39453125 c 1
 1476.58886719 28.7939453125 1253.33300781 1.486328125 907.0859375 0 c 0
 432.127929688 0 57 101.62890625 57 567 c 0
 57 642.142578125 68.6533203125 720.950195312 92.5947265625 803.181640625 c 2
 103.534179688 840.7578125 l 1
 141.340820312 830.640625 l 1
 283.340820312 792.640625 l 1
 317.733398438 783.436523438 l 1
 312.578125 748.208007812 l 2
 300.735351562 667.279296875 295 605.501953125 295 565 c 0
 295 299.470703125 544.19140625 260 921 260 c 0
 985.317382812 260 1052.14453125 260.181640625 1117.30273438 262.9375 c 0
 1377.30175781 273.934570312 1567 324 1558.03710938 504.287109375 c 2
 1519.66699219 1329.23535156 l 5
 1550.53027344 1337.60546875 l 5
 1727.53027344 1385.60546875 l 5
 1778 1399.29199219 l 5
 1778 1347 l 5
 1778 474 l 2
 1778 264 1839.99856027 264.964477551 1938.53710938 260.970703125 c 2
 1962.48730469 260 l 2
 1979 259 1980.48730469 177 1980.48730469 148 c 2
 1980.48730469 114 l 2
 1980.48730469 84 1980 -0 1962.48730469 0 c 2
719.14453125 766.78515625 m 2
 767.387695312 761.759765625 818.436523438 756 860 756 c 0
 949.133789062 756 1004 795.48046875 1004 809 c 0
 1004 813.528320312 999.779296875 823.708984375 949.840820312 831.477539062 c 0
 861.78515625 845.200195312 776 904.39453125 776 1012 c 0
 776 1207.30078125 976.831054688 1246.17382812 1127.68164062 1254.93261719 c 2
 1170 1257.38964844 l 1
 1170 1215 l 1
 1170 1122 l 1
 1170 1084.39746094 l 1
 1132.46972656 1082.07617188 l 2
 1024.11621094 1075.37402344 952 1038.75976562 952 1020 c 0
 952 1004.36230469 961.772460938 996.961914062 1029.8125 987.577148438 c 0
 1123.171875 973.02734375 1180 911.306640625 1180 817 c 0
 1180 733.909179688 1129.17285156 667.470703125 1046.75292969 620.217773438 c 0
 991.247070312 588.995117188 925.174804688 574 848 574 c 0
 804.130859375 574 754.74609375 580.3359375 708.8515625 587.475585938 c 2
 675 592.741210938 l 1
 675 627 l 1
 675 727 l 1
 675 771.3828125 l 1
 719.14453125 766.78515625 l 2
EndSplineSet
EndChar

StartChar: uniFEDB
Encoding: 65243 65243 230
GlifName: uniF_E_D_B_
Width: 894
VWidth: 2311
GlyphClass: 2
Flags: HW
AnchorPoint: "Anchor-10" 233.03 1417.54 basechar 0
AnchorPoint: "Anchor-7" 295.74 -194.64 basechar 0
LayerCount: 2
Fore
SplineSet
-4 260 m 2
 275 260 l 2
 440 260 494 310.404296875 494 398 c 0
 494 429.172851562 478.708007812 466.2734375 437.094726562 513.435546875 c 2
 48.18359375 948.3359375 l 1
 37.0185546875 960.821289062 l 1
 37.0185546875 960.821289062 49.2861328125 1193.00292969 106.448242188 1213.41503906 c 6
 833.166992188 1485.91992188 l 1
 833.166992188 1226 l 1
 306.733398438 1027.50390625 l 1
 614.64453125 686.85546875 l 2
 689.162109375 604.77734375 728 510.459960938 728 409 c 0
 728 138.247070312 552 0 241 0 c 2
 -4 0 l 2
 -50 0 -52 64.7431640625 -52 114 c 2
 -52 148 l 2
 -52 198.491210938 -49 260 -4 260 c 2
EndSplineSet
EndChar

StartChar: uniFEDC
Encoding: 65244 65244 231
GlifName: uniF_E_D_C_
Width: 1110
VWidth: 2311
GlyphClass: 2
Flags: HW
AnchorPoint: "Anchor-10" 233.03 1417.54 basechar 0
AnchorPoint: "Anchor-7" 295.74 -194.64 basechar 0
LayerCount: 2
Fore
SplineSet
37.0185546875 960.821289062 m 1
 37.0185546875 960.821289062 49.2861328125 1193.00292969 106.448242188 1213.41503906 c 6
 833.166992188 1485.91992188 l 1
 833.166992188 1226 l 1
 306.733398438 1027.50390625 l 1
 916.7421875 350.747070312 l 2
 974.111411257 287.100422844 1026 260 1072 260 c 2
 1117 260 l 2
 1134 260 1135 177 1135 148 c 2
 1135 114 l 2
 1135 84 1135 0 1117 0 c 2
 1067.83496094 0 l 2
 942 0 817.848632812 84.2841796875 695.491210938 228.723632812 c 1
 627.44921875 71.4521484375 468 0 241 0 c 2
 -4 0 l 2
 -50 0 -52 64.7431640625 -52 114 c 2
 -52 148 l 2
 -52 198.491210938 -49 260 -4 260 c 2
 275 260 l 2
 440 260 494 310.404296875 494 398 c 0
 494 429.40625 478.344908822 467.308436451 437.01953125 513.520507812 c 2
 37.0185546875 960.821289062 l 1
EndSplineSet
EndChar

StartChar: uniFEDE
Encoding: 65246 65246 233
GlifName: uniF_E_D_E_
Width: 1478
VWidth: 2311
GlyphClass: 2
Flags: HW
AnchorPoint: "Anchor-10" 632.91 1075.85 basechar 0
AnchorPoint: "Anchor-7" 643.612 -673.916 basechar 0
LayerCount: 2
Fore
SplineSet
1484 0 m 2
 1466 0 l 2
 1383 0 1326 13 1274 36 c 1
 1241 -308 1031 -488 668 -488 c 0
 299 -488 58 -270 58 88 c 0
 58 217 93 362 163 520 c 2
 179 555 l 1
 214 542 l 1
 363 487 l 1
 402 472 l 1
 386 434 l 2
 334 307 309 197 309 105 c 0
 309 -111 434 -235 671 -235 c 0
 676 -235 680 -235 685 -235 c 0
 940 -230 1057 -102 1051 181 c 2
 1026 1325 l 5
 1056 1333 l 5
 1228 1384 l 5
 1279 1400 l 5
 1279 1346 l 5
 1279 415 l 2
 1279 284 1323 263 1463 261 c 2
 1484 260 l 2
 1501 260 1502 177 1502 148 c 2
 1502 114 l 2
 1502 84 1502 0 1484 0 c 2
EndSplineSet
EndChar

StartChar: uniFEDF
Encoding: 65247 65247 234
GlifName: uniF_E_D_F_
Width: 561
VWidth: 2311
GlyphClass: 2
Flags: HW
AnchorPoint: "Anchor-10" 334.773 1493.38 basechar 0
AnchorPoint: "Anchor-7" 247.754 -162.99 basechar 0
LayerCount: 2
Fore
SplineSet
-4 260 m 2
 38 260 l 2
 42 260 45.92578125 260.064453125 49.779296875 260.192382812 c 0
 183.568359375 264.62109375 246 339 239.0234375 518.620117188 c 2
 207.995117188 1319.82324219 l 5
 236.745117188 1329.07617188 l 5
 410.745117188 1385.07617188 l 5
 463 1401.89453125 l 5
 463 1347 l 5
 463 506 l 2
 463 205 343 0 47 0 c 2
 -4 0 l 2
 -50 0 -52 64.7431640625 -52 114 c 2
 -52 148 l 2
 -52 198.491210938 -49 260 -4 260 c 2
EndSplineSet
EndChar

StartChar: uniFEE0
Encoding: 65248 65248 235
GlifName: uniF_E_E_0
Width: 638
VWidth: 2311
GlyphClass: 2
Flags: HW
AnchorPoint: "Anchor-10" 333.574 1493.38 basechar 0
AnchorPoint: "Anchor-7" 291.534 -215.99 basechar 0
LayerCount: 2
Fore
SplineSet
645 0 m 2
 633 0 l 2
 527 0 433.48828125 33.0556640625 358.520507812 98.109375 c 1
 285.247070312 32.275390625 193 0 87 0 c 2
 -5 0 l 2
 -51 0 -53 64.7431640625 -53 114 c 2
 -53 148 l 2
 -53 198.491210938 -50 260 -5 260 c 2
 89 260 l 2
 197.913916371 260 247.097278596 315.113941136 242.020507812 465.731445312 c 2
 210.014648438 1321.05761719 l 5
 239.018554688 1330.16308594 l 5
 411.018554688 1384.16308594 l 5
 463 1400.48339844 l 5
 463 1346 l 5
 463 468 l 2
 463 316 516 260 632 260 c 2
 645 260 l 2
 662 260 663 177 663 148 c 2
 663 114 l 2
 663 84 663 0 645 0 c 2
EndSplineSet
EndChar

StartChar: uniFEE2
Encoding: 65250 65250 237
GlifName: uniF_E_E_2
Width: 1187
VWidth: 2311
GlyphClass: 2
Flags: HW
AnchorPoint: "Anchor-10" 663.29 1053.64 basechar 0
AnchorPoint: "Anchor-7" 659.239 -272.747 basechar 0
LayerCount: 2
Fore
SplineSet
1194 0 m 2
 1164.57421875 0 l 2
 1086 0 1018.60449219 20.7529296875 966.513671875 55.9501953125 c 1
 917.075195312 -32.470703125 822.982421875 -87 719 -87 c 0
 492.287109375 -87 357.916015625 102.43359375 317.963867188 303.642578125 c 1
 291.307111543 259.68719878 278 165 280.9609375 65.912109375 c 6
 297.983398438 -519.837890625 l 1
 298.7890625 -547.57421875 l 1
 273.091796875 -558.043945312 l 1
 111.091796875 -624.043945312 l 1
 56 -646.48828125 l 1
 56 -587 l 1
 56 126 l 2
 56 328.530273438 121.731445312 486.17578125 260.0390625 585.7578125 c 1
 395.391601562 678.090820312 540.306640625 728 702 728 c 0
 965.704101562 728 1039.27441406 545.083984375 1041.92578125 286.845703125 c 1
 1062.70800781 269.998046875 1110 260 1170 260 c 2
 1194 260 l 2
 1211 260 1212 177 1212 148 c 2
 1212 114 l 2
 1212 84 1209 0 1194 0 c 2
526.873046875 435.9921875 m 5
 544.482421875 265.385742188 622.163085938 161 718 161 c 0
 773.01171875 161 810 190.116210938 810 289 c 0
 810 418.33203125 789.627929688 478 701 478 c 0
 633.865234375 478 576.763671875 459.291015625 526.873046875 435.9921875 c 5
EndSplineSet
EndChar

StartChar: uniFEE3
Encoding: 65251 65251 238
GlifName: uniF_E_E_3
Width: 988
VWidth: 2311
GlyphClass: 2
Flags: HW
AnchorPoint: "Anchor-10" 496.711 1071.91 basechar 0
AnchorPoint: "Anchor-7" 500.552 -206.89 basechar 0
LayerCount: 2
Fore
SplineSet
-4 260 m 2
 77 260 l 6
 109 260 130.423828125 272.520507812 148.091796875 308.625 c 0
 212.407226562 439.264648438 261.397460938 533.383789062 297.676757812 594.541992188 c 0
 366.524414062 708.571289062 459.154296875 774.009765625 571.275390625 774.009765625 c 0
 795.485351562 774.009765625 930 525.649414062 930 289 c 0
 930 99.123046875 807.826171875 -48.0498046875 613.66015625 -48.0498046875 c 0
 462.791992188 -48.0498046875 333.186523438 46.283203125 277.994140625 91.251953125 c 1
 221.94140625 36.0078125 167 0 61 0 c 2
 -4 0 l 2
 -50 0 -52 64.7431640625 -52 114 c 2
 -52 148 l 2
 -52 198.491210938 -49 260 -4 260 c 2
605 194 m 0
 656.545898438 194 691.709960938 228.84375 691.709960938 291.879882812 c 0
 691.709960938 383.909179688 619.923828125 511.794921875 561.166015625 511.794921875 c 0
 541.584960938 511.794921875 514.985351562 498.272460938 482.919921875 446.798828125 c 0
 452.16796875 397.762695312 423.747070312 346.202148438 399.883789062 295.668945312 c 1
 485.1640625 224.4375 554.8515625 194 605 194 c 0
EndSplineSet
EndChar

StartChar: uniFEE4
Encoding: 65252 65252 239
GlifName: uniF_E_E_4
Width: 1077
VWidth: 2311
GlyphClass: 2
Flags: HW
AnchorPoint: "Anchor-7" 500.552 -206.89 basechar 0
AnchorPoint: "Anchor-10" 496.711 1071.91 basechar 0
LayerCount: 2
Fore
SplineSet
1084 0 m 2
 1064 0 l 2
 980 0 909.32421875 19.46875 854.310546875 58.9033203125 c 1
 797.833007812 -9.22265625 714.201171875 -48 614 -48 c 0
 463.140625 -48 332.184570312 47.28125 278.049804688 91.3056640625 c 1
 221.88671875 35.9541015625 167 0 61 0 c 2
 -4 0 l 6
 -50 0 -52 64.7431640625 -52 114 c 6
 -52 148 l 6
 -52 198.491210938 -49 260 -4 260 c 6
 77 260 l 2
 109 260 130.423828125 272.520507812 148.091796875 308.625 c 0
 212.407226562 439.264648438 261.396484375 533.383789062 297.676757812 594.541992188 c 0
 366.208984375 708.047851562 458.620117188 774 571 774 c 0
 765.022460938 774 892.245117188 585.576171875 922.545898438 386.0078125 c 0
 941.557617188 260.931640625 904 260 1067 260 c 2
 1084 260 l 2
 1101 260 1102 177 1102 148 c 2
 1102 114 l 2
 1102 84 1102 0 1084 0 c 2
605 194 m 0
 656.122070312 194 692 229.204101562 692 292 c 0
 692 384.298828125 620.112304688 512 561 512 c 0
 541.8828125 512 515.361328125 498.706054688 482.903320312 446.774414062 c 0
 452.188476562 397.794921875 423.73828125 346.184570312 399.883789062 295.668945312 c 1
 485.1640625 224.4375 554.8515625 194 605 194 c 0
EndSplineSet
EndChar

StartChar: uniFEEA
Encoding: 65258 65258 245
GlifName: uniF_E_E_A_
Width: 1084
VWidth: 2311
GlyphClass: 2
Flags: HW
AnchorPoint: "Anchor-10" 676.887 1291.14 basechar 0
AnchorPoint: "Anchor-7" 442.753 -165.98 basechar 0
LayerCount: 2
Fore
SplineSet
1091 0 m 6
 1053 0 l 2
 802 0 710.274414062 162.54296875 683.497070312 236.146484375 c 1
 603.25390625 224.350585938 542.180664062 219 474 219 c 0
 272.375976562 219 57 291.150390625 57 515 c 0
 57 693.124023438 228.278320312 839.02734375 593.982421875 920.500976562 c 1
 584.278320312 1002.28710938 l 1
 580.067382812 1037.78027344 l 1
 614.865234375 1045.94335938 l 1
 776.865234375 1083.94335938 l 1
 821.375976562 1094.38378906 l 1
 825.811523438 1048.88085938 l 1
 883.782226562 454.176757812 l 2
 902.959960938 288.264648438 952 260 1054 260 c 2
 1091 260 l 6
 1108 260 1109 177 1109 148 c 6
 1109 114 l 6
 1109 84 1106 0 1091 0 c 6
646.116210938 484.208007812 m 1
 624.109375 679.431640625 l 1
 355.088867188 624.229492188 302 558.393554688 302 528 c 0
 302 495.6484375 322.724609375 467 438 467 c 0
 523.3046875 467 585.700195312 473.337890625 646.116210938 484.208007812 c 1
EndSplineSet
EndChar

StartChar: uniFEEB
Encoding: 65259 65259 246
GlifName: uniF_E_E_B_
Width: 1260
VWidth: 2311
GlyphClass: 2
Flags: HW
AnchorPoint: "Anchor-10" 588.329 1269.2 basechar 0
AnchorPoint: "Anchor-7" 490.494 -201.623 basechar 0
LayerCount: 2
Fore
SplineSet
-5 260 m 6
 145.426757812 260 l 1
 116.15625 314.580078125 101.97265625 370.268554688 101.97265625 428.836914062 c 0
 101.97265625 607.934570312 220.002929688 750.288085938 349.456054688 819.328125 c 1
 368.376953125 852.03125 l 1
 449.376953125 992.03125 l 1
 470.693359375 1028.87402344 l 1
 506.141601562 1005.3125 l 1
 837.180664062 785.287109375 l 2
 1076.66992188 625.291992188 1210.00585938 465.315429688 1210.00585938 298.815429688 c 0
 1210.00585938 94.3310546875 1067.68652344 -36 874 -36 c 0
 730.540039062 -36 581.921875 -5.126953125 430.609375 55.392578125 c 1
 312.239257812 17.37890625 174 0 30 0 c 2
 -5 0 l 6
 -51 0 -53 64.7431640625 -53 114 c 6
 -53 148 l 6
 -53 198.491210938 -50 260 -5 260 c 6
827.217773438 500.206054688 m 1
 811.9453125 398.979492188 765.823242188 308.642578125 690.975585938 232.653320312 c 1
 754.075195312 217.82421875 805.80078125 211 848 211 c 0
 952.047851562 211 979 241.728515625 979 299 c 0
 979 342.798828125 935.70703125 413.493164062 827.217773438 500.206054688 c 1
615 573 m 0
 615 624.9140625 586.619140625 646 533 646 c 0
 448.918945312 646 346 526.145507812 346 421 c 0
 346 372.038085938 367.595703125 339.65234375 429.140625 314.900390625 c 1
 519.03125 356.291015625 615 485.036132812 615 573 c 0
EndSplineSet
EndChar

StartChar: uniFEEC
Encoding: 65260 65260 247
GlifName: uniF_E_E_C_
Width: 994
VWidth: 2311
GlyphClass: 2
Flags: HW
AnchorPoint: "Anchor-7" 535.493 -663.658 basechar 0
AnchorPoint: "Anchor-10" 467.766 1150.88 basechar 0
LayerCount: 2
Fore
SplineSet
1001 0 m 6
 954 0 l 2
 837 0 734.428710938 -124.80078125 672.251953125 -441.701171875 c 2
 668.668945312 -459.959960938 l 1
 652.396484375 -468.982421875 l 1
 551.396484375 -524.982421875 l 1
 530.157226562 -536.758789062 l 1
 509.91015625 -523.34765625 l 2
 348.995117188 -416.75390625 241.297851562 -238.212890625 195.501953125 0 c 1
 -4 0 l 2
 -50 0 -52 64.7431640625 -52 114 c 2
 -52 148 l 2
 -52 198.491210938 -49 260 -4 260 c 2
 187.231445312 260.828125 l 1
 190.736328125 549.049804688 233.526367188 880 522 880 c 0
 714.627929688 880 808 728.424804688 808 524 c 0
 808 313.500610236 669.778275994 32.26969453 431.000976562 3.1044921875 c 1
 447.3984375 -78.2734375 474.528320312 -146.724609375 514.272460938 -204.94921875 c 1
 591 70 811 260 956 260 c 2
 1001 260 l 6
 1018 260 1019 177 1019 148 c 6
 1019 114 l 6
 1019 84 1016 0 1001 0 c 6
574 532 m 0
 574 612.610351562 557.827148438 634 525 634 c 0
 445.353515625 634 423.400390625 450.220703125 422.227539062 265.596679688 c 1
 533.661132812 285.29296875 574 355.223632812 574 532 c 0
EndSplineSet
EndChar

StartChar: uniFEEE
Encoding: 65262 65262 249
GlifName: uniF_E_E_E_
Width: 895
VWidth: 2311
GlyphClass: 2
Flags: HW
AnchorPoint: "Anchor-7" 316.38 -598.85 basechar 0
AnchorPoint: "Anchor-10" 430.5 1101.72 basechar 0
LayerCount: 2
Fore
SplineSet
902 0 m 2
 799.127929688 0 l 1
 739.6171875 -276.912109375 511.2265625 -514 101 -514 c 2
 94.029296875 -514 l 1
 83.91796875 -488.99609375 l 1
 28.91796875 -352.99609375 l 1
 7.9833984375 -301.231445312 l 5
 329.109238775 -272.781476723 506.021148206 -160.168467714 561.61328125 0 c 5
 486 0 l 2
 207.21875 0 62 93.6474609375 62 319.190429688 c 0
 64.142578125 544.114257812 201.619140625 793 435 793 c 0
 692.637695312 793 802.084960938 543.07421875 817.448242188 260 c 1
 902 260 l 2
 919 260 920 177 920 148 c 2
 920 114 l 2
 920 84 917 0 902 0 c 2
297 349 m 0
 297 262.940429688 356.53515625 251.114257812 488.890625 251.114257812 c 0
 515.735351562 251.114257812 546.3359375 251.786132812 580.440429688 253.157226562 c 1
 573.629882812 472.73828125 514.298828125 541.005859375 427.556640625 541.005859375 c 0
 362.092773438 541.005859375 297 444.96484375 297 349 c 0
EndSplineSet
EndChar

StartChar: uniFEFB
Encoding: 65275 65275 262
GlifName: uniF_E_F_B_
Width: 1153
VWidth: 2311
GlyphClass: 3
Flags: HW
AnchorPoint: "Anchor-6" 386.36 -192.28 baselig 1
AnchorPoint: "Anchor-6" 878.871 -191.57 baselig 0
AnchorPoint: "Anchor-9" 921.751 1493.38 baselig 0
AnchorPoint: "Anchor-9" 182.739 1398.51 baselig 1
LayerCount: 2
Fore
SplineSet
683.612304688 285.501953125 m 1
 775.927734375 321.586914062 831 432 823.44921875 654.795898438 c 2
 800.184570312 1320.22753906 l 5
 828.809570312 1329.44433594 l 5
 1002.62109375 1385.40722656 l 5
 1054.87988281 1402.23339844 l 5
 1054.87988281 1347.33203125 l 5
 1054.87988281 588.766601562 l 2
 1055 389 1000.70996094 233.840820312 885.065429688 134.064453125 c 0
 779.86328125 43.1767578125 636.189453125 -0 459.900390625 0 c 2
 206.091796875 0 l 1
 172.646484375 0 l 1
 166.723632812 32.9169921875 l 1
 136.723632812 199.666992188 l 1
 128.252929688 246.75 l 1
 176.091796875 246.75 l 1
 459.057617188 246.75 l 1
 37.265625 1150.45800781 l 5
 66.2666015625 1168.37792969 l 5
 212.973632812 1259.02832031 l 5
 253.909179688 1284.32226562 l 5
 683.612304688 285.501953125 l 1
EndSplineSet
PairPos2: "'kern' Horizontal Kerning lookup 15-6" uni0639 dx=-60 dy=0 dh=-60 dv=0 dx=0 dy=0 dh=0 dv=0
PairPos2: "'kern' Horizontal Kerning lookup 15-6" uni063A dx=-60 dy=0 dh=-60 dv=0 dx=0 dy=0 dh=0 dv=0
LCarets2: 1 0
Ligature2: "'rlig' Required Ligatures in Arabic lookup 16 subtable" uniFEDF uniFE8E
EndChar

StartChar: uniFEFC
Encoding: 65276 65276 263
GlifName: uniF_E_F_C_
Width: 1238
VWidth: 2311
GlyphClass: 3
Flags: HW
AnchorPoint: "Anchor-6" 386.36 -192.28 baselig 1
AnchorPoint: "Anchor-6" 878.871 -191.57 baselig 0
AnchorPoint: "Anchor-9" 915.751 1493.38 baselig 0
AnchorPoint: "Anchor-9" 182.739 1398.51 baselig 1
LayerCount: 2
Fore
SplineSet
1244 0 m 6
 1231 0 l 2
 1082 0 972 58 921 170 c 1
 816 55 660 0 460 0 c 2
 206 0 l 1
 173 0 l 1
 167 33 l 1
 137 200 l 1
 128 247 l 1
 176 247 l 1
 459 247 l 1
 37 1150 l 1
 66 1168 l 1
 213 1259 l 1
 254 1284 l 1
 684 285 l 1
 778 320 834 431 825 655 c 2
 800 1320 l 1
 829 1329 l 1
 1003 1385 l 1
 1055 1402 l 1
 1055 1347 l 1
 1055 589 l 2
 1055 388 1106 260 1233 260 c 2
 1244 260 l 6
 1261 260 1262 177 1262 148 c 6
 1262 114 l 6
 1262 84 1259 0 1244 0 c 6
EndSplineSet
PairPos2: "'kern' Horizontal Kerning lookup 15-6" uni0639 dx=-60 dy=0 dh=-60 dv=0 dx=0 dy=0 dh=0 dv=0
PairPos2: "'kern' Horizontal Kerning lookup 15-6" uni063A dx=-60 dy=0 dh=-60 dv=0 dx=0 dy=0 dh=0 dv=0
LCarets2: 1 0
Ligature2: "'rlig' Required Ligatures in Arabic lookup 16 subtable" uniFEE0 uniFE8E
EndChar

StartChar: arabic_dot
Encoding: 65536 -1 264
GlifName: arabic_dot
Width: 165
VWidth: 2170
GlyphClass: 2
Flags: HW
LayerCount: 2
Fore
SplineSet
83.6396128194 258.947614054 m 1
 250.257148748 92.330078125 l 1
 83.6396128194 -74.2874578038 l 1
 -82.9768040748 92.330078125 l 1
 83.6396128194 258.947614054 l 1
EndSplineSet
EndChar

StartChar: arabic_2dots
Encoding: 65537 -1 265
GlifName: arabic_2dots
Width: 485
VWidth: 2170
GlyphClass: 2
Flags: HW
LayerCount: 2
Fore
SplineSet
407.290039062 251.820625311 m 1
 566.780548795 92.3301155785 l 1
 407.290039062 -67.1615205307 l 1
 247.79952933 92.3301155785 l 1
 407.290039062 251.820625311 l 1
86.389610984 251.820587857 m 1
 245.881209639 92.3301155787 l 1
 86.3896109838 -67.1614830768 l 1
 -73.1008612945 92.3301155785 l 1
 86.389610984 251.820587857 l 1
EndSplineSet
EndChar

StartChar: arabic_3dots
Encoding: 65538 -1 266
GlifName: arabic_3dots
Width: 488
VWidth: 2170
GlyphClass: 2
Flags: HW
LayerCount: 2
Fore
SplineSet
248.879882812 478.27734375 m 5
 401.244140625 325.911132812 l 5
 248.879882812 173.546875 l 5
 96.515625 325.911132812 l 5
 248.879882812 478.27734375 l 5
406.879882812 244.592773438 m 1
 559.244140625 92.228515625 l 1
 406.879882812 -60.1376953125 l 1
 254.515625 92.228515625 l 1
 406.879882812 244.592773438 l 1
90.8798828125 244.592773438 m 1
 243.244140625 92.228515625 l 1
 90.8798828125 -60.1376953125 l 1
 -61.484375 92.228515625 l 1
 90.8798828125 244.592773438 l 1
EndSplineSet
EndChar

StartChar: arabic_3dots_a
Encoding: 65539 -1 267
GlifName: arabic_3dots_a
Width: 487
VWidth: 2170
GlyphClass: 2
Flags: HW
LayerCount: 2
Fore
SplineSet
248.879882812 -284.4375 m 5
 96.515625 -132.071289062 l 5
 248.879882812 20.29296875 l 5
 401.244140625 -132.071289062 l 5
 248.879882812 -284.4375 l 5
406.879882812 -50.7529296875 m 1
 254.515625 101.611328125 l 1
 406.879882812 253.977539062 l 1
 559.244140625 101.611328125 l 1
 406.879882812 -50.7529296875 l 1
89.8798828125 -50.7529296875 m 1
 -62.484375 101.611328125 l 1
 89.8798828125 253.977539062 l 1
 242.244140625 101.611328125 l 1
 89.8798828125 -50.7529296875 l 1
EndSplineSet
EndChar

StartChar: uni066E.fina
Encoding: 65540 -1 268
GlifName: uni066E_.fina
Width: 2012
VWidth: 2311
GlyphClass: 2
Flags: HW
AnchorPoint: "Anchor-10" 743.06 1167.31 basechar 0
AnchorPoint: "Anchor-7" 743.06 -146.56 basechar 0
LayerCount: 2
Fore
SplineSet
2019 0 m 2
 1955 0 l 6
 1807 0 1684 70 1607 196 c 1
 1456 68 1235 0 907 0 c 0
 432 0 57 102 57 567 c 0
 57 643 70 721 93 803 c 2
 103 841 l 1
 140 831 l 1
 283 793 l 1
 318 783 l 1
 313 748 l 2
 301 667 295 605 295 565 c 0
 295 298 541 261 921 261 c 0
 1321 261 1535 347 1569 621 c 2
 1574 656 l 1
 1609 656 l 1
 1730 656 l 1
 1767 656 l 1
 1770 619 l 2
 1780 498 1793 416 1808 377 c 0
 1839 298 1892 260 1980 260 c 2
 2019 260 l 2
 2036 260 2037 177 2037 148 c 2
 2037 114 l 2
 2037 84 2034 0 2019 0 c 2
EndSplineSet
EndChar

StartChar: uni06A1.fina
Encoding: 65543 -1 269
GlifName: uni06A_1.fina
Width: 1902
VWidth: 2311
GlyphClass: 2
Flags: HW
AnchorPoint: "Anchor-10" 562.8 1280.73 basechar 0
AnchorPoint: "Anchor-7" 675.22 -193.73 basechar 0
LayerCount: 2
Fore
SplineSet
1909 0 m 6
 1812 0 l 2
 1656 0 1523.20019531 23.63671875 1416.33886719 93.771484375 c 1
 1299.55078125 20.0556640625 1069.8359375 0 907 0 c 0
 677.352539062 0 503.901367188 23.599609375 383.575195312 74.09375 c 0
 173.850585938 161.390625 58 322.458984375 58 567 c 0
 58 642.142578125 69.6533203125 720.950195312 93.5947265625 803.181640625 c 2
 104.534179688 840.7578125 l 1
 142.340820312 830.640625 l 1
 284.340820312 792.640625 l 1
 318.733398438 783.436523438 l 1
 313.578125 748.208007812 l 2
 301.735351562 667.279296875 296 605.501953125 296 565 c 0
 296 396.822265625 389.165039062 304.999023438 600.54296875 275.614257812 c 0
 668.079101562 266.1015625 774.961914062 261 921 261 c 0
 980.665039062 261 1079.21972656 261.625 1146.17480469 267 c 1
 1078.25683594 337.615234375 1033 432.890625 1033 536 c 0
 1033 747.999023438 1203.8984375 941 1416 941 c 0
 1628.1015625 941 1799 747.998046875 1799 536 c 0
 1799 431.306640625 1751.0234375 333.423828125 1683.22070312 264.325195312 c 1
 1714.98925781 261.680664062 1756 262 1808 261 c 2
 1909 260 l 6
 1926 260 1927 177 1927 148 c 6
 1927 114 l 6
 1927 84 1924 0 1909 0 c 6
1416 355 m 0
 1448.34765625 355 1556 437.818359375 1556 534 c 0
 1556 618.272460938 1481.84472656 690 1415 690 c 0
 1349.54199219 690 1276 618.665039062 1276 534 c 0
 1276 437.66015625 1382.65429688 355 1416 355 c 0
EndSplineSet
EndChar

StartChar: uni06A1.init
Encoding: 65544 -1 270
GlifName: uni06A_1.init
Width: 885
VWidth: 2311
GlyphClass: 2
Flags: HW
AnchorPoint: "Anchor-10" 443.042 1321.15 basechar 0
AnchorPoint: "Anchor-7" 416.542 -137.02 basechar 0
LayerCount: 2
Fore
SplineSet
264 0 m 2
 -4 0 l 2
 -50 0 -52 64.7431640625 -52 114 c 2
 -52 148 l 2
 -52 198.491210938 -49 260 -4 260 c 2
 270 260 l 2
 473 260 558.424804688 285.348632812 572.649414062 388.458007812 c 5
 518 368 482.736328125 362 420 362 c 4
 240.48046875 362 75 463.103515625 75 662 c 4
 75 899.798828125 212.610351562 1131 440 1131 c 0
 718.778320312 1131 827 827.428710938 827 577 c 0
 827 332.150390625 766.107421875 157.514648438 629.567382812 70.3125 c 0
 550.762695312 19.736328125 429 0 264 0 c 2
304 676 m 4
 304 635.990234375 326.50390625 609 431 609 c 4
 504.31640625 609 560.483398438 633.7265625 586.516601562 647.984375 c 5
 580.12890625 787.294921875 520.965820312 879 442 879 c 0
 377.572265625 879 304 803.875 304 676 c 4
EndSplineSet
EndChar

StartChar: uni06A1.medi
Encoding: 65545 -1 271
GlifName: uni06A_1.medi
Width: 1040
VWidth: 2311
GlyphClass: 2
Flags: HW
AnchorPoint: "Anchor-10" 554.056 1110.6 basechar 0
AnchorPoint: "Anchor-7" 504.056 -137.02 basechar 0
LayerCount: 2
Fore
SplineSet
1047 0 m 6
 950 0 l 2
 795 0 661.947265625 23.470703125 555.077148438 93.28515625 c 1
 451.950195312 21.4814453125 300 0 129 0 c 2
 -4 0 l 2
 -50 0 -52 64.7431640625 -52 114 c 2
 -52 148 l 2
 -52 198.491210938 -49 260 -4 260 c 2
 130 261 l 2
 196 261 249.315429688 261.3984375 286.983398438 264.1171875 c 1
 217.625 334.801757812 171 431.46484375 171 536 c 0
 171 747.999023438 341.8984375 941 554 941 c 0
 766.1015625 941 937 747.998046875 937 536 c 0
 937 431.306640625 889.0234375 333.423828125 821.220703125 264.325195312 c 1
 852.989257812 261.680664062 894 262 946 261 c 2
 1047 260 l 6
 1064 260 1065 177 1065 148 c 6
 1065 114 l 6
 1065 84 1062 0 1047 0 c 6
554 355 m 0
 586.34765625 355 694 437.818359375 694 534 c 0
 694 618.272460938 619.844726562 690 553 690 c 0
 487.541992188 690 414 618.665039062 414 534 c 0
 414 437.66015625 520.654296875 355 554 355 c 0
EndSplineSet
EndChar

StartChar: uni066F.fina
Encoding: 65546 -1 272
GlifName: uni066F_.fina
Width: 1424
VWidth: 2311
GlyphClass: 2
Flags: HW
AnchorPoint: "Anchor-10" 897.8 989.18 basechar 0
AnchorPoint: "Anchor-7" 662.464 -622.77 basechar 0
LayerCount: 2
Fore
SplineSet
1430.69238281 0 m 6
 1340.17480469 1.392578125 l 1
 1326.75292969 -341.239257812 1143.04003906 -518.017578125 720.521484375 -518.017578125 c 0
 296.666992188 -518.017578125 58 -324.853515625 58 58 c 0
 58 201.84375 89.3798828125 346.609375 153.469726562 490.293945312 c 2
 168.72265625 524.4921875 l 1
 203.8515625 511.525390625 l 1
 352.8515625 456.525390625 l 1
 391.655273438 442.201171875 l 1
 376.040039062 403.899414062 l 2
 324.325195312 277.052734375 299 166.750976562 299 75 c 0
 299 -154.99609375 404.84765625 -265.006835938 724.640625 -265.006835938 c 0
 1027.75976562 -265.006835938 1098.9765625 -179.5 1109.76855469 0 c 1
 1016 0 l 2
 736.9140625 0 592 93.6796875 592 319.190429688 c 0
 594.142578125 544.114257812 731.619140625 793 965 793 c 0
 1222.63769531 793 1332.08496094 543.07421875 1347.44824219 260 c 1
 1430.69238281 260 l 6
 1448 260 1448.69238281 177 1448.69238281 148 c 6
 1448.69238281 114 l 6
 1448.69238281 84 1446 0 1430.69238281 0 c 6
827 349 m 0
 827 262.940429688 886.53515625 251.114257812 1018.890625 251.114257812 c 0
 1045.73535156 251.114257812 1076.3359375 251.786132812 1110.44042969 253.157226562 c 1
 1103.62988281 472.73828125 1044.29882812 541.005859375 957.556640625 541.005859375 c 0
 892.092773438 541.005859375 827 444.96484375 827 349 c 0
EndSplineSet
EndChar

StartChar: arabic_gaf_bar
Encoding: 65550 -1 273
GlifName: arabic_gaf_bar
Width: 690
VWidth: 2170
GlyphClass: 2
Flags: HW
LayerCount: 2
Fore
SplineSet
669 1716 m 5
 0 1463.16308594 l 1
 0 1594.89648438 l 1
 669 1847.73339844 l 5
 669 1716 l 5
EndSplineSet
EndChar

StartChar: guillemotleft
Encoding: 171 171 283
GlifName: guillemotleft
Width: 976
VWidth: 2170
Flags: HW
LayerCount: 2
Fore
SplineSet
274.172851562 23.65234375 m 2
 142.627929688 232.099609375 72 402.34375 72 539 c 0
 72 675.479492188 141.56640625 845.801757812 273.172851562 1054.34765625 c 2
 284.943359375 1073 l 1
 307 1073 l 1
 457 1073 l 1
 526.256835938 1073 l 1
 491.647460938 1013.01074219 l 2
 393.194335938 842.359375 311 643.248046875 311 540 c 0
 311 432.584960938 393.715820312 238.004882812 491.810546875 64.7041015625 c 2
 525.604492188 5 l 1
 457 5 l 1
 308 5 l 1
 285.943359375 5 l 1
 274.172851562 23.65234375 l 2
672.247070312 23.53515625 m 2
 539.6015625 232.123046875 470 402.509765625 470 539 c 0
 470 675.491210938 539.6015625 845.877929688 672.247070312 1054.46484375 c 2
 684.034179688 1073 l 1
 706 1073 l 1
 855 1073 l 1
 923.107421875 1073 l 1
 889.934570312 1013.51757812 l 2
 793.038085938 839.772460938 709 643.665039062 709 540 c 0
 709 433.65625 791.833007812 237.796875 889.810546875 64.7041015625 c 2
 923.604492188 5 l 1
 855 5 l 1
 706 5 l 1
 684.034179688 5 l 1
 672.247070312 23.53515625 l 2
EndSplineSet
EndChar

StartChar: guillemotright
Encoding: 187 187 284
GlifName: guillemotright
Width: 976
VWidth: 2170
Flags: HW
LayerCount: 2
Fore
SplineSet
668 5 m 1
 519 5 l 1
 450.4140625 5 l 1
 484.184570312 64.6953125 l 2
 582.038085938 237.66796875 665 432.747070312 665 540 c 0
 665 643.265625 582.864257812 842.5859375 484.369140625 1012.98242188 c 2
 449.676757812 1073 l 1
 519 1073 l 1
 669 1073 l 1
 691.056640625 1073 l 1
 702.827148438 1054.34765625 l 2
 834.43359375 845.801757812 904 675.479492188 904 539 c 0
 904 402.34375 833.372070312 232.099609375 701.827148438 23.65234375 c 2
 690.056640625 5 l 1
 668 5 l 1
270 5 m 1
 121 5 l 1
 52.4140625 5 l 1
 86.1845703125 64.6953125 l 2
 184.000976562 237.602539062 267 433.783203125 267 540 c 0
 267 643.888671875 183.05859375 839.325195312 86.052734375 1013.54101562 c 2
 52.9443359375 1073 l 1
 121 1073 l 1
 270 1073 l 1
 291.965820312 1073 l 1
 303.752929688 1054.46484375 l 2
 436.3984375 845.876953125 506 675.490234375 506 539 c 0
 506 402.508789062 436.3984375 232.122070312 303.752929688 23.53515625 c 2
 291.965820312 5 l 1
 270 5 l 1
EndSplineSet
EndChar

StartChar: NameMe.302
Encoding: 65562 -1 293
GlifName: N_ameM_e.302
Width: 578
VWidth: 2311
Flags: HW
LayerCount: 2
Fore
SplineSet
585 0 m 2
 545 0 l 2
 448 0 374.85546875 35.4189453125 308.274414062 97.3173828125 c 1
 238.515625 32.6494140625 159 0 58 0 c 2
 -4 0 l 2
 -50 0 -52 64.7431640625 -52 114 c 2
 -52 148 l 2
 -52 198.491210938 -49 260 -4 260 c 2
 59 260 l 2
 167 260 199 318 192.037109375 465.276367188 c 2
 159.692382812 1102.95605469 l 5
 189.018554688 1112.16308594 l 5
 361.018554688 1166.16308594 l 5
 413 1182.48339844 l 5
 413 1128 l 5
 413 468 l 2
 413 310 449 260 554 260 c 2
 585 260 l 2
 602 260 603 177 603 148 c 2
 603 114 l 2
 603 84 600 0 585 0 c 2
EndSplineSet
EndChar

StartChar: NameMe.303
Encoding: 65563 -1 294
GlifName: N_ameM_e.303
Width: 521
VWidth: 2311
Flags: HW
LayerCount: 2
Fore
SplineSet
-4 260 m 2
 39 260 l 2
 163.491545206 260 207.160385277 328.247672016 199.026367188 518.548828125 c 2
 167.889648438 1236.79003906 l 5
 196.745117188 1246.07617188 l 5
 370.745117188 1302.07617188 l 5
 423 1318.89453125 l 5
 423 1264 l 5
 423 506 l 2
 423 223 330 0 49 0 c 2
 -4 0 l 2
 -50 0 -52 64.7431640625 -52 114 c 2
 -52 148 l 2
 -52 198.491210938 -49 260 -4 260 c 2
EndSplineSet
EndChar

StartChar: NameMe.65564
Encoding: 65564 -1 297
GlifName: N_ameM_e.65564
Width: 527
VWidth: 2311
Flags: HW
AnchorPoint: "Anchor-10" 210.907 1323.98 basechar 0
AnchorPoint: "Anchor-7" 264.947 -175.71 basechar 0
LayerCount: 2
Fore
SplineSet
534 0 m 2
 514 0 l 2
 223 0 139 182 127.026367188 469.548828125 c 2
 96.9306640625 1178.74902344 l 5
 125.681640625 1188.05566406 l 5
 298.681640625 1244.05566406 l 5
 351 1260.99121094 l 5
 351 1206 l 5
 351 485 l 2
 351 318 398 260 513 260 c 2
 534 260 l 2
 551 260 552 177 552 148 c 2
 552 114 l 2
 552 84 549 0 534 0 c 2
EndSplineSet
EndChar

StartChar: NameMe.65565
Encoding: 65565 -1 298
GlifName: N_ameM_e.65565
Width: 716
VWidth: 2957
Flags: HW
LayerCount: 2
Fore
SplineSet
105.644199261 -239.532388984 m 2
 141.787274583 -247.466724711 178.034758998 -251 209.700195312 -251 c 0
 304.204336657 -251 367.646348675 -234.516337806 400.537582705 -208.203529028 c 0
 427.120831413 -186.76572538 438.200195312 -166.050174263 438.200195312 -145.799804688 c 0
 438.200195312 -140.47133079 436.825602144 -135.012673884 416.400486012 -134.196201143 c 2
 326.473628965 -132.397859156 l 2
 250.6345421 -130.477064779 209.599609375 -88.3044875591 209.599609375 -11.7001953125 c 0
 209.599609375 151.885298195 374.738889773 231.386413838 557.901005587 233.199705305 c 2
 568.723591149 233.306848106 l 1
 567.9761236 222.509573908 l 1
 559.876514225 105.509573908 l 1
 559.244207873 96.3758194645 l 1
 550.090243292 96.2019976762 l 2
 415.301388709 93.6425340098 355.923267188 61.311015521 342.900420948 1.47768637153 c 1
 429.59428509 -1.704270316 l 2
 514.565869714 -3.59232286303 568 -49.4329998134 568 -135.900390625 c 0
 568 -187.750471395 543.965084917 -237.747929706 500.595410009 -285.73142112 c 0
 438.470493301 -353.503407578 338.921226203 -386.200195312 203.400390625 -386.200195312 c 0
 165.851469982 -386.200195312 125.770095947 -382.544048274 84.8633670887 -376.180976615 c 2
 75.0725983393 -374.658015359 l 1
 76.5055094439 -364.853662782 l 1
 93.6051188189 -247.853662782 l 1
 95.1577232057 -237.230337461 l 1
 105.644199261 -239.532388984 l 2
EndSplineSet
EndChar

StartChar: uni060D
Encoding: 1549 1549 299
Width: 828
VWidth: 4036
Flags: HW
LayerCount: 2
Fore
SplineSet
556.780273438 1458.1484375 m 5
 776.4453125 1392.09472656 l 1
 223.374023438 -220.399414062 l 5
 3.708984375 -154.345703125 l 5
 556.780273438 1458.1484375 l 5
EndSplineSet
EndChar

StartChar: NameMe.65541
Encoding: 65541 -1 300
Width: 598
VWidth: 2317
Flags: HW
AnchorPoint: "Anchor-10" 243.546 1120.67 basechar 0
AnchorPoint: "Anchor-7" 327.466 -76.0703 basechar 0
LayerCount: 2
Fore
SplineSet
-4 260 m 6
 49 260 l 2
 282 260 299 264.270507812 299 404 c 4
 299 523.125976562 254.919921875 727.470703125 254.919921875 727.470703125 c 1
 246.997070312 763.775390625 l 1
 282.619140625 774.346679688 l 1
 437.619140625 820.346679688 l 1
 475.153320312 831.486328125 l 1
 487.095703125 794.1953125 l 2
 488.024414062 791.293945312 540 630.165039062 540 455 c 0
 540 128.090820312 401 0 45 0 c 2
 -4 0 l 6
 -50 0 -52 64.7431640625 -52 114 c 6
 -52 148 l 6
 -52 198.491210938 -49 260 -4 260 c 6
EndSplineSet
EndChar

StartChar: NameMe.65542
Encoding: 65542 -1 301
Width: 704
VWidth: 2311
Flags: HW
AnchorPoint: "Anchor-10" 309.126 1164.13 basechar 0
AnchorPoint: "Anchor-7" 339.126 -83.4902 basechar 0
LayerCount: 2
Fore
SplineSet
710 0 m 6
 677 0 l 2
 573 0 500.654296875 42.4921875 430.564453125 112.571289062 c 1
 348.4140625 36.78125 246 0 129 0 c 2
 -4 0 l 2
 -50 0 -52 64.7431640625 -52 114 c 2
 -52 148 l 2
 -52 198.491210938 -49 260 -4 260 c 2
 133 260 l 2
 260 260 307.551757812 306.299804688 310.01171875 407.948242188 c 2
 315.010742188 622.9296875 l 1
 315.778320312 655.944335938 l 1
 348.340820312 661.44140625 l 1
 502.340820312 687.44140625 l 1
 547.271484375 695.02734375 l 1
 548.971679688 649.493164062 l 1
 557.975585938 408.391601562 l 2
 561.494140625 299.3359375 610 260 680 260 c 2
 710 260 l 6
 727 260 728 177 728 148 c 6
 728 114 l 6
 728 84 725 0 710 0 c 6
EndSplineSet
EndChar

StartChar: uniFBFD.compact
Encoding: 65575 -1 321
Width: 1411
VWidth: 2311
Flags: HW
AnchorPoint: "Anchor-10" 741.849 660.691 basechar 0
AnchorPoint: "Anchor-7" 713.391 -739.455 basechar 0
LayerCount: 2
Fore
SplineSet
1418 0 m 2
 1293.484375 0 l 1
 1367 -35 1408 -62.923828125 1408 -136 c 4
 1408 -427.497070312 994.95703125 -524 717 -524 c 0
 324.55078125 -524 57 -321.19921875 57 56 c 0
 57 161.178710938 82.7802734375 321.5390625 154.74609375 475.90234375 c 2
 170.84375 510.430664062 l 1
 206.116210938 496.034179688 l 1
 353.116210938 436.034179688 l 1
 391.232421875 420.4765625 l 1
 374.583007812 382.82421875 l 2
 311.984375 241.25390625 303 138.619140625 303 55 c 0
 303 -152.791992188 420.458984375 -269.009765625 714.576171875 -269.009765625 c 0
 934.14453125 -269.009765625 1151.01464844 -208.569335938 1173.16796875 -155.032226562 c 1
 1162.24316406 -149.264648438 1140.94517907 -141.142535598 1120.1171875 -133.131835938 c 2
 860.640625 -33.333984375 l 2
 809 -14 881 260 930 260 c 2
 1418 260 l 2
 1435 260 1436 177 1436 148 c 2
 1436 114 l 2
 1436 84 1436 0 1418 0 c 2
EndSplineSet
EndChar

StartChar: uniFECC.compact
Encoding: 65579 -1 324
Width: 1099
VWidth: 2311
Flags: HW
AnchorPoint: "Anchor-10" 548.215 1175.79 basechar 0
AnchorPoint: "Anchor-7" 577.375 -163.35 basechar 0
LayerCount: 2
Fore
SplineSet
1107 0 m 6
 1057.88574219 0 l 2
 886 0 735.05859375 45.5771484375 608.96484375 133.483398438 c 1
 478.4296875 43.1787109375 314 0 117 0 c 2
 -4 0 l 2
 -50 0 -52 64.7431640625 -52 114 c 2
 -52 148 l 2
 -52 198.491210938 -49 260 -4 260 c 2
 123 260 l 2
 230 260 314.791015625 268.490234375 371.448242188 282.778320312 c 1
 208.170898438 373.094726562 113.075195312 475.177734375 112 598.826171875 c 0
 112 812.180664062 361.258789062 882 591 882 c 2
 604 882 l 2
 809.80859375 882 1080 841.2265625 1080 610 c 0
 1080 487.682617188 989.459960938 381.09375 838.8203125 285.220703125 c 1
 898.411132812 268.618164062 971 260 1062 260 c 2
 1107 260 l 6
 1124 260 1125 177 1125 148 c 6
 1125 114 l 6
 1125 84 1122 0 1107 0 c 6
840 585 m 0
 840 598.529296875 803.142578125 631 606 631 c 2
 585 631 l 2
 399.03515625 631 351.86328125 593.918945312 351.078125 589.125 c 0
 365.592773438 555.357421875 531.135742188 458.622070312 612.428710938 419.974609375 c 1
 694.805664062 458.375 840 559.087890625 840 585 c 0
EndSplineSet
EndChar

